G04 #@! TF.GenerationSoftware,KiCad,Pcbnew,(5.99.0-576-ga860ac506)*
G04 #@! TF.CreationDate,2020-08-23T19:59:58+02:00*
G04 #@! TF.ProjectId,50 pin to 34 pin Floppy Adapter,35302070-696e-4207-946f-203334207069,rev?*
G04 #@! TF.SameCoordinates,Original*
G04 #@! TF.FileFunction,Copper,L2,Bot*
G04 #@! TF.FilePolarity,Positive*
%FSLAX46Y46*%
G04 Gerber Fmt 4.6, Leading zero omitted, Abs format (unit mm)*
G04 Created by KiCad (PCBNEW (5.99.0-576-ga860ac506)) date 2020-08-23 19:59:58*
%MOMM*%
%LPD*%
G04 APERTURE LIST*
%ADD10R,0.800000X0.300000*%
%ADD11R,0.400000X0.650000*%
%ADD12R,1.700000X1.700000*%
%ADD13C,1.700000*%
%ADD14O,1.700000X1.700000*%
%ADD15R,0.700000X1.300000*%
%ADD16R,0.500000X0.800000*%
%ADD17R,0.400000X0.800000*%
%ADD18C,0.800000*%
%ADD19C,0.500000*%
%ADD20C,0.250000*%
%ADD21C,0.400000*%
%ADD22C,1.000000*%
%ADD23C,2.000000*%
%ADD24C,0.350000*%
%ADD25C,0.254000*%
G04 APERTURE END LIST*
D10*
X85635500Y-39421500D03*
X85635500Y-38921500D03*
X85635500Y-38421500D03*
X85635500Y-37921500D03*
X88735500Y-37921500D03*
X88735500Y-38421500D03*
X88735500Y-38921500D03*
X88735500Y-39421500D03*
D11*
X37338000Y-33469500D03*
X36038000Y-33469500D03*
X36688000Y-35369500D03*
X36038000Y-35369500D03*
X37338000Y-35369500D03*
D12*
X93980000Y-42164000D03*
D13*
X93980000Y-44704000D03*
X91440000Y-42164000D03*
X91440000Y-44704000D03*
X88900000Y-42164000D03*
X88900000Y-44704000D03*
X86360000Y-42164000D03*
X86360000Y-44704000D03*
X83820000Y-42164000D03*
X83820000Y-44704000D03*
X81280000Y-42164000D03*
X81280000Y-44704000D03*
X78740000Y-42164000D03*
X78740000Y-44704000D03*
X76200000Y-42164000D03*
X76200000Y-44704000D03*
X73660000Y-42164000D03*
X73660000Y-44704000D03*
X71120000Y-42164000D03*
X71120000Y-44704000D03*
X68580000Y-42164000D03*
X68580000Y-44704000D03*
X66040000Y-42164000D03*
X66040000Y-44704000D03*
X63500000Y-42164000D03*
X63500000Y-44704000D03*
X60960000Y-42164000D03*
X60960000Y-44704000D03*
X58420000Y-42164000D03*
X58420000Y-44704000D03*
X55880000Y-42164000D03*
X55880000Y-44704000D03*
X53340000Y-42164000D03*
X53340000Y-44704000D03*
X50800000Y-42164000D03*
X50800000Y-44704000D03*
X48260000Y-42164000D03*
X48260000Y-44704000D03*
X45720000Y-42164000D03*
X45720000Y-44704000D03*
X43180000Y-42164000D03*
X43180000Y-44704000D03*
X40640000Y-42164000D03*
X40640000Y-44704000D03*
X38100000Y-42164000D03*
X38100000Y-44704000D03*
X35560000Y-42164000D03*
X35560000Y-44704000D03*
X33020000Y-42164000D03*
X33020000Y-44704000D03*
D12*
X40640000Y-34417000D03*
D14*
X43180000Y-34417000D03*
X45720000Y-34417000D03*
X48260000Y-34417000D03*
X50800000Y-34417000D03*
D15*
X88138000Y-36258500D03*
X86238000Y-36258500D03*
X40960000Y-37211000D03*
X42860000Y-37211000D03*
G04 #@! TA.AperFunction,SMDPad,CuDef*
G36*
X84515903Y-29746918D02*
G01*
X84564566Y-29779434D01*
X84597082Y-29828097D01*
X84608500Y-29885500D01*
X84608500Y-30185500D01*
X84597082Y-30242903D01*
X84564566Y-30291566D01*
X84515903Y-30324082D01*
X84458500Y-30335500D01*
X83158500Y-30335500D01*
X83101097Y-30324082D01*
X83052434Y-30291566D01*
X83019918Y-30242903D01*
X83008500Y-30185500D01*
X83008500Y-29885500D01*
X83019918Y-29828097D01*
X83052434Y-29779434D01*
X83101097Y-29746918D01*
X83158500Y-29735500D01*
X84458500Y-29735500D01*
X84515903Y-29746918D01*
G37*
G04 #@! TD.AperFunction*
G04 #@! TA.AperFunction,SMDPad,CuDef*
G36*
X84515903Y-28476918D02*
G01*
X84564566Y-28509434D01*
X84597082Y-28558097D01*
X84608500Y-28615500D01*
X84608500Y-28915500D01*
X84597082Y-28972903D01*
X84564566Y-29021566D01*
X84515903Y-29054082D01*
X84458500Y-29065500D01*
X83158500Y-29065500D01*
X83101097Y-29054082D01*
X83052434Y-29021566D01*
X83019918Y-28972903D01*
X83008500Y-28915500D01*
X83008500Y-28615500D01*
X83019918Y-28558097D01*
X83052434Y-28509434D01*
X83101097Y-28476918D01*
X83158500Y-28465500D01*
X84458500Y-28465500D01*
X84515903Y-28476918D01*
G37*
G04 #@! TD.AperFunction*
G04 #@! TA.AperFunction,SMDPad,CuDef*
G36*
X84515903Y-27206918D02*
G01*
X84564566Y-27239434D01*
X84597082Y-27288097D01*
X84608500Y-27345500D01*
X84608500Y-27645500D01*
X84597082Y-27702903D01*
X84564566Y-27751566D01*
X84515903Y-27784082D01*
X84458500Y-27795500D01*
X83158500Y-27795500D01*
X83101097Y-27784082D01*
X83052434Y-27751566D01*
X83019918Y-27702903D01*
X83008500Y-27645500D01*
X83008500Y-27345500D01*
X83019918Y-27288097D01*
X83052434Y-27239434D01*
X83101097Y-27206918D01*
X83158500Y-27195500D01*
X84458500Y-27195500D01*
X84515903Y-27206918D01*
G37*
G04 #@! TD.AperFunction*
G04 #@! TA.AperFunction,SMDPad,CuDef*
G36*
X84515903Y-25936918D02*
G01*
X84564566Y-25969434D01*
X84597082Y-26018097D01*
X84608500Y-26075500D01*
X84608500Y-26375500D01*
X84597082Y-26432903D01*
X84564566Y-26481566D01*
X84515903Y-26514082D01*
X84458500Y-26525500D01*
X83158500Y-26525500D01*
X83101097Y-26514082D01*
X83052434Y-26481566D01*
X83019918Y-26432903D01*
X83008500Y-26375500D01*
X83008500Y-26075500D01*
X83019918Y-26018097D01*
X83052434Y-25969434D01*
X83101097Y-25936918D01*
X83158500Y-25925500D01*
X84458500Y-25925500D01*
X84515903Y-25936918D01*
G37*
G04 #@! TD.AperFunction*
G04 #@! TA.AperFunction,SMDPad,CuDef*
G36*
X84515903Y-24666918D02*
G01*
X84564566Y-24699434D01*
X84597082Y-24748097D01*
X84608500Y-24805500D01*
X84608500Y-25105500D01*
X84597082Y-25162903D01*
X84564566Y-25211566D01*
X84515903Y-25244082D01*
X84458500Y-25255500D01*
X83158500Y-25255500D01*
X83101097Y-25244082D01*
X83052434Y-25211566D01*
X83019918Y-25162903D01*
X83008500Y-25105500D01*
X83008500Y-24805500D01*
X83019918Y-24748097D01*
X83052434Y-24699434D01*
X83101097Y-24666918D01*
X83158500Y-24655500D01*
X84458500Y-24655500D01*
X84515903Y-24666918D01*
G37*
G04 #@! TD.AperFunction*
G04 #@! TA.AperFunction,SMDPad,CuDef*
G36*
X84515903Y-23396918D02*
G01*
X84564566Y-23429434D01*
X84597082Y-23478097D01*
X84608500Y-23535500D01*
X84608500Y-23835500D01*
X84597082Y-23892903D01*
X84564566Y-23941566D01*
X84515903Y-23974082D01*
X84458500Y-23985500D01*
X83158500Y-23985500D01*
X83101097Y-23974082D01*
X83052434Y-23941566D01*
X83019918Y-23892903D01*
X83008500Y-23835500D01*
X83008500Y-23535500D01*
X83019918Y-23478097D01*
X83052434Y-23429434D01*
X83101097Y-23396918D01*
X83158500Y-23385500D01*
X84458500Y-23385500D01*
X84515903Y-23396918D01*
G37*
G04 #@! TD.AperFunction*
G04 #@! TA.AperFunction,SMDPad,CuDef*
G36*
X84515903Y-22126918D02*
G01*
X84564566Y-22159434D01*
X84597082Y-22208097D01*
X84608500Y-22265500D01*
X84608500Y-22565500D01*
X84597082Y-22622903D01*
X84564566Y-22671566D01*
X84515903Y-22704082D01*
X84458500Y-22715500D01*
X83158500Y-22715500D01*
X83101097Y-22704082D01*
X83052434Y-22671566D01*
X83019918Y-22622903D01*
X83008500Y-22565500D01*
X83008500Y-22265500D01*
X83019918Y-22208097D01*
X83052434Y-22159434D01*
X83101097Y-22126918D01*
X83158500Y-22115500D01*
X84458500Y-22115500D01*
X84515903Y-22126918D01*
G37*
G04 #@! TD.AperFunction*
G04 #@! TA.AperFunction,SMDPad,CuDef*
G36*
X84515903Y-20856918D02*
G01*
X84564566Y-20889434D01*
X84597082Y-20938097D01*
X84608500Y-20995500D01*
X84608500Y-21295500D01*
X84597082Y-21352903D01*
X84564566Y-21401566D01*
X84515903Y-21434082D01*
X84458500Y-21445500D01*
X83158500Y-21445500D01*
X83101097Y-21434082D01*
X83052434Y-21401566D01*
X83019918Y-21352903D01*
X83008500Y-21295500D01*
X83008500Y-20995500D01*
X83019918Y-20938097D01*
X83052434Y-20889434D01*
X83101097Y-20856918D01*
X83158500Y-20845500D01*
X84458500Y-20845500D01*
X84515903Y-20856918D01*
G37*
G04 #@! TD.AperFunction*
G04 #@! TA.AperFunction,SMDPad,CuDef*
G36*
X91015903Y-20856918D02*
G01*
X91064566Y-20889434D01*
X91097082Y-20938097D01*
X91108500Y-20995500D01*
X91108500Y-21295500D01*
X91097082Y-21352903D01*
X91064566Y-21401566D01*
X91015903Y-21434082D01*
X90958500Y-21445500D01*
X89658500Y-21445500D01*
X89601097Y-21434082D01*
X89552434Y-21401566D01*
X89519918Y-21352903D01*
X89508500Y-21295500D01*
X89508500Y-20995500D01*
X89519918Y-20938097D01*
X89552434Y-20889434D01*
X89601097Y-20856918D01*
X89658500Y-20845500D01*
X90958500Y-20845500D01*
X91015903Y-20856918D01*
G37*
G04 #@! TD.AperFunction*
G04 #@! TA.AperFunction,SMDPad,CuDef*
G36*
X91015903Y-22126918D02*
G01*
X91064566Y-22159434D01*
X91097082Y-22208097D01*
X91108500Y-22265500D01*
X91108500Y-22565500D01*
X91097082Y-22622903D01*
X91064566Y-22671566D01*
X91015903Y-22704082D01*
X90958500Y-22715500D01*
X89658500Y-22715500D01*
X89601097Y-22704082D01*
X89552434Y-22671566D01*
X89519918Y-22622903D01*
X89508500Y-22565500D01*
X89508500Y-22265500D01*
X89519918Y-22208097D01*
X89552434Y-22159434D01*
X89601097Y-22126918D01*
X89658500Y-22115500D01*
X90958500Y-22115500D01*
X91015903Y-22126918D01*
G37*
G04 #@! TD.AperFunction*
G04 #@! TA.AperFunction,SMDPad,CuDef*
G36*
X91015903Y-23396918D02*
G01*
X91064566Y-23429434D01*
X91097082Y-23478097D01*
X91108500Y-23535500D01*
X91108500Y-23835500D01*
X91097082Y-23892903D01*
X91064566Y-23941566D01*
X91015903Y-23974082D01*
X90958500Y-23985500D01*
X89658500Y-23985500D01*
X89601097Y-23974082D01*
X89552434Y-23941566D01*
X89519918Y-23892903D01*
X89508500Y-23835500D01*
X89508500Y-23535500D01*
X89519918Y-23478097D01*
X89552434Y-23429434D01*
X89601097Y-23396918D01*
X89658500Y-23385500D01*
X90958500Y-23385500D01*
X91015903Y-23396918D01*
G37*
G04 #@! TD.AperFunction*
G04 #@! TA.AperFunction,SMDPad,CuDef*
G36*
X91015903Y-24666918D02*
G01*
X91064566Y-24699434D01*
X91097082Y-24748097D01*
X91108500Y-24805500D01*
X91108500Y-25105500D01*
X91097082Y-25162903D01*
X91064566Y-25211566D01*
X91015903Y-25244082D01*
X90958500Y-25255500D01*
X89658500Y-25255500D01*
X89601097Y-25244082D01*
X89552434Y-25211566D01*
X89519918Y-25162903D01*
X89508500Y-25105500D01*
X89508500Y-24805500D01*
X89519918Y-24748097D01*
X89552434Y-24699434D01*
X89601097Y-24666918D01*
X89658500Y-24655500D01*
X90958500Y-24655500D01*
X91015903Y-24666918D01*
G37*
G04 #@! TD.AperFunction*
G04 #@! TA.AperFunction,SMDPad,CuDef*
G36*
X91015903Y-25936918D02*
G01*
X91064566Y-25969434D01*
X91097082Y-26018097D01*
X91108500Y-26075500D01*
X91108500Y-26375500D01*
X91097082Y-26432903D01*
X91064566Y-26481566D01*
X91015903Y-26514082D01*
X90958500Y-26525500D01*
X89658500Y-26525500D01*
X89601097Y-26514082D01*
X89552434Y-26481566D01*
X89519918Y-26432903D01*
X89508500Y-26375500D01*
X89508500Y-26075500D01*
X89519918Y-26018097D01*
X89552434Y-25969434D01*
X89601097Y-25936918D01*
X89658500Y-25925500D01*
X90958500Y-25925500D01*
X91015903Y-25936918D01*
G37*
G04 #@! TD.AperFunction*
G04 #@! TA.AperFunction,SMDPad,CuDef*
G36*
X91015903Y-27206918D02*
G01*
X91064566Y-27239434D01*
X91097082Y-27288097D01*
X91108500Y-27345500D01*
X91108500Y-27645500D01*
X91097082Y-27702903D01*
X91064566Y-27751566D01*
X91015903Y-27784082D01*
X90958500Y-27795500D01*
X89658500Y-27795500D01*
X89601097Y-27784082D01*
X89552434Y-27751566D01*
X89519918Y-27702903D01*
X89508500Y-27645500D01*
X89508500Y-27345500D01*
X89519918Y-27288097D01*
X89552434Y-27239434D01*
X89601097Y-27206918D01*
X89658500Y-27195500D01*
X90958500Y-27195500D01*
X91015903Y-27206918D01*
G37*
G04 #@! TD.AperFunction*
G04 #@! TA.AperFunction,SMDPad,CuDef*
G36*
X91015903Y-28476918D02*
G01*
X91064566Y-28509434D01*
X91097082Y-28558097D01*
X91108500Y-28615500D01*
X91108500Y-28915500D01*
X91097082Y-28972903D01*
X91064566Y-29021566D01*
X91015903Y-29054082D01*
X90958500Y-29065500D01*
X89658500Y-29065500D01*
X89601097Y-29054082D01*
X89552434Y-29021566D01*
X89519918Y-28972903D01*
X89508500Y-28915500D01*
X89508500Y-28615500D01*
X89519918Y-28558097D01*
X89552434Y-28509434D01*
X89601097Y-28476918D01*
X89658500Y-28465500D01*
X90958500Y-28465500D01*
X91015903Y-28476918D01*
G37*
G04 #@! TD.AperFunction*
G04 #@! TA.AperFunction,SMDPad,CuDef*
G36*
X91015903Y-29746918D02*
G01*
X91064566Y-29779434D01*
X91097082Y-29828097D01*
X91108500Y-29885500D01*
X91108500Y-30185500D01*
X91097082Y-30242903D01*
X91064566Y-30291566D01*
X91015903Y-30324082D01*
X90958500Y-30335500D01*
X89658500Y-30335500D01*
X89601097Y-30324082D01*
X89552434Y-30291566D01*
X89519918Y-30242903D01*
X89508500Y-30185500D01*
X89508500Y-29885500D01*
X89519918Y-29828097D01*
X89552434Y-29779434D01*
X89601097Y-29746918D01*
X89658500Y-29735500D01*
X90958500Y-29735500D01*
X91015903Y-29746918D01*
G37*
G04 #@! TD.AperFunction*
D16*
X112338000Y-29707000D03*
D17*
X113938000Y-29707000D03*
X113138000Y-29707000D03*
D16*
X114738000Y-29707000D03*
D17*
X113138000Y-31507000D03*
D16*
X112338000Y-31507000D03*
D17*
X113938000Y-31507000D03*
D16*
X114738000Y-31507000D03*
X116084500Y-29453000D03*
D17*
X117684500Y-29453000D03*
X116884500Y-29453000D03*
D16*
X118484500Y-29453000D03*
D17*
X116884500Y-31253000D03*
D16*
X116084500Y-31253000D03*
D17*
X117684500Y-31253000D03*
D16*
X118484500Y-31253000D03*
X112338000Y-26595500D03*
D17*
X113938000Y-26595500D03*
X113138000Y-26595500D03*
D16*
X114738000Y-26595500D03*
D17*
X113138000Y-28395500D03*
D16*
X112338000Y-28395500D03*
D17*
X113938000Y-28395500D03*
D16*
X114738000Y-28395500D03*
X116084500Y-26341500D03*
D17*
X117684500Y-26341500D03*
X116884500Y-26341500D03*
D16*
X118484500Y-26341500D03*
D17*
X116884500Y-28141500D03*
D16*
X116084500Y-28141500D03*
D17*
X117684500Y-28141500D03*
D16*
X118484500Y-28141500D03*
G04 #@! TA.AperFunction,SMDPad,CuDef*
G36*
X102632903Y-26758918D02*
G01*
X102681566Y-26791434D01*
X102714082Y-26840097D01*
X102725500Y-26897500D01*
X102725500Y-28197500D01*
X102714082Y-28254903D01*
X102681566Y-28303566D01*
X102632903Y-28336082D01*
X102575500Y-28347500D01*
X102275500Y-28347500D01*
X102218097Y-28336082D01*
X102169434Y-28303566D01*
X102136918Y-28254903D01*
X102125500Y-28197500D01*
X102125500Y-26897500D01*
X102136918Y-26840097D01*
X102169434Y-26791434D01*
X102218097Y-26758918D01*
X102275500Y-26747500D01*
X102575500Y-26747500D01*
X102632903Y-26758918D01*
G37*
G04 #@! TD.AperFunction*
G04 #@! TA.AperFunction,SMDPad,CuDef*
G36*
X101362903Y-26758918D02*
G01*
X101411566Y-26791434D01*
X101444082Y-26840097D01*
X101455500Y-26897500D01*
X101455500Y-28197500D01*
X101444082Y-28254903D01*
X101411566Y-28303566D01*
X101362903Y-28336082D01*
X101305500Y-28347500D01*
X101005500Y-28347500D01*
X100948097Y-28336082D01*
X100899434Y-28303566D01*
X100866918Y-28254903D01*
X100855500Y-28197500D01*
X100855500Y-26897500D01*
X100866918Y-26840097D01*
X100899434Y-26791434D01*
X100948097Y-26758918D01*
X101005500Y-26747500D01*
X101305500Y-26747500D01*
X101362903Y-26758918D01*
G37*
G04 #@! TD.AperFunction*
G04 #@! TA.AperFunction,SMDPad,CuDef*
G36*
X100092903Y-26758918D02*
G01*
X100141566Y-26791434D01*
X100174082Y-26840097D01*
X100185500Y-26897500D01*
X100185500Y-28197500D01*
X100174082Y-28254903D01*
X100141566Y-28303566D01*
X100092903Y-28336082D01*
X100035500Y-28347500D01*
X99735500Y-28347500D01*
X99678097Y-28336082D01*
X99629434Y-28303566D01*
X99596918Y-28254903D01*
X99585500Y-28197500D01*
X99585500Y-26897500D01*
X99596918Y-26840097D01*
X99629434Y-26791434D01*
X99678097Y-26758918D01*
X99735500Y-26747500D01*
X100035500Y-26747500D01*
X100092903Y-26758918D01*
G37*
G04 #@! TD.AperFunction*
G04 #@! TA.AperFunction,SMDPad,CuDef*
G36*
X98822903Y-26758918D02*
G01*
X98871566Y-26791434D01*
X98904082Y-26840097D01*
X98915500Y-26897500D01*
X98915500Y-28197500D01*
X98904082Y-28254903D01*
X98871566Y-28303566D01*
X98822903Y-28336082D01*
X98765500Y-28347500D01*
X98465500Y-28347500D01*
X98408097Y-28336082D01*
X98359434Y-28303566D01*
X98326918Y-28254903D01*
X98315500Y-28197500D01*
X98315500Y-26897500D01*
X98326918Y-26840097D01*
X98359434Y-26791434D01*
X98408097Y-26758918D01*
X98465500Y-26747500D01*
X98765500Y-26747500D01*
X98822903Y-26758918D01*
G37*
G04 #@! TD.AperFunction*
G04 #@! TA.AperFunction,SMDPad,CuDef*
G36*
X97552903Y-26758918D02*
G01*
X97601566Y-26791434D01*
X97634082Y-26840097D01*
X97645500Y-26897500D01*
X97645500Y-28197500D01*
X97634082Y-28254903D01*
X97601566Y-28303566D01*
X97552903Y-28336082D01*
X97495500Y-28347500D01*
X97195500Y-28347500D01*
X97138097Y-28336082D01*
X97089434Y-28303566D01*
X97056918Y-28254903D01*
X97045500Y-28197500D01*
X97045500Y-26897500D01*
X97056918Y-26840097D01*
X97089434Y-26791434D01*
X97138097Y-26758918D01*
X97195500Y-26747500D01*
X97495500Y-26747500D01*
X97552903Y-26758918D01*
G37*
G04 #@! TD.AperFunction*
G04 #@! TA.AperFunction,SMDPad,CuDef*
G36*
X96282903Y-26758918D02*
G01*
X96331566Y-26791434D01*
X96364082Y-26840097D01*
X96375500Y-26897500D01*
X96375500Y-28197500D01*
X96364082Y-28254903D01*
X96331566Y-28303566D01*
X96282903Y-28336082D01*
X96225500Y-28347500D01*
X95925500Y-28347500D01*
X95868097Y-28336082D01*
X95819434Y-28303566D01*
X95786918Y-28254903D01*
X95775500Y-28197500D01*
X95775500Y-26897500D01*
X95786918Y-26840097D01*
X95819434Y-26791434D01*
X95868097Y-26758918D01*
X95925500Y-26747500D01*
X96225500Y-26747500D01*
X96282903Y-26758918D01*
G37*
G04 #@! TD.AperFunction*
G04 #@! TA.AperFunction,SMDPad,CuDef*
G36*
X95012903Y-26758918D02*
G01*
X95061566Y-26791434D01*
X95094082Y-26840097D01*
X95105500Y-26897500D01*
X95105500Y-28197500D01*
X95094082Y-28254903D01*
X95061566Y-28303566D01*
X95012903Y-28336082D01*
X94955500Y-28347500D01*
X94655500Y-28347500D01*
X94598097Y-28336082D01*
X94549434Y-28303566D01*
X94516918Y-28254903D01*
X94505500Y-28197500D01*
X94505500Y-26897500D01*
X94516918Y-26840097D01*
X94549434Y-26791434D01*
X94598097Y-26758918D01*
X94655500Y-26747500D01*
X94955500Y-26747500D01*
X95012903Y-26758918D01*
G37*
G04 #@! TD.AperFunction*
G04 #@! TA.AperFunction,SMDPad,CuDef*
G36*
X93742903Y-26758918D02*
G01*
X93791566Y-26791434D01*
X93824082Y-26840097D01*
X93835500Y-26897500D01*
X93835500Y-28197500D01*
X93824082Y-28254903D01*
X93791566Y-28303566D01*
X93742903Y-28336082D01*
X93685500Y-28347500D01*
X93385500Y-28347500D01*
X93328097Y-28336082D01*
X93279434Y-28303566D01*
X93246918Y-28254903D01*
X93235500Y-28197500D01*
X93235500Y-26897500D01*
X93246918Y-26840097D01*
X93279434Y-26791434D01*
X93328097Y-26758918D01*
X93385500Y-26747500D01*
X93685500Y-26747500D01*
X93742903Y-26758918D01*
G37*
G04 #@! TD.AperFunction*
G04 #@! TA.AperFunction,SMDPad,CuDef*
G36*
X93742903Y-33258918D02*
G01*
X93791566Y-33291434D01*
X93824082Y-33340097D01*
X93835500Y-33397500D01*
X93835500Y-34697500D01*
X93824082Y-34754903D01*
X93791566Y-34803566D01*
X93742903Y-34836082D01*
X93685500Y-34847500D01*
X93385500Y-34847500D01*
X93328097Y-34836082D01*
X93279434Y-34803566D01*
X93246918Y-34754903D01*
X93235500Y-34697500D01*
X93235500Y-33397500D01*
X93246918Y-33340097D01*
X93279434Y-33291434D01*
X93328097Y-33258918D01*
X93385500Y-33247500D01*
X93685500Y-33247500D01*
X93742903Y-33258918D01*
G37*
G04 #@! TD.AperFunction*
G04 #@! TA.AperFunction,SMDPad,CuDef*
G36*
X95012903Y-33258918D02*
G01*
X95061566Y-33291434D01*
X95094082Y-33340097D01*
X95105500Y-33397500D01*
X95105500Y-34697500D01*
X95094082Y-34754903D01*
X95061566Y-34803566D01*
X95012903Y-34836082D01*
X94955500Y-34847500D01*
X94655500Y-34847500D01*
X94598097Y-34836082D01*
X94549434Y-34803566D01*
X94516918Y-34754903D01*
X94505500Y-34697500D01*
X94505500Y-33397500D01*
X94516918Y-33340097D01*
X94549434Y-33291434D01*
X94598097Y-33258918D01*
X94655500Y-33247500D01*
X94955500Y-33247500D01*
X95012903Y-33258918D01*
G37*
G04 #@! TD.AperFunction*
G04 #@! TA.AperFunction,SMDPad,CuDef*
G36*
X96282903Y-33258918D02*
G01*
X96331566Y-33291434D01*
X96364082Y-33340097D01*
X96375500Y-33397500D01*
X96375500Y-34697500D01*
X96364082Y-34754903D01*
X96331566Y-34803566D01*
X96282903Y-34836082D01*
X96225500Y-34847500D01*
X95925500Y-34847500D01*
X95868097Y-34836082D01*
X95819434Y-34803566D01*
X95786918Y-34754903D01*
X95775500Y-34697500D01*
X95775500Y-33397500D01*
X95786918Y-33340097D01*
X95819434Y-33291434D01*
X95868097Y-33258918D01*
X95925500Y-33247500D01*
X96225500Y-33247500D01*
X96282903Y-33258918D01*
G37*
G04 #@! TD.AperFunction*
G04 #@! TA.AperFunction,SMDPad,CuDef*
G36*
X97552903Y-33258918D02*
G01*
X97601566Y-33291434D01*
X97634082Y-33340097D01*
X97645500Y-33397500D01*
X97645500Y-34697500D01*
X97634082Y-34754903D01*
X97601566Y-34803566D01*
X97552903Y-34836082D01*
X97495500Y-34847500D01*
X97195500Y-34847500D01*
X97138097Y-34836082D01*
X97089434Y-34803566D01*
X97056918Y-34754903D01*
X97045500Y-34697500D01*
X97045500Y-33397500D01*
X97056918Y-33340097D01*
X97089434Y-33291434D01*
X97138097Y-33258918D01*
X97195500Y-33247500D01*
X97495500Y-33247500D01*
X97552903Y-33258918D01*
G37*
G04 #@! TD.AperFunction*
G04 #@! TA.AperFunction,SMDPad,CuDef*
G36*
X98822903Y-33258918D02*
G01*
X98871566Y-33291434D01*
X98904082Y-33340097D01*
X98915500Y-33397500D01*
X98915500Y-34697500D01*
X98904082Y-34754903D01*
X98871566Y-34803566D01*
X98822903Y-34836082D01*
X98765500Y-34847500D01*
X98465500Y-34847500D01*
X98408097Y-34836082D01*
X98359434Y-34803566D01*
X98326918Y-34754903D01*
X98315500Y-34697500D01*
X98315500Y-33397500D01*
X98326918Y-33340097D01*
X98359434Y-33291434D01*
X98408097Y-33258918D01*
X98465500Y-33247500D01*
X98765500Y-33247500D01*
X98822903Y-33258918D01*
G37*
G04 #@! TD.AperFunction*
G04 #@! TA.AperFunction,SMDPad,CuDef*
G36*
X100092903Y-33258918D02*
G01*
X100141566Y-33291434D01*
X100174082Y-33340097D01*
X100185500Y-33397500D01*
X100185500Y-34697500D01*
X100174082Y-34754903D01*
X100141566Y-34803566D01*
X100092903Y-34836082D01*
X100035500Y-34847500D01*
X99735500Y-34847500D01*
X99678097Y-34836082D01*
X99629434Y-34803566D01*
X99596918Y-34754903D01*
X99585500Y-34697500D01*
X99585500Y-33397500D01*
X99596918Y-33340097D01*
X99629434Y-33291434D01*
X99678097Y-33258918D01*
X99735500Y-33247500D01*
X100035500Y-33247500D01*
X100092903Y-33258918D01*
G37*
G04 #@! TD.AperFunction*
G04 #@! TA.AperFunction,SMDPad,CuDef*
G36*
X101362903Y-33258918D02*
G01*
X101411566Y-33291434D01*
X101444082Y-33340097D01*
X101455500Y-33397500D01*
X101455500Y-34697500D01*
X101444082Y-34754903D01*
X101411566Y-34803566D01*
X101362903Y-34836082D01*
X101305500Y-34847500D01*
X101005500Y-34847500D01*
X100948097Y-34836082D01*
X100899434Y-34803566D01*
X100866918Y-34754903D01*
X100855500Y-34697500D01*
X100855500Y-33397500D01*
X100866918Y-33340097D01*
X100899434Y-33291434D01*
X100948097Y-33258918D01*
X101005500Y-33247500D01*
X101305500Y-33247500D01*
X101362903Y-33258918D01*
G37*
G04 #@! TD.AperFunction*
G04 #@! TA.AperFunction,SMDPad,CuDef*
G36*
X102632903Y-33258918D02*
G01*
X102681566Y-33291434D01*
X102714082Y-33340097D01*
X102725500Y-33397500D01*
X102725500Y-34697500D01*
X102714082Y-34754903D01*
X102681566Y-34803566D01*
X102632903Y-34836082D01*
X102575500Y-34847500D01*
X102275500Y-34847500D01*
X102218097Y-34836082D01*
X102169434Y-34803566D01*
X102136918Y-34754903D01*
X102125500Y-34697500D01*
X102125500Y-33397500D01*
X102136918Y-33340097D01*
X102169434Y-33291434D01*
X102218097Y-33258918D01*
X102275500Y-33247500D01*
X102575500Y-33247500D01*
X102632903Y-33258918D01*
G37*
G04 #@! TD.AperFunction*
X106825500Y-31507000D03*
D17*
X106025500Y-31507000D03*
D16*
X104425500Y-31507000D03*
D17*
X105225500Y-31507000D03*
D16*
X106825500Y-29707000D03*
D17*
X105225500Y-29707000D03*
X106025500Y-29707000D03*
D16*
X104425500Y-29707000D03*
X108134000Y-29453000D03*
D17*
X109734000Y-29453000D03*
X108934000Y-29453000D03*
D16*
X110534000Y-29453000D03*
D17*
X108934000Y-31253000D03*
D16*
X108134000Y-31253000D03*
D17*
X109734000Y-31253000D03*
D16*
X110534000Y-31253000D03*
X106825500Y-28395500D03*
D17*
X106025500Y-28395500D03*
D16*
X104425500Y-28395500D03*
D17*
X105225500Y-28395500D03*
D16*
X106825500Y-26595500D03*
D17*
X105225500Y-26595500D03*
X106025500Y-26595500D03*
D16*
X104425500Y-26595500D03*
X108134000Y-26341500D03*
D17*
X109734000Y-26341500D03*
X108934000Y-26341500D03*
D16*
X110534000Y-26341500D03*
D17*
X108934000Y-28141500D03*
D16*
X108134000Y-28141500D03*
D17*
X109734000Y-28141500D03*
D16*
X110534000Y-28141500D03*
D13*
X33020000Y-26290000D03*
X33020000Y-23750000D03*
X35560000Y-26290000D03*
X35560000Y-23750000D03*
X38100000Y-26290000D03*
X38100000Y-23750000D03*
X40640000Y-26290000D03*
X40640000Y-23750000D03*
X43180000Y-26290000D03*
X43180000Y-23750000D03*
X45720000Y-26290000D03*
X45720000Y-23750000D03*
X48260000Y-26290000D03*
X48260000Y-23750000D03*
X50800000Y-26290000D03*
X50800000Y-23750000D03*
X53340000Y-26290000D03*
X53340000Y-23750000D03*
X55880000Y-26290000D03*
X55880000Y-23750000D03*
X58420000Y-26290000D03*
X58420000Y-23750000D03*
X60960000Y-26290000D03*
X60960000Y-23750000D03*
X63500000Y-26290000D03*
X63500000Y-23750000D03*
X66040000Y-26290000D03*
X66040000Y-23750000D03*
X68580000Y-26290000D03*
X68580000Y-23750000D03*
X71120000Y-26290000D03*
X71120000Y-23750000D03*
X73660000Y-26290000D03*
D12*
X73660000Y-23750000D03*
D14*
X23876000Y-23114000D03*
X23876000Y-25654000D03*
X23876000Y-28194000D03*
D12*
X23876000Y-30734000D03*
D14*
X101663500Y-46037500D03*
X101663500Y-43497500D03*
D12*
X101663500Y-40957500D03*
D18*
X85471000Y-23685500D03*
X77470000Y-40449500D03*
X31432500Y-39052500D03*
X49530000Y-40322500D03*
X57785000Y-31178500D03*
X94805500Y-34036000D03*
X82105500Y-22415500D03*
X97345500Y-34099500D03*
X99885500Y-32348000D03*
X83820000Y-24955500D03*
X83820000Y-26225500D03*
X83820000Y-27495500D03*
X83820000Y-28765500D03*
X118484500Y-34888500D03*
X117024000Y-34888500D03*
X112579000Y-34888500D03*
X113976000Y-34888500D03*
X110483500Y-34952000D03*
X109023000Y-34952000D03*
X105975000Y-34952000D03*
X104514500Y-34952000D03*
X116809510Y-32120000D03*
X110534002Y-26341500D03*
X118484502Y-26278000D03*
X104425500Y-32755000D03*
X104425462Y-31498255D03*
X112337986Y-31548500D03*
X112299500Y-32755000D03*
X117633500Y-32691500D03*
X109808990Y-32628000D03*
X108859010Y-32119999D03*
X70739000Y-37401500D03*
X70739000Y-36258500D03*
X80091760Y-30897405D03*
X80518000Y-22415500D03*
X74273302Y-36692917D03*
X76263500Y-40513000D03*
X75526990Y-39789010D03*
X73469500Y-39433500D03*
X73460653Y-38433527D03*
X68516500Y-39433500D03*
X35623500Y-32131000D03*
X92646500Y-38417500D03*
X90170000Y-39142500D03*
X79863431Y-40303636D03*
X80454500Y-39497000D03*
X86781345Y-38685335D03*
X82677000Y-38735000D03*
X84103709Y-39623680D03*
X86614000Y-34036000D03*
X87439500Y-34798000D03*
X89154000Y-35369500D03*
X79284990Y-38940149D03*
X52070000Y-38200490D03*
X66865500Y-29019500D03*
X69850000Y-32893000D03*
X73469500Y-32893000D03*
X71443314Y-33141186D03*
X72834500Y-29718000D03*
X98597376Y-31135510D03*
X90297000Y-30035500D03*
X99906010Y-31135510D03*
X81474998Y-28443177D03*
X79629000Y-28484990D03*
X70294500Y-28421490D03*
X70612000Y-35052000D03*
X65151000Y-32067500D03*
X62230000Y-38925500D03*
D19*
X96075500Y-34047500D02*
X96075500Y-30289500D01*
D20*
X96075500Y-30289500D02*
X96329500Y-30035500D01*
D19*
X83808500Y-30035500D02*
X90297000Y-30035500D01*
X93535500Y-34036000D02*
X94805500Y-34036000D01*
D21*
X33020000Y-44704000D02*
X31432500Y-43116500D01*
X31432500Y-43116500D02*
X31432500Y-39618185D01*
X31432500Y-39618185D02*
X31432500Y-39052500D01*
D22*
X101663500Y-40957500D02*
X95186500Y-40957500D01*
X95186500Y-40957500D02*
X93980000Y-42164000D01*
D19*
X23876000Y-30734000D02*
X24320500Y-31178500D01*
X43180000Y-31178500D02*
X43243500Y-31242000D01*
X43180000Y-31178500D02*
X57219315Y-31178500D01*
X57219315Y-31178500D02*
X57785000Y-31178500D01*
X43180000Y-34480500D02*
X43180000Y-31178500D01*
X42860000Y-34737000D02*
X43180000Y-34417000D01*
X42860000Y-37211000D02*
X42860000Y-34737000D01*
X40957500Y-35369500D02*
X40957500Y-37655500D01*
X40640000Y-35052000D02*
X40957500Y-35369500D01*
X40640000Y-34988500D02*
X40957500Y-34671000D01*
X102425500Y-30035500D02*
X102425500Y-30734000D01*
D20*
X78740000Y-40703500D02*
X78740000Y-39460000D01*
X78740000Y-39460000D02*
X79084000Y-39116000D01*
X99885500Y-34047500D02*
X99885500Y-32348000D01*
X90308500Y-24955500D02*
X91217045Y-24955500D01*
X90308500Y-23685500D02*
X91503500Y-23685500D01*
X90308500Y-21145500D02*
X91852045Y-21145500D01*
X90308500Y-22415500D02*
X91821000Y-22415500D01*
X90308500Y-28765500D02*
X91440000Y-28765500D01*
X90308500Y-27495500D02*
X91694000Y-27495500D01*
X90308500Y-26225500D02*
X91027250Y-26225500D01*
X91027250Y-26225500D02*
X95074717Y-22178033D01*
X97345500Y-26479500D02*
X98946901Y-24878099D01*
X98615500Y-26670000D02*
X99957390Y-25328110D01*
X99957390Y-25328110D02*
X105300110Y-25328110D01*
X98946901Y-24878099D02*
X105650099Y-24878099D01*
X96075500Y-26479500D02*
X98126912Y-24428088D01*
X97345500Y-27547500D02*
X97345500Y-26479500D01*
X98126912Y-24428088D02*
X106226588Y-24428088D01*
X96075500Y-27547500D02*
X96075500Y-26479500D01*
X94805500Y-26479500D02*
X97306923Y-23978077D01*
X93535500Y-26479500D02*
X96486934Y-23528066D01*
X94805500Y-27547500D02*
X94805500Y-26479500D01*
X93535500Y-27547500D02*
X93535500Y-26479500D01*
X94444523Y-21728022D02*
X110861022Y-21728022D01*
X96486934Y-23528066D02*
X107632066Y-23528066D01*
X97306923Y-23978077D02*
X107226577Y-23978077D01*
X91217045Y-24955500D02*
X94444523Y-21728022D01*
X99885500Y-26686931D02*
X100794310Y-25778121D01*
X91852045Y-21145500D02*
X92647535Y-20350010D01*
X101155500Y-27547500D02*
X101155500Y-26479500D01*
X101406868Y-26228132D02*
X103994632Y-26228132D01*
X91503500Y-23685500D02*
X93910989Y-21278011D01*
X93408500Y-20828000D02*
X112120000Y-20828000D01*
X100794310Y-25778121D02*
X104945871Y-25778121D01*
X93910989Y-21278011D02*
X111171011Y-21278011D01*
X112404010Y-20350010D02*
X98425000Y-20350010D01*
X91821000Y-22415500D02*
X93408500Y-20828000D01*
X92647535Y-20350010D02*
X98426490Y-20350010D01*
X101155500Y-26479500D02*
X101406868Y-26228132D01*
X92456000Y-26606500D02*
X95984445Y-23078055D01*
X95984445Y-23078055D02*
X108845555Y-23078055D01*
X95545456Y-22628044D02*
X110110044Y-22628044D01*
X91821000Y-27368500D02*
X91821000Y-26352500D01*
X91821000Y-26352500D02*
X95545456Y-22628044D01*
X95074717Y-22178033D02*
X110485533Y-22178033D01*
X98615500Y-27547500D02*
X98615500Y-26670000D01*
X99885500Y-27547500D02*
X99885500Y-26686931D01*
X92456000Y-27749500D02*
X92456000Y-26606500D01*
X91440000Y-28765500D02*
X92456000Y-27749500D01*
X91694000Y-27495500D02*
X91821000Y-27368500D01*
X108845555Y-23078055D02*
X112363000Y-26595500D01*
X110110044Y-22628044D02*
X113125000Y-25643000D01*
X113125000Y-25643000D02*
X113125000Y-26595500D01*
X113938000Y-25630500D02*
X113938000Y-25945500D01*
X113938000Y-25945500D02*
X113938000Y-26595500D01*
X110485533Y-22178033D02*
X113938000Y-25630500D01*
X118484500Y-31328703D02*
X118548000Y-31392203D01*
X118548000Y-34825000D02*
X118484500Y-34888500D01*
X118484500Y-31178703D02*
X118484500Y-31328703D01*
X118484500Y-28141500D02*
X118484500Y-29457500D01*
X117684500Y-28141500D02*
X117684500Y-29445000D01*
X116884500Y-28141500D02*
X116884500Y-29445000D01*
X116084500Y-28141500D02*
X116084500Y-29457500D01*
X114738000Y-28395500D02*
X114738000Y-29711500D01*
X113938000Y-28395500D02*
X113938000Y-29737000D01*
X113138000Y-28395500D02*
X113138000Y-29699000D01*
X112338000Y-28395500D02*
X112338000Y-29711500D01*
X110534000Y-28141500D02*
X110534000Y-29446500D01*
X109734000Y-28141500D02*
X109734000Y-29443500D01*
X108934000Y-28141500D02*
X108934000Y-29459000D01*
X108134000Y-28141500D02*
X108134000Y-29433500D01*
X104425500Y-28395500D02*
X104425500Y-29661000D01*
X105225500Y-28395500D02*
X105225500Y-29699000D01*
X106025500Y-28395500D02*
X106025500Y-29699000D01*
X106825500Y-28395500D02*
X106825500Y-29711500D01*
D23*
X92642081Y-42164000D02*
X93980000Y-42164000D01*
X91440000Y-42164000D02*
X92642081Y-42164000D01*
X90102081Y-42164000D02*
X91440000Y-42164000D01*
X88900000Y-42164000D02*
X90102081Y-42164000D01*
X87562081Y-42164000D02*
X88900000Y-42164000D01*
X86360000Y-42164000D02*
X87562081Y-42164000D01*
X83820000Y-42164000D02*
X86360000Y-42164000D01*
X82482081Y-42164000D02*
X83820000Y-42164000D01*
X81280000Y-42164000D02*
X82482081Y-42164000D01*
X79942081Y-42164000D02*
X81280000Y-42164000D01*
X78740000Y-42164000D02*
X79942081Y-42164000D01*
X77402081Y-42164000D02*
X78740000Y-42164000D01*
X76200000Y-42164000D02*
X77402081Y-42164000D01*
X74862081Y-42164000D02*
X76200000Y-42164000D01*
X73660000Y-42164000D02*
X74862081Y-42164000D01*
X71120000Y-42164000D02*
X73660000Y-42164000D01*
X68580000Y-42164000D02*
X71120000Y-42164000D01*
X67242081Y-42164000D02*
X68580000Y-42164000D01*
X66040000Y-42164000D02*
X67242081Y-42164000D01*
X64702081Y-42164000D02*
X66040000Y-42164000D01*
X63500000Y-42164000D02*
X64702081Y-42164000D01*
X62162081Y-42164000D02*
X63500000Y-42164000D01*
X60960000Y-42164000D02*
X62162081Y-42164000D01*
X59622081Y-42164000D02*
X60960000Y-42164000D01*
X58420000Y-42164000D02*
X59622081Y-42164000D01*
X57082081Y-42164000D02*
X58420000Y-42164000D01*
X55880000Y-42164000D02*
X57082081Y-42164000D01*
X54542081Y-42164000D02*
X55880000Y-42164000D01*
X53340000Y-42164000D02*
X54542081Y-42164000D01*
X52002081Y-42164000D02*
X53340000Y-42164000D01*
X50800000Y-42164000D02*
X52002081Y-42164000D01*
X49462081Y-42164000D02*
X50800000Y-42164000D01*
X48260000Y-42164000D02*
X49462081Y-42164000D01*
X46922081Y-42164000D02*
X48260000Y-42164000D01*
X45720000Y-42164000D02*
X46922081Y-42164000D01*
X44382081Y-42164000D02*
X45720000Y-42164000D01*
X43180000Y-42164000D02*
X44382081Y-42164000D01*
X40640000Y-42164000D02*
X43180000Y-42164000D01*
X38100000Y-42164000D02*
X40640000Y-42164000D01*
X36762081Y-42164000D02*
X38100000Y-42164000D01*
X35560000Y-42164000D02*
X36762081Y-42164000D01*
X34222081Y-42164000D02*
X35560000Y-42164000D01*
X33020000Y-42164000D02*
X34222081Y-42164000D01*
D20*
X106827000Y-31616500D02*
X106827000Y-34100000D01*
X106827000Y-34100000D02*
X105975000Y-34952000D01*
X110534000Y-26335500D02*
X110534000Y-26341498D01*
X110534000Y-26341498D02*
X110534002Y-26341500D01*
X118484500Y-26267203D02*
X118484500Y-26277998D01*
X118484500Y-26277998D02*
X118484502Y-26278000D01*
X105227000Y-31616500D02*
X105227000Y-32266500D01*
X105227000Y-32266500D02*
X104738500Y-32755000D01*
X104738500Y-32755000D02*
X104425500Y-32755000D01*
X104427000Y-31616500D02*
X104427000Y-31499793D01*
X104427000Y-31499793D02*
X104425462Y-31498255D01*
X104914499Y-34552001D02*
X104514500Y-34952000D01*
X106027000Y-31616500D02*
X106027000Y-33439500D01*
X106027000Y-33439500D02*
X104914499Y-34552001D01*
X112338000Y-31548486D02*
X112337986Y-31548500D01*
X112338000Y-31432703D02*
X112338000Y-31548486D01*
X113950500Y-31497500D02*
X113938000Y-31485000D01*
X112579000Y-34888500D02*
X113950500Y-33517000D01*
X113950500Y-33517000D02*
X113950500Y-31497500D01*
X114738000Y-34126500D02*
X113976000Y-34888500D01*
X114738000Y-31548500D02*
X114738000Y-34126500D01*
X112699499Y-32355001D02*
X112299500Y-32755000D01*
X113125000Y-31485000D02*
X113125000Y-31929500D01*
X113125000Y-31929500D02*
X112699499Y-32355001D01*
X116624001Y-34488501D02*
X117024000Y-34888500D01*
X116084500Y-31231000D02*
X116084500Y-33949000D01*
X116084500Y-33949000D02*
X116624001Y-34488501D01*
X116884500Y-32045010D02*
X116809510Y-32120000D01*
X116884500Y-31231000D02*
X116884500Y-32045010D01*
X118484500Y-34322815D02*
X118484500Y-31269000D01*
X118484500Y-34888500D02*
X118484500Y-34322815D01*
X117684500Y-32640500D02*
X117633500Y-32691500D01*
X117684500Y-31231000D02*
X117684500Y-32640500D01*
X110534000Y-34901500D02*
X110483500Y-34952000D01*
X110534000Y-31247000D02*
X110534000Y-34901500D01*
X108134000Y-31294500D02*
X108134000Y-34063000D01*
X108623001Y-34552001D02*
X109023000Y-34952000D01*
X108134000Y-34063000D02*
X108623001Y-34552001D01*
X108870501Y-32119999D02*
X108859010Y-32119999D01*
X108934000Y-31294500D02*
X108934000Y-32056500D01*
X108934000Y-32056500D02*
X108870501Y-32119999D01*
X109759500Y-32578510D02*
X109808990Y-32628000D01*
X109696000Y-31285000D02*
X109759500Y-31348500D01*
X109759500Y-31348500D02*
X109759500Y-32578510D01*
X103994632Y-26228132D02*
X104362000Y-26595500D01*
X104945871Y-25778121D02*
X105187500Y-26019750D01*
X105187500Y-26019750D02*
X105187500Y-26595500D01*
X117684500Y-26341500D02*
X117684500Y-25630500D01*
X117684500Y-25630500D02*
X112404010Y-20350010D01*
X116871500Y-25579500D02*
X116871500Y-26341500D01*
X112120000Y-20828000D02*
X116871500Y-25579500D01*
X116084500Y-26191500D02*
X116084500Y-26341500D01*
X111171011Y-21278011D02*
X116084500Y-26191500D01*
X114712500Y-25579500D02*
X114712500Y-26659000D01*
X110861022Y-21728022D02*
X114712500Y-25579500D01*
X109734000Y-25630000D02*
X109734000Y-26335500D01*
X107632066Y-23528066D02*
X109734000Y-25630000D01*
X108934000Y-25685500D02*
X108934000Y-26335500D01*
X107226577Y-23978077D02*
X108934000Y-25685500D01*
X106226588Y-24428088D02*
X108134000Y-26335500D01*
X106827000Y-26055000D02*
X106827000Y-26595500D01*
X105650099Y-24878099D02*
X106827000Y-26055000D01*
X106013000Y-26041000D02*
X106013000Y-26595500D01*
X105300110Y-25328110D02*
X106013000Y-26041000D01*
X49466500Y-36258500D02*
X70173315Y-36258500D01*
X70173315Y-36258500D02*
X70739000Y-36258500D01*
X48260000Y-35052000D02*
X49466500Y-36258500D01*
D22*
X80962500Y-22415500D02*
X82105500Y-22415500D01*
D20*
X80962500Y-22415500D02*
X81407000Y-22415500D01*
X81407000Y-22415500D02*
X81509490Y-22517990D01*
D19*
X80091760Y-31463090D02*
X80091760Y-30897405D01*
X80091760Y-32176240D02*
X80091760Y-31463090D01*
X78740000Y-33528000D02*
X80091760Y-32176240D01*
D20*
X73660000Y-26352500D02*
X73660000Y-26578155D01*
X37338000Y-32894500D02*
X37338000Y-31178500D01*
X37338000Y-33469500D02*
X37338000Y-32894500D01*
D19*
X24320500Y-31178500D02*
X37338000Y-31178500D01*
X37338000Y-31178500D02*
X43180000Y-31178500D01*
D20*
X36038000Y-41439919D02*
X36762081Y-42164000D01*
X36038000Y-35369500D02*
X36038000Y-41439919D01*
X49929999Y-40722499D02*
X76054001Y-40722499D01*
X76054001Y-40722499D02*
X76263500Y-40513000D01*
X49530000Y-40322500D02*
X49929999Y-40722499D01*
X70173315Y-37401500D02*
X70739000Y-37401500D01*
X44640500Y-37401500D02*
X70173315Y-37401500D01*
X43614012Y-38427988D02*
X44640500Y-37401500D01*
X40957500Y-37655500D02*
X41729988Y-38427988D01*
X41729988Y-38427988D02*
X43614012Y-38427988D01*
X73469500Y-39433500D02*
X68516500Y-39433500D01*
X75126991Y-40189009D02*
X75526990Y-39789010D01*
X36688000Y-36053000D02*
X40010510Y-39375510D01*
X40010510Y-39375510D02*
X49656012Y-39375510D01*
X49656012Y-39375510D02*
X50469511Y-40189009D01*
X36688000Y-35369500D02*
X36688000Y-36053000D01*
X50469511Y-40189009D02*
X75126991Y-40189009D01*
X36038000Y-33469500D02*
X36038000Y-32545500D01*
X36023499Y-32530999D02*
X35623500Y-32131000D01*
X36038000Y-32545500D02*
X36023499Y-32530999D01*
X88773000Y-38417500D02*
X92646500Y-38417500D01*
D22*
X78740000Y-42164000D02*
X78740000Y-40703500D01*
X78740000Y-38989000D02*
X78740000Y-33528000D01*
X78740000Y-40703500D02*
X78740000Y-38989000D01*
D20*
X86781345Y-38119650D02*
X86781345Y-38685335D01*
X85635500Y-37921500D02*
X86583195Y-37921500D01*
X86583195Y-37921500D02*
X86781345Y-38119650D01*
D24*
X86238000Y-36258500D02*
X85153500Y-36258500D01*
X85153500Y-36258500D02*
X83076999Y-38335001D01*
X83076999Y-38335001D02*
X82677000Y-38735000D01*
D20*
X84103709Y-39057995D02*
X84103709Y-39623680D01*
X85635500Y-38421500D02*
X84740204Y-38421500D01*
X84740204Y-38421500D02*
X84103709Y-39057995D01*
X85635500Y-38921500D02*
X85000498Y-38921500D01*
X84828710Y-40329790D02*
X84359807Y-40798693D01*
X80358488Y-40798693D02*
X80263430Y-40703635D01*
X84359807Y-40798693D02*
X80358488Y-40798693D01*
X85000498Y-38921500D02*
X84828710Y-39093288D01*
X80263430Y-40703635D02*
X79863431Y-40303636D01*
X84828710Y-39093288D02*
X84828710Y-40329790D01*
X80581500Y-39624000D02*
X82861002Y-39624000D01*
X88150000Y-37921500D02*
X88735500Y-37921500D01*
X87674999Y-37446499D02*
X88150000Y-37921500D01*
X80454500Y-39497000D02*
X80581500Y-39624000D01*
X82861002Y-39624000D02*
X85038503Y-37446499D01*
X85038503Y-37446499D02*
X87674999Y-37446499D01*
D19*
X79084000Y-39116000D02*
X79109139Y-39116000D01*
X79109139Y-39116000D02*
X79284990Y-38940149D01*
X81509490Y-22517990D02*
X81470500Y-22556980D01*
X81470500Y-22556980D02*
X81470500Y-23861520D01*
D20*
X87070500Y-39421500D02*
X87566500Y-38925500D01*
X89953000Y-38925500D02*
X90170000Y-39142500D01*
X87566500Y-38925500D02*
X89953000Y-38925500D01*
X85635500Y-39421500D02*
X87070500Y-39421500D01*
D22*
X80518000Y-22415500D02*
X80962500Y-22415500D01*
X79692500Y-21590000D02*
X80518000Y-22415500D01*
X24384000Y-30734000D02*
X26098500Y-29019500D01*
X23876000Y-30734000D02*
X24384000Y-30734000D01*
X26098500Y-29019500D02*
X26098500Y-27368500D01*
X26098500Y-27368500D02*
X31877000Y-21590000D01*
X31877000Y-21590000D02*
X79692500Y-21590000D01*
D19*
X85471000Y-23241000D02*
X85471000Y-23685500D01*
X83820000Y-21157000D02*
X83820000Y-22288500D01*
X84645500Y-22415500D02*
X85471000Y-23241000D01*
X83808500Y-21145500D02*
X83820000Y-21157000D01*
X83820000Y-22288500D02*
X83947000Y-22415500D01*
X83947000Y-22415500D02*
X84645500Y-22415500D01*
D20*
X66490010Y-28644010D02*
X66865500Y-29019500D01*
X45720000Y-26290000D02*
X48074010Y-28644010D01*
X48074010Y-28644010D02*
X66490010Y-28644010D01*
X46100000Y-29210000D02*
X65151000Y-29210000D01*
X70358000Y-29781500D02*
X73069501Y-32493001D01*
X73069501Y-32493001D02*
X73469500Y-32893000D01*
X65151000Y-29210000D02*
X65722500Y-29781500D01*
X65722500Y-29781500D02*
X70358000Y-29781500D01*
X43180000Y-26290000D02*
X46100000Y-29210000D01*
X71443314Y-35554186D02*
X71443314Y-33141186D01*
X70739000Y-36258500D02*
X71443314Y-35554186D01*
X74273302Y-32426802D02*
X74273302Y-36127232D01*
X74273302Y-36127232D02*
X74273302Y-36692917D01*
X57783999Y-28193999D02*
X67754499Y-28193999D01*
X70993000Y-29146500D02*
X74273302Y-32426802D01*
X67754499Y-28193999D02*
X68707000Y-29146500D01*
X55880000Y-26290000D02*
X57783999Y-28193999D01*
X68707000Y-29146500D02*
X70993000Y-29146500D01*
D21*
X77470000Y-40333748D02*
X77470000Y-40449500D01*
X75247500Y-38989000D02*
X76125252Y-38989000D01*
X72390000Y-36131500D02*
X75247500Y-38989000D01*
X72390000Y-32956500D02*
X72390000Y-36131500D01*
X76125252Y-38989000D02*
X77470000Y-40333748D01*
X35560000Y-26289000D02*
X39179500Y-29908500D01*
X39179500Y-29908500D02*
X64706500Y-29908500D01*
X64706500Y-29908500D02*
X65278000Y-30480000D01*
X65278000Y-30480000D02*
X69913500Y-30480000D01*
X69913500Y-30480000D02*
X72390000Y-32956500D01*
D20*
X52109971Y-38160519D02*
X52070000Y-38200490D01*
X73460653Y-38433527D02*
X73187645Y-38160519D01*
X73187645Y-38160519D02*
X52109971Y-38160519D01*
D19*
X94805500Y-41338500D02*
X94805500Y-34036000D01*
X93980000Y-42164000D02*
X94805500Y-41338500D01*
D20*
X98615500Y-31153634D02*
X98597376Y-31135510D01*
X98615500Y-34047500D02*
X98615500Y-31153634D01*
D19*
X102425500Y-27547500D02*
X102425500Y-30035500D01*
X96329500Y-30035500D02*
X102425500Y-30035500D01*
X102425500Y-30035500D02*
X102425500Y-34099500D01*
X90297000Y-30035500D02*
X96329500Y-30035500D01*
X90297000Y-30035500D02*
X90308500Y-30035500D01*
X90297000Y-36258500D02*
X90297000Y-30035500D01*
X88138000Y-36258500D02*
X90297000Y-36258500D01*
D20*
X91948000Y-36258500D02*
X90297000Y-36258500D01*
X93371501Y-37682001D02*
X91948000Y-36258500D01*
X89344500Y-39433500D02*
X89778501Y-39867501D01*
X88709500Y-39433500D02*
X89344500Y-39433500D01*
X89778501Y-39867501D02*
X92402999Y-39867501D01*
X92402999Y-39867501D02*
X93371501Y-38898999D01*
X93371501Y-38898999D02*
X93371501Y-37682001D01*
X101155500Y-34047500D02*
X101155500Y-32385000D01*
X101155500Y-32385000D02*
X99906010Y-31135510D01*
X80491490Y-28484990D02*
X80194685Y-28484990D01*
X80194685Y-28484990D02*
X79629000Y-28484990D01*
X60960000Y-26290000D02*
X62356000Y-27686000D01*
X79229001Y-28084991D02*
X79629000Y-28484990D01*
X84709000Y-32702500D02*
X80491490Y-28484990D01*
X78830010Y-27686000D02*
X79229001Y-28084991D01*
X86487000Y-32702500D02*
X84709000Y-32702500D01*
X89154000Y-35369500D02*
X86487000Y-32702500D01*
X62356000Y-27686000D02*
X78830010Y-27686000D01*
X80451680Y-29718000D02*
X72834500Y-29718000D01*
X87439500Y-34798000D02*
X85531680Y-34798000D01*
X85531680Y-34798000D02*
X80451680Y-29718000D01*
X78014990Y-28421490D02*
X70860185Y-28421490D01*
X78803500Y-29210000D02*
X78014990Y-28421490D01*
X70860185Y-28421490D02*
X70294500Y-28421490D01*
X80580090Y-29210000D02*
X78803500Y-29210000D01*
X85406090Y-34036000D02*
X80580090Y-29210000D01*
X86614000Y-34036000D02*
X85406090Y-34036000D01*
X51371500Y-35052000D02*
X70046315Y-35052000D01*
X69850000Y-32893000D02*
X69850000Y-35052000D01*
X50800000Y-34480500D02*
X51371500Y-35052000D01*
X69850000Y-35052000D02*
X70612000Y-35052000D01*
X70046315Y-35052000D02*
X70612000Y-35052000D01*
D19*
X57785000Y-31178500D02*
X64262000Y-31178500D01*
X64751001Y-31667501D02*
X65151000Y-32067500D01*
X64262000Y-31178500D02*
X64751001Y-31667501D01*
X81474998Y-23812500D02*
X81474998Y-28443177D01*
X83808500Y-23685500D02*
X81601998Y-23685500D01*
X81601998Y-23685500D02*
X81474998Y-23812500D01*
D20*
X37338000Y-35369500D02*
X37338000Y-35494500D01*
X37338000Y-35494500D02*
X40769000Y-38925500D01*
X61664315Y-38925500D02*
X62230000Y-38925500D01*
X40769000Y-38925500D02*
X61664315Y-38925500D01*
G36*
X82360500Y-32700206D02*
G01*
X82360500Y-37749331D01*
X82277891Y-37771466D01*
X82042109Y-37907594D01*
X81849594Y-38100109D01*
X81713466Y-38335891D01*
X81674316Y-38482000D01*
X80661538Y-38482000D01*
X80590628Y-38463000D01*
X80318372Y-38463000D01*
X80247462Y-38482000D01*
X76797704Y-38482000D01*
X76781049Y-38465345D01*
X76766898Y-38442917D01*
X76696051Y-38380347D01*
X76672686Y-38356981D01*
X76652268Y-38341678D01*
X76587840Y-38284778D01*
X76557069Y-38270331D01*
X76529871Y-38249947D01*
X76449410Y-38219785D01*
X76371239Y-38183083D01*
X76338426Y-38178179D01*
X76306179Y-38166091D01*
X76209427Y-38158901D01*
X76183329Y-38155000D01*
X76156935Y-38155000D01*
X76067945Y-38148386D01*
X76036961Y-38155000D01*
X75592955Y-38155000D01*
X75056000Y-37618046D01*
X75056000Y-37372515D01*
X75100708Y-37327808D01*
X75236836Y-37092026D01*
X75307302Y-36829045D01*
X75307302Y-36556789D01*
X75236836Y-36293808D01*
X75100708Y-36058026D01*
X75056000Y-36013319D01*
X75056000Y-31114000D01*
X80774294Y-31114000D01*
X82360500Y-32700206D01*
G37*
D25*
X82360500Y-32700206D02*
X82360500Y-37749331D01*
X82277891Y-37771466D01*
X82042109Y-37907594D01*
X81849594Y-38100109D01*
X81713466Y-38335891D01*
X81674316Y-38482000D01*
X80661538Y-38482000D01*
X80590628Y-38463000D01*
X80318372Y-38463000D01*
X80247462Y-38482000D01*
X76797704Y-38482000D01*
X76781049Y-38465345D01*
X76766898Y-38442917D01*
X76696051Y-38380347D01*
X76672686Y-38356981D01*
X76652268Y-38341678D01*
X76587840Y-38284778D01*
X76557069Y-38270331D01*
X76529871Y-38249947D01*
X76449410Y-38219785D01*
X76371239Y-38183083D01*
X76338426Y-38178179D01*
X76306179Y-38166091D01*
X76209427Y-38158901D01*
X76183329Y-38155000D01*
X76156935Y-38155000D01*
X76067945Y-38148386D01*
X76036961Y-38155000D01*
X75592955Y-38155000D01*
X75056000Y-37618046D01*
X75056000Y-37372515D01*
X75100708Y-37327808D01*
X75236836Y-37092026D01*
X75307302Y-36829045D01*
X75307302Y-36556789D01*
X75236836Y-36293808D01*
X75100708Y-36058026D01*
X75056000Y-36013319D01*
X75056000Y-31114000D01*
X80774294Y-31114000D01*
X82360500Y-32700206D01*
M02*
