G04 #@! TF.GenerationSoftware,KiCad,Pcbnew,(5.99.0-576-ga860ac506)*
G04 #@! TF.CreationDate,2020-08-23T19:59:58+02:00*
G04 #@! TF.ProjectId,50 pin to 34 pin Floppy Adapter,35302070-696e-4207-946f-203334207069,rev?*
G04 #@! TF.SameCoordinates,Original*
G04 #@! TF.FileFunction,Other,User*
%FSLAX46Y46*%
G04 Gerber Fmt 4.6, Leading zero omitted, Abs format (unit mm)*
G04 Created by KiCad (PCBNEW (5.99.0-576-ga860ac506)) date 2020-08-23 19:59:58*
%MOMM*%
%LPD*%
G04 APERTURE LIST*
%ADD10C,0.050000*%
G04 APERTURE END LIST*
D10*
X24000000Y-46500000D02*
G75*
G03*
X24000000Y-46500000I-2000000J0D01*
G01*
X120000000Y-46500000D02*
G75*
G03*
X120000000Y-46500000I-2000000J0D01*
G01*
X82172000Y-27063500D02*
X82172000Y-23863500D01*
X79372000Y-27063500D02*
X79372000Y-23863500D01*
X79372000Y-27063500D02*
X82172000Y-27063500D01*
X82172000Y-23863500D02*
X79372000Y-23863500D01*
X72120000Y-31178500D02*
G75*
G03*
X72120000Y-31178500I-1000000J0D01*
G01*
X99530000Y-38464000D02*
X99530000Y-48414000D01*
X99530000Y-48414000D02*
X27430000Y-48414000D01*
X27430000Y-48414000D02*
X27430000Y-38464000D01*
X27430000Y-38464000D02*
X99530000Y-38464000D01*
X27805500Y-32730500D02*
X22105500Y-32730500D01*
X27805500Y-36230500D02*
X27805500Y-32730500D01*
X22105500Y-36230500D02*
X27805500Y-36230500D01*
X22105500Y-32730500D02*
X22105500Y-36230500D01*
X25955500Y-37230000D02*
X23955500Y-37230000D01*
X25955500Y-37230000D02*
X25955500Y-36430000D01*
X23955500Y-36430000D02*
X23955500Y-37230000D01*
X23955500Y-36430000D02*
X25955500Y-36430000D01*
X38840000Y-32617000D02*
X38840000Y-36217000D01*
X52590000Y-32617000D02*
X38840000Y-32617000D01*
X52590000Y-36217000D02*
X52590000Y-32617000D01*
X38840000Y-36217000D02*
X52590000Y-36217000D01*
X67616500Y-38255500D02*
X67616500Y-35155500D01*
X67616500Y-38255500D02*
X69416500Y-38255500D01*
X69416500Y-35155500D02*
X67616500Y-35155500D01*
X69416500Y-35155500D02*
X69416500Y-38255500D01*
X55282500Y-30278500D02*
X58382500Y-30278500D01*
X55282500Y-30278500D02*
X55282500Y-32078500D01*
X58382500Y-32078500D02*
X58382500Y-30278500D01*
X58382500Y-32078500D02*
X55282500Y-32078500D01*
X105421000Y-40360000D02*
X105421000Y-43460000D01*
X105421000Y-40360000D02*
X103621000Y-40360000D01*
X103621000Y-43460000D02*
X105421000Y-43460000D01*
X103621000Y-43460000D02*
X103621000Y-40360000D01*
X111500000Y-36919500D02*
X119500000Y-36919500D01*
X119500000Y-20919500D02*
X119500000Y-36919500D01*
X111500000Y-20919500D02*
X119500000Y-20919500D01*
X111500000Y-36919500D02*
X111500000Y-20919500D01*
X103499000Y-36919500D02*
X111499000Y-36919500D01*
X111499000Y-20919500D02*
X111499000Y-36919500D01*
X103499000Y-20919500D02*
X111499000Y-20919500D01*
X103499000Y-36919500D02*
X103499000Y-20919500D01*
X105630500Y-37240000D02*
X105630500Y-44040000D01*
X115730500Y-44040000D02*
X115730500Y-37240000D01*
X115730500Y-37240000D02*
X105630500Y-37240000D01*
X115730500Y-44040000D02*
X105630500Y-44040000D01*
X75116750Y-38374750D02*
X82316750Y-38374750D01*
X75116750Y-31174750D02*
X82316750Y-31174750D01*
X75116750Y-38374750D02*
X75116750Y-31174750D01*
X82316750Y-38374750D02*
X82316750Y-31174750D01*
X79210000Y-20050000D02*
X79210000Y-30000000D01*
X79210000Y-30000000D02*
X27460000Y-30000000D01*
X27460000Y-30000000D02*
X27460000Y-20050000D01*
X27460000Y-20050000D02*
X79210000Y-20050000D01*
X22076000Y-32534000D02*
X25676000Y-32534000D01*
X22076000Y-21334000D02*
X22076000Y-32534000D01*
X25676000Y-21334000D02*
X22076000Y-21334000D01*
X25676000Y-32534000D02*
X25676000Y-21334000D01*
X34020000Y-37401500D02*
G75*
G03*
X34020000Y-37401500I-1000000J0D01*
G01*
X36560000Y-37401500D02*
G75*
G03*
X36560000Y-37401500I-1000000J0D01*
G01*
X56880000Y-37401500D02*
G75*
G03*
X56880000Y-37401500I-1000000J0D01*
G01*
X59420000Y-37401500D02*
G75*
G03*
X59420000Y-37401500I-1000000J0D01*
G01*
X67040000Y-37401500D02*
G75*
G03*
X67040000Y-37401500I-1000000J0D01*
G01*
X73390000Y-37401500D02*
G75*
G03*
X73390000Y-37401500I-1000000J0D01*
G01*
X84820000Y-37401500D02*
G75*
G03*
X84820000Y-37401500I-1000000J0D01*
G01*
X87360000Y-37401500D02*
G75*
G03*
X87360000Y-37401500I-1000000J0D01*
G01*
X89900000Y-37401500D02*
G75*
G03*
X89900000Y-37401500I-1000000J0D01*
G01*
X92440000Y-37401500D02*
G75*
G03*
X92440000Y-37401500I-1000000J0D01*
G01*
X64500000Y-31178500D02*
G75*
G03*
X64500000Y-31178500I-1000000J0D01*
G01*
X69580000Y-31178500D02*
G75*
G03*
X69580000Y-31178500I-1000000J0D01*
G01*
X74660000Y-31178500D02*
G75*
G03*
X74660000Y-31178500I-1000000J0D01*
G01*
X103463500Y-39157500D02*
X99863500Y-39157500D01*
X103463500Y-47807500D02*
X103463500Y-39157500D01*
X99863500Y-47807500D02*
X103463500Y-47807500D01*
X99863500Y-39157500D02*
X99863500Y-47807500D01*
M02*
