G04 #@! TF.GenerationSoftware,KiCad,Pcbnew,(5.99.0-576-ga860ac506)*
G04 #@! TF.CreationDate,2020-08-23T19:59:58+02:00*
G04 #@! TF.ProjectId,50 pin to 34 pin Floppy Adapter,35302070-696e-4207-946f-203334207069,rev?*
G04 #@! TF.SameCoordinates,Original*
G04 #@! TF.FileFunction,Copper,L1,Top*
G04 #@! TF.FilePolarity,Positive*
%FSLAX46Y46*%
G04 Gerber Fmt 4.6, Leading zero omitted, Abs format (unit mm)*
G04 Created by KiCad (PCBNEW (5.99.0-576-ga860ac506)) date 2020-08-23 19:59:58*
%MOMM*%
%LPD*%
G04 APERTURE LIST*
%ADD10R,0.400000X0.650000*%
%ADD11C,1.500000*%
%ADD12R,1.700000X1.700000*%
%ADD13C,1.700000*%
%ADD14R,1.950000X2.500000*%
%ADD15R,0.600000X0.500000*%
%ADD16O,1.700000X1.700000*%
%ADD17R,1.300000X0.700000*%
%ADD18R,0.700000X1.300000*%
%ADD19R,1.000000X3.000000*%
%ADD20R,1.550000X1.300000*%
%ADD21R,0.370000X1.000000*%
%ADD22R,1.000000X0.370000*%
%ADD23R,1.062500X1.062500*%
%ADD24C,0.800000*%
%ADD25C,0.500000*%
%ADD26C,1.600000*%
%ADD27C,0.400000*%
%ADD28C,2.000000*%
%ADD29C,1.000000*%
%ADD30C,0.250000*%
%ADD31C,1.500000*%
%ADD32C,0.430000*%
%ADD33C,0.350000*%
G04 APERTURE END LIST*
D10*
X80122000Y-26413500D03*
X81422000Y-26413500D03*
X80772000Y-24513500D03*
X80772000Y-26413500D03*
X81422000Y-24513500D03*
X80122000Y-24513500D03*
D11*
X71120000Y-31178500D03*
D12*
X93980000Y-42164000D03*
D13*
X93980000Y-44704000D03*
X91440000Y-42164000D03*
X91440000Y-44704000D03*
X88900000Y-42164000D03*
X88900000Y-44704000D03*
X86360000Y-42164000D03*
X86360000Y-44704000D03*
X83820000Y-42164000D03*
X83820000Y-44704000D03*
X81280000Y-42164000D03*
X81280000Y-44704000D03*
X78740000Y-42164000D03*
X78740000Y-44704000D03*
X76200000Y-42164000D03*
X76200000Y-44704000D03*
X73660000Y-42164000D03*
X73660000Y-44704000D03*
X71120000Y-42164000D03*
X71120000Y-44704000D03*
X68580000Y-42164000D03*
X68580000Y-44704000D03*
X66040000Y-42164000D03*
X66040000Y-44704000D03*
X63500000Y-42164000D03*
X63500000Y-44704000D03*
X60960000Y-42164000D03*
X60960000Y-44704000D03*
X58420000Y-42164000D03*
X58420000Y-44704000D03*
X55880000Y-42164000D03*
X55880000Y-44704000D03*
X53340000Y-42164000D03*
X53340000Y-44704000D03*
X50800000Y-42164000D03*
X50800000Y-44704000D03*
X48260000Y-42164000D03*
X48260000Y-44704000D03*
X45720000Y-42164000D03*
X45720000Y-44704000D03*
X43180000Y-42164000D03*
X43180000Y-44704000D03*
X40640000Y-42164000D03*
X40640000Y-44704000D03*
X38100000Y-42164000D03*
X38100000Y-44704000D03*
X35560000Y-42164000D03*
X35560000Y-44704000D03*
X33020000Y-42164000D03*
X33020000Y-44704000D03*
D14*
X23430500Y-34480500D03*
X26480500Y-34480500D03*
D15*
X24405500Y-36830000D03*
X25505500Y-36830000D03*
D12*
X40640000Y-34417000D03*
D16*
X43180000Y-34417000D03*
X45720000Y-34417000D03*
X48260000Y-34417000D03*
X50800000Y-34417000D03*
D17*
X68516500Y-35755500D03*
X68516500Y-37655500D03*
D18*
X57782500Y-31178500D03*
X55882500Y-31178500D03*
D17*
X104521000Y-42860000D03*
X104521000Y-40960000D03*
D19*
X112500000Y-34919500D03*
X114000000Y-34919500D03*
X115500000Y-34919500D03*
X117000000Y-34919500D03*
X118500000Y-34919500D03*
X118500000Y-22919500D03*
X117000000Y-22919500D03*
X115500000Y-22919500D03*
X114000000Y-22919500D03*
X112500000Y-22919500D03*
X104499000Y-34919500D03*
X105999000Y-34919500D03*
X107499000Y-34919500D03*
X108999000Y-34919500D03*
X110499000Y-34919500D03*
X110499000Y-22919500D03*
X108999000Y-22919500D03*
X107499000Y-22919500D03*
X105999000Y-22919500D03*
X104499000Y-22919500D03*
D20*
X114660500Y-38390000D03*
X114660500Y-42890000D03*
X106700500Y-42890000D03*
X106700500Y-38390000D03*
D21*
X76766750Y-37624750D03*
X77416750Y-37624750D03*
X78066750Y-37624750D03*
X78716750Y-37624750D03*
X79366750Y-37624750D03*
X80016750Y-37624750D03*
X80666750Y-37624750D03*
D22*
X81566750Y-36724750D03*
X81566750Y-36074750D03*
X81566750Y-35424750D03*
X81566750Y-34774750D03*
X81566750Y-34124750D03*
X81566750Y-33474750D03*
X81566750Y-32824750D03*
D21*
X80666750Y-31924750D03*
X80016750Y-31924750D03*
X79366750Y-31924750D03*
X78716750Y-31924750D03*
X78066750Y-31924750D03*
X77416750Y-31924750D03*
X76766750Y-31924750D03*
D22*
X75866750Y-32824750D03*
X75866750Y-33474750D03*
X75866750Y-34124750D03*
X75866750Y-34774750D03*
X75866750Y-35424750D03*
X75866750Y-36074750D03*
X75866750Y-36724750D03*
D23*
X80310500Y-33181000D03*
X79248000Y-33181000D03*
X78185500Y-33181000D03*
X77123000Y-33181000D03*
X80310500Y-34243500D03*
X79248000Y-34243500D03*
X78185500Y-34243500D03*
X77123000Y-34243500D03*
X80310500Y-35306000D03*
X79248000Y-35306000D03*
X78185500Y-35306000D03*
X77123000Y-35306000D03*
X80310500Y-36368500D03*
X79248000Y-36368500D03*
X78185500Y-36368500D03*
X77123000Y-36368500D03*
D13*
X33020000Y-26290000D03*
X33020000Y-23750000D03*
X35560000Y-26290000D03*
X35560000Y-23750000D03*
X38100000Y-26290000D03*
X38100000Y-23750000D03*
X40640000Y-26290000D03*
X40640000Y-23750000D03*
X43180000Y-26290000D03*
X43180000Y-23750000D03*
X45720000Y-26290000D03*
X45720000Y-23750000D03*
X48260000Y-26290000D03*
X48260000Y-23750000D03*
X50800000Y-26290000D03*
X50800000Y-23750000D03*
X53340000Y-26290000D03*
X53340000Y-23750000D03*
X55880000Y-26290000D03*
X55880000Y-23750000D03*
X58420000Y-26290000D03*
X58420000Y-23750000D03*
X60960000Y-26290000D03*
X60960000Y-23750000D03*
X63500000Y-26290000D03*
X63500000Y-23750000D03*
X66040000Y-26290000D03*
X66040000Y-23750000D03*
X68580000Y-26290000D03*
X68580000Y-23750000D03*
X71120000Y-26290000D03*
X71120000Y-23750000D03*
X73660000Y-26290000D03*
D12*
X73660000Y-23750000D03*
D16*
X23876000Y-23114000D03*
X23876000Y-25654000D03*
X23876000Y-28194000D03*
D12*
X23876000Y-30734000D03*
D11*
X33020000Y-37401500D03*
X35560000Y-37401500D03*
X55880000Y-37401500D03*
X58420000Y-37401500D03*
X66040000Y-37401500D03*
X72390000Y-37401500D03*
X83820000Y-37401500D03*
X86360000Y-37401500D03*
X88900000Y-37401500D03*
X91440000Y-37401500D03*
X63500000Y-31178500D03*
X68580000Y-31178500D03*
X73660000Y-31178500D03*
D16*
X101663500Y-46037500D03*
X101663500Y-43497500D03*
D12*
X101663500Y-40957500D03*
D24*
X85471000Y-23685500D03*
X77470000Y-40449500D03*
X31432500Y-39052500D03*
X49530000Y-40322500D03*
X57785000Y-31178500D03*
X94805500Y-34036000D03*
X82105500Y-22415500D03*
X97345500Y-34099500D03*
X99885500Y-32348000D03*
X83820000Y-24955500D03*
X83820000Y-26225500D03*
X83820000Y-27495500D03*
X83820000Y-28765500D03*
X118484500Y-34888500D03*
X117024000Y-34888500D03*
X112579000Y-34888500D03*
X113976000Y-34888500D03*
X110483500Y-34952000D03*
X109023000Y-34952000D03*
X105975000Y-34952000D03*
X104514500Y-34952000D03*
X116809510Y-32120000D03*
X110534002Y-26341500D03*
X118484502Y-26278000D03*
X104425500Y-32755000D03*
X104425462Y-31498255D03*
X112337986Y-31548500D03*
X112299500Y-32755000D03*
X117633500Y-32691500D03*
X109808990Y-32628000D03*
X108859010Y-32119999D03*
X70739000Y-37401500D03*
X70739000Y-36258500D03*
X80091760Y-30897405D03*
X80518000Y-22415500D03*
X74273302Y-36692917D03*
X76263500Y-40513000D03*
X75526990Y-39789010D03*
X73469500Y-39433500D03*
X73460653Y-38433527D03*
X68516500Y-39433500D03*
X35623500Y-32131000D03*
X92646500Y-38417500D03*
X90170000Y-39142500D03*
X79863431Y-40303636D03*
X80454500Y-39497000D03*
X86781345Y-38685335D03*
X82677000Y-38735000D03*
X84103709Y-39623680D03*
X86614000Y-34036000D03*
X87439500Y-34798000D03*
X89154000Y-35369500D03*
X79284990Y-38940149D03*
X52070000Y-38200490D03*
X66865500Y-29019500D03*
X69850000Y-32893000D03*
X73469500Y-32893000D03*
X71443314Y-33141186D03*
X72834500Y-29718000D03*
X98597376Y-31135510D03*
X90297000Y-30035500D03*
X99906010Y-31135510D03*
X81474998Y-28443177D03*
X79629000Y-28484990D03*
X70294500Y-28421490D03*
X70612000Y-35052000D03*
X65151000Y-32067500D03*
X62230000Y-38925500D03*
D25*
X84905315Y-23685500D02*
X85471000Y-23685500D01*
X83375500Y-23685500D02*
X84905315Y-23685500D01*
X82359500Y-24701500D02*
X83375500Y-23685500D01*
D26*
X45720000Y-42164000D02*
X45720000Y-40961919D01*
X45720000Y-40961919D02*
X45720000Y-34417000D01*
D27*
X77470000Y-41015185D02*
X77470000Y-40449500D01*
X78740000Y-44767500D02*
X77470000Y-43497500D01*
X77470000Y-43497500D02*
X77470000Y-41015185D01*
X69850000Y-43434000D02*
X69850000Y-35433000D01*
X69850000Y-35433000D02*
X66040000Y-31623000D01*
X71120000Y-44704000D02*
X69850000Y-43434000D01*
X66040000Y-31623000D02*
X66040000Y-31369000D01*
X63500000Y-44704000D02*
X62230000Y-43434000D01*
X62230000Y-27559000D02*
X60960000Y-26289000D01*
D28*
X30861000Y-42164000D02*
X26733500Y-38036500D01*
X32829500Y-42164000D02*
X30861000Y-42164000D01*
X26733500Y-38036500D02*
X26733500Y-29718000D01*
X26733500Y-29718000D02*
X25209500Y-28194000D01*
X25209500Y-28194000D02*
X23876000Y-28194000D01*
D27*
X33020000Y-37465000D02*
X31432500Y-39052500D01*
X34290000Y-43434000D02*
X34290000Y-38671500D01*
X35560000Y-44704000D02*
X34290000Y-43434000D01*
X34290000Y-38671500D02*
X34810001Y-38151499D01*
X34810001Y-38151499D02*
X35560000Y-37401500D01*
D29*
X114490500Y-46037500D02*
X116459000Y-44069000D01*
X101663500Y-46037500D02*
X114490500Y-46037500D01*
X116459000Y-44069000D02*
X116459000Y-38671500D01*
X116459000Y-38671500D02*
X115506500Y-37719000D01*
X114645000Y-42890000D02*
X114681000Y-42926000D01*
X106700500Y-42890000D02*
X114645000Y-42890000D01*
D30*
X106741000Y-42860000D02*
X106743500Y-42862500D01*
D25*
X104521000Y-42860000D02*
X106741000Y-42860000D01*
X101663500Y-40957500D02*
X104584500Y-40957500D01*
D29*
X107499000Y-34919500D02*
X107499000Y-37719000D01*
X107499000Y-37719000D02*
X108548500Y-37719000D01*
D27*
X49530000Y-43434000D02*
X49530000Y-40322500D01*
X49530000Y-40322500D02*
X49530000Y-27622500D01*
X52070000Y-27561000D02*
X52070000Y-39687500D01*
X52070000Y-39687500D02*
X52070000Y-43497500D01*
D30*
X82836455Y-36068000D02*
X86556455Y-32348000D01*
X81566750Y-36068000D02*
X82836455Y-36068000D01*
X86556455Y-32348000D02*
X99885500Y-32348000D01*
X82795250Y-34099500D02*
X84995011Y-31899739D01*
X84995011Y-26130511D02*
X83820000Y-24955500D01*
X81566750Y-34099500D02*
X82795250Y-34099500D01*
X84995011Y-31899739D02*
X84995011Y-26130511D01*
X82793840Y-33464500D02*
X84545000Y-31713340D01*
X81566750Y-33464500D02*
X82793840Y-33464500D01*
X84545000Y-31713340D02*
X84545000Y-28220500D01*
X84545000Y-28220500D02*
X84219999Y-27895499D01*
X84219999Y-27895499D02*
X83820000Y-27495500D01*
X82792430Y-32829500D02*
X83820000Y-31801930D01*
X81566750Y-32829500D02*
X82792430Y-32829500D01*
X83820000Y-31801930D02*
X83820000Y-29331185D01*
X83820000Y-29331185D02*
X83820000Y-28765500D01*
X82333500Y-28283500D02*
X82359500Y-28257500D01*
X82994500Y-31940500D02*
X83058000Y-31877000D01*
X80666750Y-31940500D02*
X82994500Y-31940500D01*
X83058000Y-31877000D02*
X83058000Y-26987500D01*
X83058000Y-26987500D02*
X83820000Y-26225500D01*
D27*
X64770000Y-43434000D02*
X64770000Y-38671500D01*
X66040000Y-44704000D02*
X64770000Y-43434000D01*
X64770000Y-38671500D02*
X65290001Y-38151499D01*
X65290001Y-38151499D02*
X66040000Y-37401500D01*
X66040000Y-31369000D02*
X66040000Y-26289000D01*
X57150000Y-43434000D02*
X57150000Y-38671500D01*
X58420000Y-44704000D02*
X57150000Y-43434000D01*
X57150000Y-38671500D02*
X57670001Y-38151499D01*
X57670001Y-38151499D02*
X58420000Y-37401500D01*
X54610000Y-43434000D02*
X54610000Y-38671500D01*
X55880000Y-44704000D02*
X54610000Y-43434000D01*
X54610000Y-38671500D02*
X55130001Y-38151499D01*
X55130001Y-38151499D02*
X55880000Y-37401500D01*
X53341000Y-26290000D02*
X52070000Y-27561000D01*
D30*
X53340000Y-26290000D02*
X53341000Y-26290000D01*
D27*
X52070000Y-43497500D02*
X53340000Y-44767500D01*
X50800000Y-44704000D02*
X49530000Y-43434000D01*
X49530000Y-27622500D02*
X50800000Y-26352500D01*
X46990000Y-43434000D02*
X46990000Y-27559000D01*
X48260000Y-44704000D02*
X46990000Y-43434000D01*
X46990000Y-27559000D02*
X48260000Y-26289000D01*
X44450000Y-43434000D02*
X44450000Y-27559000D01*
X45720000Y-44704000D02*
X44450000Y-43434000D01*
X44450000Y-27559000D02*
X45720000Y-26289000D01*
X41910000Y-27560000D02*
X41910000Y-43434000D01*
X43180000Y-26290000D02*
X41910000Y-27560000D01*
X41910000Y-43434000D02*
X43180000Y-44704000D01*
X39370000Y-43434000D02*
X39370000Y-27559000D01*
X40640000Y-44704000D02*
X39370000Y-43434000D01*
X39370000Y-27559000D02*
X40640000Y-26289000D01*
X36830000Y-43434000D02*
X36830000Y-27559000D01*
X38100000Y-44704000D02*
X36830000Y-43434000D01*
X36830000Y-27559000D02*
X38100000Y-26289000D01*
D31*
X23876000Y-32321500D02*
X23368000Y-32829500D01*
X23876000Y-30734000D02*
X23876000Y-32321500D01*
X23368000Y-32829500D02*
X23368000Y-34417000D01*
D27*
X23368000Y-34417000D02*
X23368000Y-36385500D01*
X23368000Y-36385500D02*
X23812500Y-36830000D01*
X23812500Y-36830000D02*
X24384000Y-36830000D01*
D28*
X28829000Y-25654000D02*
X30733000Y-23750000D01*
X23876000Y-25654000D02*
X28829000Y-25654000D01*
X30733000Y-23750000D02*
X33020000Y-23750000D01*
D27*
X59690000Y-43497500D02*
X59690000Y-27559000D01*
X59690000Y-27559000D02*
X58420000Y-26289000D01*
X60960000Y-44767500D02*
X59690000Y-43497500D01*
D28*
X23876000Y-26856081D02*
X23876000Y-28194000D01*
X23876000Y-25654000D02*
X23876000Y-26856081D01*
D29*
X115500000Y-34919500D02*
X115500000Y-37712500D01*
D30*
X115500000Y-37712500D02*
X115506500Y-37719000D01*
D29*
X108548500Y-37719000D02*
X115506500Y-37719000D01*
D27*
X63500000Y-26290000D02*
X63500000Y-31178500D01*
X68580000Y-26290000D02*
X68580000Y-31178500D01*
D28*
X71120000Y-23749000D02*
X73660000Y-23749000D01*
X68580000Y-23749000D02*
X71120000Y-23749000D01*
X66040000Y-23749000D02*
X68580000Y-23749000D01*
X63500000Y-23749000D02*
X66040000Y-23749000D01*
X60960000Y-23749000D02*
X63500000Y-23749000D01*
X58420000Y-23749000D02*
X60960000Y-23749000D01*
X55880000Y-23749000D02*
X58420000Y-23749000D01*
X53340000Y-23749000D02*
X55880000Y-23749000D01*
X50800000Y-23749000D02*
X53340000Y-23749000D01*
X48260000Y-23749000D02*
X50800000Y-23749000D01*
X45720000Y-23749000D02*
X48260000Y-23749000D01*
X43180000Y-23749000D02*
X45720000Y-23749000D01*
X40640000Y-23749000D02*
X43180000Y-23749000D01*
X38100000Y-23749000D02*
X40640000Y-23749000D01*
X34223081Y-23749000D02*
X38100000Y-23749000D01*
X33020000Y-23750000D02*
X34222081Y-23750000D01*
X34222081Y-23750000D02*
X34223081Y-23749000D01*
D30*
X118522500Y-24754000D02*
X118522500Y-22912500D01*
X116809510Y-32120000D02*
X116809510Y-26466990D01*
X116809510Y-26466990D02*
X118522500Y-24754000D01*
D25*
X107499000Y-34952000D02*
X107473500Y-34977500D01*
X107499000Y-22919500D02*
X107499000Y-34952000D01*
X115500000Y-34825000D02*
X115436500Y-34888500D01*
X115500000Y-22919500D02*
X115500000Y-34825000D01*
D30*
X104489000Y-22912500D02*
X104425500Y-22976000D01*
X106013000Y-29910717D02*
X104825461Y-31098256D01*
X104825461Y-31098256D02*
X104425462Y-31498255D01*
X106013000Y-22976000D02*
X106013000Y-29910717D01*
X104298500Y-32755000D02*
X104425500Y-32755000D01*
X103663500Y-31040500D02*
X103663500Y-32120000D01*
X103663500Y-32120000D02*
X104298500Y-32755000D01*
X104499000Y-22919500D02*
X104499000Y-30205000D01*
X104499000Y-30205000D02*
X103663500Y-31040500D01*
X112337986Y-31548500D02*
X114014000Y-29872486D01*
X114014000Y-29872486D02*
X114014000Y-22976000D01*
X111612985Y-31092015D02*
X112490000Y-30215000D01*
X111612985Y-32062670D02*
X111612985Y-31092015D01*
X112490000Y-30215000D02*
X112490000Y-22976000D01*
X112299500Y-32755000D02*
X112299500Y-32749185D01*
X112299500Y-32749185D02*
X111612985Y-32062670D01*
X116998500Y-25262000D02*
X116084509Y-26175991D01*
X116998500Y-22912500D02*
X116998500Y-25262000D01*
X116084509Y-26175991D02*
X116084509Y-32539509D01*
X116084509Y-32539509D02*
X116427000Y-32882000D01*
X117443000Y-32882000D02*
X117633500Y-32691500D01*
X116427000Y-32882000D02*
X117443000Y-32882000D01*
X108997500Y-25325500D02*
X108081998Y-26241002D01*
X108997500Y-22912500D02*
X108997500Y-25325500D01*
X109554990Y-32882000D02*
X109808990Y-32628000D01*
X108081998Y-26241002D02*
X108081998Y-32595000D01*
X108368998Y-32882000D02*
X109554990Y-32882000D01*
X108081998Y-32595000D02*
X108368998Y-32882000D01*
X108859010Y-31554314D02*
X108859010Y-32119999D01*
X110458000Y-24944500D02*
X108859010Y-26543490D01*
X110458000Y-22912500D02*
X110458000Y-24944500D01*
X108859010Y-26543490D02*
X108859010Y-31554314D01*
D25*
X82359500Y-29195350D02*
X80657445Y-30897405D01*
D30*
X80016750Y-30972415D02*
X80091760Y-30897405D01*
D25*
X80657445Y-30897405D02*
X80091760Y-30897405D01*
X82359500Y-28257500D02*
X82359500Y-29195350D01*
D30*
X80016750Y-31924750D02*
X80016750Y-30972415D01*
X111537500Y-25338002D02*
X110534002Y-26341500D01*
X111537500Y-21134500D02*
X111537500Y-25338002D01*
X111231000Y-20828000D02*
X111537500Y-21134500D01*
X81407000Y-23050500D02*
X81280000Y-22923500D01*
X82232500Y-20828000D02*
X111231000Y-20828000D01*
X81407000Y-24511000D02*
X81407000Y-23050500D01*
X81280000Y-22923500D02*
X81280000Y-21780500D01*
X81280000Y-21780500D02*
X82232500Y-20828000D01*
X118884501Y-25878001D02*
X118484502Y-26278000D01*
X119602000Y-25160502D02*
X118884501Y-25878001D01*
X80122000Y-23938500D02*
X79756000Y-23572500D01*
X79756000Y-21717000D02*
X81122990Y-20350010D01*
X118944510Y-20350010D02*
X119602000Y-21007500D01*
X81122990Y-20350010D02*
X118944510Y-20350010D01*
X80122000Y-24513500D02*
X80122000Y-23938500D01*
X119602000Y-21007500D02*
X119602000Y-25160502D01*
X79756000Y-23572500D02*
X79756000Y-21717000D01*
D25*
X82359500Y-25781000D02*
X82359500Y-24701500D01*
X82359500Y-28257500D02*
X82359500Y-25781000D01*
D30*
X74407650Y-35517905D02*
X71479595Y-35517905D01*
X72172584Y-35967916D02*
X71138999Y-37001501D01*
X74594049Y-35967916D02*
X72172584Y-35967916D01*
X71138999Y-37001501D02*
X70739000Y-37401500D01*
X74559083Y-36692917D02*
X74273302Y-36692917D01*
X71479595Y-35517905D02*
X71138999Y-35858501D01*
X71138999Y-35858501D02*
X70739000Y-36258500D01*
X75127555Y-34798000D02*
X74407650Y-35517905D01*
X75128965Y-35433000D02*
X74594049Y-35967916D01*
X75882500Y-34798000D02*
X75127555Y-34798000D01*
X75184000Y-36068000D02*
X74559083Y-36692917D01*
X75882500Y-36068000D02*
X75184000Y-36068000D01*
X75866750Y-35433000D02*
X75128965Y-35433000D01*
X78066750Y-38709750D02*
X76263500Y-40513000D01*
X78066750Y-37624750D02*
X78066750Y-38709750D01*
X77416750Y-37655500D02*
X77416750Y-38464935D01*
X76092675Y-39789010D02*
X75526990Y-39789010D01*
X77416750Y-38464935D02*
X76092675Y-39789010D01*
D27*
X62230000Y-39052500D02*
X62230000Y-27559000D01*
X62230000Y-43434000D02*
X62230000Y-39052500D01*
D32*
X72898000Y-43434000D02*
X74930000Y-43434000D01*
X74930000Y-43434000D02*
X75350001Y-43854001D01*
X72390000Y-37465000D02*
X72390000Y-42926000D01*
X75350001Y-43854001D02*
X76200000Y-44704000D01*
X72390000Y-42926000D02*
X72898000Y-43434000D01*
D33*
X68516500Y-37655500D02*
X68516500Y-39433500D01*
X67310000Y-43434000D02*
X67310000Y-40640000D01*
X68116501Y-39833499D02*
X68516500Y-39433500D01*
X68580000Y-44704000D02*
X67310000Y-43434000D01*
X67310000Y-40640000D02*
X68116501Y-39833499D01*
D30*
X33020000Y-29527500D02*
X35623500Y-32131000D01*
X33020000Y-26290000D02*
X33020000Y-29527500D01*
X82867500Y-36703000D02*
X86640501Y-32929999D01*
X96175999Y-32929999D02*
X96945501Y-33699501D01*
X81566750Y-36703000D02*
X82867500Y-36703000D01*
X86640501Y-32929999D02*
X96175999Y-32929999D01*
X96945501Y-33699501D02*
X97345500Y-34099500D01*
D33*
X93980000Y-44704000D02*
X95205001Y-43478999D01*
X95205001Y-43478999D02*
X95205001Y-40976001D01*
X95205001Y-40976001D02*
X93046499Y-38817499D01*
X93046499Y-38817499D02*
X92646500Y-38417500D01*
D27*
X91440000Y-39836830D02*
X91440000Y-37401500D01*
X91440000Y-44704000D02*
X92710000Y-43434000D01*
X92710000Y-41106830D02*
X91440000Y-39836830D01*
X92710000Y-43434000D02*
X92710000Y-41106830D01*
X90170000Y-41402000D02*
X88900000Y-40132000D01*
X88900000Y-40132000D02*
X88900000Y-37401500D01*
X88900000Y-44704000D02*
X90170000Y-43434000D01*
X90170000Y-43434000D02*
X90170000Y-41402000D01*
D33*
X80804750Y-37624750D02*
X81343500Y-38163500D01*
X81343500Y-38163500D02*
X81343500Y-39243000D01*
X80666750Y-37624750D02*
X80804750Y-37624750D01*
X81343500Y-39941500D02*
X80010000Y-41275000D01*
X81343500Y-39243000D02*
X81343500Y-39941500D01*
X80010000Y-41275000D02*
X80010000Y-43434000D01*
X80010000Y-43434000D02*
X81280000Y-44704000D01*
D27*
X87630000Y-43434000D02*
X87630000Y-37610840D01*
X87420660Y-37401500D02*
X86360000Y-37401500D01*
X86360000Y-44704000D02*
X87630000Y-43434000D01*
X87630000Y-37610840D02*
X87420660Y-37401500D01*
D30*
X86360000Y-42164000D02*
X86360000Y-39106680D01*
X86360000Y-39106680D02*
X86781345Y-38685335D01*
D27*
X83820000Y-38776004D02*
X83820000Y-37401500D01*
X82550000Y-40046004D02*
X83820000Y-38776004D01*
X83820000Y-44704000D02*
X82550000Y-43434000D01*
D33*
X84391500Y-46101000D02*
X85090000Y-45402500D01*
X84503708Y-40023679D02*
X84103709Y-39623680D01*
X75057000Y-46101000D02*
X84391500Y-46101000D01*
X73660000Y-44704000D02*
X75057000Y-46101000D01*
X85090000Y-45402500D02*
X85090000Y-40609971D01*
X85090000Y-40609971D02*
X84503708Y-40023679D01*
D27*
X82550000Y-43434000D02*
X82550000Y-40046004D01*
D30*
X106700500Y-42890000D02*
X106700500Y-40978000D01*
X106700500Y-40978000D02*
X104838500Y-39116000D01*
X104838500Y-39116000D02*
X96837500Y-39116000D01*
X96837500Y-39116000D02*
X91757500Y-34036000D01*
X91757500Y-34036000D02*
X86614000Y-34036000D01*
X90170000Y-39142500D02*
X90170000Y-36385500D01*
X88158687Y-34644498D02*
X88005185Y-34798000D01*
X101663500Y-43561000D02*
X100393500Y-43561000D01*
X91476998Y-34644498D02*
X88158687Y-34644498D01*
X88005185Y-34798000D02*
X87439500Y-34798000D01*
X100393500Y-43561000D02*
X91476998Y-34644498D01*
X90170000Y-36385500D02*
X89154000Y-35369500D01*
D33*
X82111315Y-38735000D02*
X82677000Y-38735000D01*
X81407000Y-38735000D02*
X82111315Y-38735000D01*
X81343500Y-39243000D02*
X81343500Y-38798500D01*
X81343500Y-38798500D02*
X81407000Y-38735000D01*
D30*
X80010000Y-39052500D02*
X80454500Y-39497000D01*
X80010000Y-37655500D02*
X80010000Y-39052500D01*
X79375000Y-38850139D02*
X79284990Y-38940149D01*
X79375000Y-37592000D02*
X79375000Y-38850139D01*
X79546636Y-40303636D02*
X79863431Y-40303636D01*
X78516761Y-38647237D02*
X78516761Y-39273761D01*
X78716746Y-37655500D02*
X78716746Y-38447252D01*
X78516761Y-39273761D02*
X79546636Y-40303636D01*
X78716746Y-38447252D02*
X78516761Y-38647237D01*
X74549000Y-39433500D02*
X73469500Y-39433500D01*
X76766750Y-37624750D02*
X76357750Y-37624750D01*
X76357750Y-37624750D02*
X74549000Y-39433500D01*
X74532973Y-38433527D02*
X73460653Y-38433527D01*
X75882500Y-36703000D02*
X75882500Y-37084000D01*
X75882500Y-37084000D02*
X74532973Y-38433527D01*
X81121250Y-25527000D02*
X80772000Y-25876250D01*
X82359500Y-25781000D02*
X82359500Y-25527000D01*
X80772000Y-25876250D02*
X80772000Y-26416000D01*
X82359500Y-25527000D02*
X81121250Y-25527000D01*
D27*
X52070000Y-39687500D02*
X52070000Y-38200490D01*
X55880000Y-27492081D02*
X55880000Y-31178500D01*
X55880000Y-26290000D02*
X55880000Y-27492081D01*
X71120000Y-26290000D02*
X71120000Y-31178500D01*
X73660000Y-31115000D02*
X73660000Y-31178500D01*
X73660000Y-26291000D02*
X73660000Y-31115000D01*
X73660000Y-26290000D02*
X73659000Y-26290000D01*
X73659000Y-26290000D02*
X73660000Y-26291000D01*
D30*
X98031691Y-31135510D02*
X98597376Y-31135510D01*
X81566750Y-34798000D02*
X82801500Y-34798000D01*
X86463990Y-31135510D02*
X98031691Y-31135510D01*
X82801500Y-34798000D02*
X86463990Y-31135510D01*
X81566750Y-35433000D02*
X82816500Y-35433000D01*
X99181008Y-31860512D02*
X99506011Y-31535509D01*
X99506011Y-31535509D02*
X99906010Y-31135510D01*
X86388988Y-31860512D02*
X99181008Y-31860512D01*
X82816500Y-35433000D02*
X86388988Y-31860512D01*
D29*
X102425500Y-36512500D02*
X103632000Y-37719000D01*
X100584000Y-30035500D02*
X102425500Y-31877000D01*
X85852000Y-22415500D02*
X86931500Y-23495000D01*
X82105500Y-22415500D02*
X85852000Y-22415500D01*
X103632000Y-37719000D02*
X108548500Y-37719000D01*
X86931500Y-23495000D02*
X86931500Y-29273500D01*
X102425500Y-31877000D02*
X102425500Y-36512500D01*
X86931500Y-29273500D02*
X87693500Y-30035500D01*
X87693500Y-30035500D02*
X100584000Y-30035500D01*
D30*
X79883000Y-27114500D02*
X78867000Y-27114500D01*
X80122000Y-26413500D02*
X80122000Y-26875500D01*
X77416750Y-28564750D02*
X77416750Y-31924750D01*
X78867000Y-27114500D02*
X77416750Y-28564750D01*
X80122000Y-26875500D02*
X79883000Y-27114500D01*
X79366750Y-30551425D02*
X81474998Y-28443177D01*
X79366750Y-31924750D02*
X79366750Y-30551425D01*
X78716750Y-31924750D02*
X78716750Y-29397240D01*
X78066750Y-28974236D02*
X78066750Y-31174750D01*
X81422000Y-27353500D02*
X81015512Y-27759988D01*
X78716750Y-29397240D02*
X79629000Y-28484990D01*
X81015512Y-27759988D02*
X79280998Y-27759988D01*
X78066750Y-31174750D02*
X78066750Y-31924750D01*
X81422000Y-26413500D02*
X81422000Y-27353500D01*
X79280998Y-27759988D02*
X78066750Y-28974236D01*
X71443314Y-33141186D02*
X72390000Y-32194500D01*
X72390000Y-30162500D02*
X72834500Y-29718000D01*
X72390000Y-32194500D02*
X72390000Y-30162500D01*
X69850000Y-28865990D02*
X70294500Y-28421490D01*
X69850000Y-32893000D02*
X69850000Y-28865990D01*
X75186821Y-32829500D02*
X74139334Y-33876987D01*
X75819000Y-32829500D02*
X75186821Y-32829500D01*
X66865500Y-29585185D02*
X66865500Y-29019500D01*
X74139334Y-33876987D02*
X69246487Y-33876987D01*
X69246487Y-33876987D02*
X66865500Y-31496000D01*
X66865500Y-31496000D02*
X66865500Y-29585185D01*
X74237144Y-35052000D02*
X71177685Y-35052000D01*
X75189644Y-34099500D02*
X74237144Y-35052000D01*
X75866750Y-34099500D02*
X75189644Y-34099500D01*
X71177685Y-35052000D02*
X70612000Y-35052000D01*
X75188233Y-33464500D02*
X75866750Y-33464500D01*
X67595750Y-33178750D02*
X68743998Y-34326998D01*
X74325734Y-34326998D02*
X75188233Y-33464500D01*
X68743998Y-34326998D02*
X74325734Y-34326998D01*
D25*
X68516500Y-35433000D02*
X65550999Y-32467499D01*
X65550999Y-32467499D02*
X65151000Y-32067500D01*
X68516500Y-35750500D02*
X68516500Y-35433000D01*
D30*
X80772000Y-22669500D02*
X80518000Y-22415500D01*
X80772000Y-24511000D02*
X80772000Y-22669500D01*
X74104500Y-32893000D02*
X73469500Y-32893000D01*
X76766750Y-31924750D02*
X75072750Y-31924750D01*
X75072750Y-31924750D02*
X74104500Y-32893000D01*
M02*
