G04 #@! TF.GenerationSoftware,KiCad,Pcbnew,(5.99.0-576-ga860ac506)*
G04 #@! TF.CreationDate,2020-08-23T19:59:58+02:00*
G04 #@! TF.ProjectId,50 pin to 34 pin Floppy Adapter,35302070-696e-4207-946f-203334207069,rev?*
G04 #@! TF.SameCoordinates,Original*
G04 #@! TF.FileFunction,Other,User*
%FSLAX46Y46*%
G04 Gerber Fmt 4.6, Leading zero omitted, Abs format (unit mm)*
G04 Created by KiCad (PCBNEW (5.99.0-576-ga860ac506)) date 2020-08-23 19:59:58*
%MOMM*%
%LPD*%
G04 APERTURE LIST*
%ADD10C,0.050000*%
G04 APERTURE END LIST*
D10*
X84935500Y-39921500D02*
X89435500Y-39921500D01*
X84935500Y-37421500D02*
X84935500Y-39921500D01*
X89435500Y-37421500D02*
X84935500Y-37421500D01*
X89435500Y-39921500D02*
X89435500Y-37421500D01*
X35288000Y-36019500D02*
X35288000Y-32819500D01*
X38088000Y-36019500D02*
X38088000Y-32819500D01*
X38088000Y-36019500D02*
X35288000Y-36019500D01*
X35288000Y-32819500D02*
X38088000Y-32819500D01*
X85638000Y-37158500D02*
X88738000Y-37158500D01*
X85638000Y-37158500D02*
X85638000Y-35358500D01*
X88738000Y-35358500D02*
X88738000Y-37158500D01*
X88738000Y-35358500D02*
X85638000Y-35358500D01*
X43460000Y-36311000D02*
X40360000Y-36311000D01*
X43460000Y-36311000D02*
X43460000Y-38111000D01*
X40360000Y-38111000D02*
X40360000Y-36311000D01*
X40360000Y-38111000D02*
X43460000Y-38111000D01*
X91358500Y-30990500D02*
X82758500Y-30990500D01*
X91358500Y-20190500D02*
X91358500Y-30990500D01*
X82758500Y-20190500D02*
X91358500Y-20190500D01*
X82758500Y-30990500D02*
X82758500Y-20190500D01*
X115388000Y-32157000D02*
X115388000Y-29057000D01*
X115388000Y-32157000D02*
X111688000Y-32157000D01*
X111688000Y-29057000D02*
X115388000Y-29057000D01*
X111688000Y-29057000D02*
X111688000Y-32157000D01*
X119134500Y-31903000D02*
X119134500Y-28803000D01*
X119134500Y-31903000D02*
X115434500Y-31903000D01*
X115434500Y-28803000D02*
X119134500Y-28803000D01*
X115434500Y-28803000D02*
X115434500Y-31903000D01*
X115388000Y-29045500D02*
X115388000Y-25945500D01*
X115388000Y-29045500D02*
X111688000Y-29045500D01*
X111688000Y-25945500D02*
X115388000Y-25945500D01*
X111688000Y-25945500D02*
X111688000Y-29045500D01*
X119134500Y-28791500D02*
X119134500Y-25691500D01*
X119134500Y-28791500D02*
X115434500Y-28791500D01*
X115434500Y-25691500D02*
X119134500Y-25691500D01*
X115434500Y-25691500D02*
X115434500Y-28791500D01*
X103380500Y-35097500D02*
X92580500Y-35097500D01*
X92580500Y-35097500D02*
X92580500Y-26497500D01*
X92580500Y-26497500D02*
X103380500Y-26497500D01*
X103380500Y-26497500D02*
X103380500Y-35097500D01*
X103775500Y-29057000D02*
X103775500Y-32157000D01*
X103775500Y-29057000D02*
X107475500Y-29057000D01*
X107475500Y-32157000D02*
X103775500Y-32157000D01*
X107475500Y-32157000D02*
X107475500Y-29057000D01*
X111184000Y-31903000D02*
X111184000Y-28803000D01*
X111184000Y-31903000D02*
X107484000Y-31903000D01*
X107484000Y-28803000D02*
X111184000Y-28803000D01*
X107484000Y-28803000D02*
X107484000Y-31903000D01*
X103775500Y-25945500D02*
X103775500Y-29045500D01*
X103775500Y-25945500D02*
X107475500Y-25945500D01*
X107475500Y-29045500D02*
X103775500Y-29045500D01*
X107475500Y-29045500D02*
X107475500Y-25945500D01*
X111184000Y-28791500D02*
X111184000Y-25691500D01*
X111184000Y-28791500D02*
X107484000Y-28791500D01*
X107484000Y-25691500D02*
X111184000Y-25691500D01*
X107484000Y-25691500D02*
X107484000Y-28791500D01*
M02*
