G04 #@! TF.GenerationSoftware,KiCad,Pcbnew,(5.99.0-576-ga860ac506)*
G04 #@! TF.CreationDate,2020-08-23T19:59:58+02:00*
G04 #@! TF.ProjectId,50 pin to 34 pin Floppy Adapter,35302070-696e-4207-946f-203334207069,rev?*
G04 #@! TF.SameCoordinates,Original*
G04 #@! TF.FileFunction,AssemblyDrawing,Top*
%FSLAX46Y46*%
G04 Gerber Fmt 4.6, Leading zero omitted, Abs format (unit mm)*
G04 Created by KiCad (PCBNEW (5.99.0-576-ga860ac506)) date 2020-08-23 19:59:58*
%MOMM*%
%LPD*%
G04 APERTURE LIST*
%ADD10C,0.100000*%
%ADD11C,0.150000*%
%ADD12C,0.075000*%
%ADD13C,0.050000*%
%ADD14C,0.120000*%
G04 APERTURE END LIST*
D10*
X79672000Y-25638500D02*
X80172000Y-26138500D01*
X81872000Y-24788500D02*
X81872000Y-26138500D01*
X79672000Y-24788500D02*
X81872000Y-24788500D01*
X80172000Y-26138500D02*
X81872000Y-26138500D01*
X79672000Y-24788500D02*
X79672000Y-25638500D01*
X23730500Y-33080500D02*
X23730500Y-35880500D01*
X23555500Y-33080500D02*
X23555500Y-35880500D01*
X26705500Y-33080500D02*
X23205500Y-33080500D01*
X26705500Y-35880500D02*
X26705500Y-33080500D01*
X23205500Y-35880500D02*
X26705500Y-35880500D01*
X23205500Y-33080500D02*
X23205500Y-35880500D01*
X24455500Y-36580000D02*
X25455500Y-36580000D01*
X25455500Y-36580000D02*
X25455500Y-37080000D01*
X25455500Y-37080000D02*
X24455500Y-37080000D01*
X24455500Y-37080000D02*
X24455500Y-36580000D01*
X40005000Y-35687000D02*
X39370000Y-35052000D01*
X52070000Y-35687000D02*
X40005000Y-35687000D01*
X52070000Y-33147000D02*
X52070000Y-35687000D01*
X39370000Y-33147000D02*
X52070000Y-33147000D01*
X39370000Y-35052000D02*
X39370000Y-33147000D01*
X69136500Y-35705500D02*
X69136500Y-37705500D01*
X69136500Y-37705500D02*
X67896500Y-37705500D01*
X67896500Y-37705500D02*
X67896500Y-35705500D01*
X67896500Y-35705500D02*
X69136500Y-35705500D01*
X57832500Y-31798500D02*
X55832500Y-31798500D01*
X55832500Y-31798500D02*
X55832500Y-30558500D01*
X55832500Y-30558500D02*
X57832500Y-30558500D01*
X57832500Y-30558500D02*
X57832500Y-31798500D01*
X103901000Y-42910000D02*
X103901000Y-40910000D01*
X103901000Y-40910000D02*
X105141000Y-40910000D01*
X105141000Y-40910000D02*
X105141000Y-42910000D01*
X105141000Y-42910000D02*
X103901000Y-42910000D01*
X112050000Y-23919500D02*
X118950000Y-23919500D01*
X112050000Y-31919500D02*
X112050000Y-23919500D01*
X114050000Y-33919500D02*
X112050000Y-31919500D01*
X118950000Y-33919500D02*
X114050000Y-33919500D01*
X118950000Y-23919500D02*
X118950000Y-33919500D01*
X104049000Y-23919500D02*
X110949000Y-23919500D01*
X104049000Y-31919500D02*
X104049000Y-23919500D01*
X106049000Y-33919500D02*
X104049000Y-31919500D01*
X110949000Y-33919500D02*
X106049000Y-33919500D01*
X110949000Y-23919500D02*
X110949000Y-33919500D01*
X113680500Y-43640000D02*
X113680500Y-37640000D01*
X113680500Y-37640000D02*
X107680500Y-37640000D01*
X107680500Y-37640000D02*
X107680500Y-43640000D01*
X107680500Y-43640000D02*
X113680500Y-43640000D01*
X112431214Y-40640000D02*
G75*
G03*
X112431214Y-40640000I-1750714J0D01*
G01*
D11*
X75716750Y-36774750D02*
X75716750Y-31774750D01*
X75716750Y-31774750D02*
X81716750Y-31774750D01*
X81716750Y-31774750D02*
X81716750Y-37774750D01*
X81716750Y-37774750D02*
X76716750Y-37774750D01*
X76716750Y-37774750D02*
X75716750Y-36774750D01*
D10*
X25146000Y-31369000D02*
X24511000Y-32004000D01*
X25146000Y-21844000D02*
X25146000Y-31369000D01*
X22606000Y-21844000D02*
X25146000Y-21844000D01*
X22606000Y-32004000D02*
X22606000Y-21844000D01*
X24511000Y-32004000D02*
X22606000Y-32004000D01*
X100393500Y-40322500D02*
X101028500Y-39687500D01*
X100393500Y-47307500D02*
X100393500Y-40322500D01*
X102933500Y-47307500D02*
X100393500Y-47307500D01*
X102933500Y-39687500D02*
X102933500Y-47307500D01*
X101028500Y-39687500D02*
X102933500Y-39687500D01*
D11*
X78938380Y-29860285D02*
X77938380Y-29860285D01*
X78938380Y-29288857D01*
X77938380Y-29288857D01*
X78843142Y-28241238D02*
X78890761Y-28288857D01*
X78938380Y-28431714D01*
X78938380Y-28526952D01*
X78890761Y-28669809D01*
X78795523Y-28765047D01*
X78700285Y-28812666D01*
X78509809Y-28860285D01*
X78366952Y-28860285D01*
X78176476Y-28812666D01*
X78081238Y-28765047D01*
X77986000Y-28669809D01*
X77938380Y-28526952D01*
X77938380Y-28431714D01*
X77986000Y-28288857D01*
X78033619Y-28241238D01*
X77938380Y-27907904D02*
X77938380Y-27241238D01*
X78938380Y-27669809D01*
X77938380Y-26955523D02*
X78938380Y-26717428D01*
X78224095Y-26526952D01*
X78938380Y-26336476D01*
X77938380Y-26098380D01*
X77938380Y-25812666D02*
X77938380Y-25146000D01*
X78938380Y-25812666D01*
X78938380Y-25146000D01*
X78938380Y-24241238D02*
X78938380Y-24812666D01*
X78938380Y-24526952D02*
X77938380Y-24526952D01*
X78081238Y-24622190D01*
X78176476Y-24717428D01*
X78224095Y-24812666D01*
X77938380Y-23384095D02*
X77938380Y-23574571D01*
X77986000Y-23669809D01*
X78033619Y-23717428D01*
X78176476Y-23812666D01*
X78366952Y-23860285D01*
X78747904Y-23860285D01*
X78843142Y-23812666D01*
X78890761Y-23765047D01*
X78938380Y-23669809D01*
X78938380Y-23479333D01*
X78890761Y-23384095D01*
X78843142Y-23336476D01*
X78747904Y-23288857D01*
X78509809Y-23288857D01*
X78414571Y-23336476D01*
X78366952Y-23384095D01*
X78319333Y-23479333D01*
X78319333Y-23669809D01*
X78366952Y-23765047D01*
X78414571Y-23812666D01*
X78509809Y-23860285D01*
X78938380Y-22860285D02*
X77938380Y-22860285D01*
X77938380Y-22479333D01*
X77986000Y-22384095D01*
X78033619Y-22336476D01*
X78128857Y-22288857D01*
X78271714Y-22288857D01*
X78366952Y-22336476D01*
X78414571Y-22384095D01*
X78462190Y-22479333D01*
X78462190Y-22860285D01*
X77938380Y-21431714D02*
X77938380Y-21622190D01*
X77986000Y-21717428D01*
X78033619Y-21765047D01*
X78176476Y-21860285D01*
X78366952Y-21907904D01*
X78747904Y-21907904D01*
X78843142Y-21860285D01*
X78890761Y-21812666D01*
X78938380Y-21717428D01*
X78938380Y-21526952D01*
X78890761Y-21431714D01*
X78843142Y-21384095D01*
X78747904Y-21336476D01*
X78509809Y-21336476D01*
X78414571Y-21384095D01*
X78366952Y-21431714D01*
X78319333Y-21526952D01*
X78319333Y-21717428D01*
X78366952Y-21812666D01*
X78414571Y-21860285D01*
X78509809Y-21907904D01*
X77938380Y-21003142D02*
X78938380Y-20336476D01*
X77938380Y-20336476D02*
X78938380Y-21003142D01*
D12*
X80391047Y-25189690D02*
X80391047Y-25594452D01*
X80414857Y-25642071D01*
X80438666Y-25665880D01*
X80486285Y-25689690D01*
X80581523Y-25689690D01*
X80629142Y-25665880D01*
X80652952Y-25642071D01*
X80676761Y-25594452D01*
X80676761Y-25189690D01*
X81129142Y-25356357D02*
X81129142Y-25689690D01*
X81010095Y-25165880D02*
X80891047Y-25523023D01*
X81200571Y-25523023D01*
D13*
X71346190Y-34940714D02*
X70846190Y-34940714D01*
X70846190Y-34750238D01*
X70870000Y-34702619D01*
X70893809Y-34678809D01*
X70941428Y-34655000D01*
X71012857Y-34655000D01*
X71060476Y-34678809D01*
X71084285Y-34702619D01*
X71108095Y-34750238D01*
X71108095Y-34940714D01*
X71298571Y-34155000D02*
X71322380Y-34178809D01*
X71346190Y-34250238D01*
X71346190Y-34297857D01*
X71322380Y-34369285D01*
X71274761Y-34416904D01*
X71227142Y-34440714D01*
X71131904Y-34464523D01*
X71060476Y-34464523D01*
X70965238Y-34440714D01*
X70917619Y-34416904D01*
X70870000Y-34369285D01*
X70846190Y-34297857D01*
X70846190Y-34250238D01*
X70870000Y-34178809D01*
X70893809Y-34155000D01*
X70846190Y-33988333D02*
X70846190Y-33678809D01*
X71036666Y-33845476D01*
X71036666Y-33774047D01*
X71060476Y-33726428D01*
X71084285Y-33702619D01*
X71131904Y-33678809D01*
X71250952Y-33678809D01*
X71298571Y-33702619D01*
X71322380Y-33726428D01*
X71346190Y-33774047D01*
X71346190Y-33916904D01*
X71322380Y-33964523D01*
X71298571Y-33988333D01*
X71012857Y-33250238D02*
X71346190Y-33250238D01*
X70822380Y-33369285D02*
X71179523Y-33488333D01*
X71179523Y-33178809D01*
X71393809Y-33107380D02*
X71393809Y-32726428D01*
X71012857Y-32393095D02*
X71346190Y-32393095D01*
X70822380Y-32512142D02*
X71179523Y-32631190D01*
X71179523Y-32321666D01*
D11*
X62134976Y-42981571D02*
X61801642Y-42981571D01*
X61801642Y-43505380D02*
X61801642Y-42505380D01*
X62277833Y-42505380D01*
X62658785Y-43505380D02*
X62658785Y-42505380D01*
X62896880Y-42505380D01*
X63039738Y-42553000D01*
X63134976Y-42648238D01*
X63182595Y-42743476D01*
X63230214Y-42933952D01*
X63230214Y-43076809D01*
X63182595Y-43267285D01*
X63134976Y-43362523D01*
X63039738Y-43457761D01*
X62896880Y-43505380D01*
X62658785Y-43505380D01*
X63658785Y-43505380D02*
X63658785Y-42505380D01*
X63896880Y-42505380D01*
X64039738Y-42553000D01*
X64134976Y-42648238D01*
X64182595Y-42743476D01*
X64230214Y-42933952D01*
X64230214Y-43076809D01*
X64182595Y-43267285D01*
X64134976Y-43362523D01*
X64039738Y-43457761D01*
X63896880Y-43505380D01*
X63658785Y-43505380D01*
X65134976Y-42505380D02*
X64658785Y-42505380D01*
X64611166Y-42981571D01*
X64658785Y-42933952D01*
X64754023Y-42886333D01*
X64992119Y-42886333D01*
X65087357Y-42933952D01*
X65134976Y-42981571D01*
X65182595Y-43076809D01*
X65182595Y-43314904D01*
X65134976Y-43410142D01*
X65087357Y-43457761D01*
X64992119Y-43505380D01*
X64754023Y-43505380D01*
X64658785Y-43457761D01*
X64611166Y-43410142D01*
X65801642Y-42505380D02*
X65896880Y-42505380D01*
X65992119Y-42553000D01*
X66039738Y-42600619D01*
X66087357Y-42695857D01*
X66134976Y-42886333D01*
X66134976Y-43124428D01*
X66087357Y-43314904D01*
X66039738Y-43410142D01*
X65992119Y-43457761D01*
X65896880Y-43505380D01*
X65801642Y-43505380D01*
X65706404Y-43457761D01*
X65658785Y-43410142D01*
X65611166Y-43314904D01*
X65563547Y-43124428D01*
X65563547Y-42886333D01*
X65611166Y-42695857D01*
X65658785Y-42600619D01*
X65706404Y-42553000D01*
X65801642Y-42505380D01*
X28694142Y-34805880D02*
X28122714Y-34805880D01*
X28408428Y-34805880D02*
X28408428Y-33805880D01*
X28313190Y-33948738D01*
X28217952Y-34043976D01*
X28122714Y-34091595D01*
X29313190Y-33805880D02*
X29408428Y-33805880D01*
X29503666Y-33853500D01*
X29551285Y-33901119D01*
X29598904Y-33996357D01*
X29646523Y-34186833D01*
X29646523Y-34424928D01*
X29598904Y-34615404D01*
X29551285Y-34710642D01*
X29503666Y-34758261D01*
X29408428Y-34805880D01*
X29313190Y-34805880D01*
X29217952Y-34758261D01*
X29170333Y-34710642D01*
X29122714Y-34615404D01*
X29075095Y-34424928D01*
X29075095Y-34186833D01*
X29122714Y-33996357D01*
X29170333Y-33901119D01*
X29217952Y-33853500D01*
X29313190Y-33805880D01*
X30503666Y-34139214D02*
X30503666Y-34805880D01*
X30075095Y-34139214D02*
X30075095Y-34663023D01*
X30122714Y-34758261D01*
X30217952Y-34805880D01*
X30360809Y-34805880D01*
X30456047Y-34758261D01*
X30503666Y-34710642D01*
D14*
X24822166Y-34766214D02*
X24784071Y-34804309D01*
X24669785Y-34842404D01*
X24593595Y-34842404D01*
X24479309Y-34804309D01*
X24403119Y-34728119D01*
X24365023Y-34651928D01*
X24326928Y-34499547D01*
X24326928Y-34385261D01*
X24365023Y-34232880D01*
X24403119Y-34156690D01*
X24479309Y-34080500D01*
X24593595Y-34042404D01*
X24669785Y-34042404D01*
X24784071Y-34080500D01*
X24822166Y-34118595D01*
X25126928Y-34118595D02*
X25165023Y-34080500D01*
X25241214Y-34042404D01*
X25431690Y-34042404D01*
X25507880Y-34080500D01*
X25545976Y-34118595D01*
X25584071Y-34194785D01*
X25584071Y-34270976D01*
X25545976Y-34385261D01*
X25088833Y-34842404D01*
X25584071Y-34842404D01*
D11*
X26820952Y-37472880D02*
X26249523Y-37472880D01*
X26535238Y-37472880D02*
X26535238Y-36472880D01*
X26440000Y-36615738D01*
X26344761Y-36710976D01*
X26249523Y-36758595D01*
X27440000Y-36472880D02*
X27535238Y-36472880D01*
X27630476Y-36520500D01*
X27678095Y-36568119D01*
X27725714Y-36663357D01*
X27773333Y-36853833D01*
X27773333Y-37091928D01*
X27725714Y-37282404D01*
X27678095Y-37377642D01*
X27630476Y-37425261D01*
X27535238Y-37472880D01*
X27440000Y-37472880D01*
X27344761Y-37425261D01*
X27297142Y-37377642D01*
X27249523Y-37282404D01*
X27201904Y-37091928D01*
X27201904Y-36853833D01*
X27249523Y-36663357D01*
X27297142Y-36568119D01*
X27344761Y-36520500D01*
X27440000Y-36472880D01*
X28392380Y-36472880D02*
X28487619Y-36472880D01*
X28582857Y-36520500D01*
X28630476Y-36568119D01*
X28678095Y-36663357D01*
X28725714Y-36853833D01*
X28725714Y-37091928D01*
X28678095Y-37282404D01*
X28630476Y-37377642D01*
X28582857Y-37425261D01*
X28487619Y-37472880D01*
X28392380Y-37472880D01*
X28297142Y-37425261D01*
X28249523Y-37377642D01*
X28201904Y-37282404D01*
X28154285Y-37091928D01*
X28154285Y-36853833D01*
X28201904Y-36663357D01*
X28249523Y-36568119D01*
X28297142Y-36520500D01*
X28392380Y-36472880D01*
X29154285Y-36806214D02*
X29154285Y-37472880D01*
X29154285Y-36901452D02*
X29201904Y-36853833D01*
X29297142Y-36806214D01*
X29440000Y-36806214D01*
X29535238Y-36853833D01*
X29582857Y-36949071D01*
X29582857Y-37472880D01*
X22883833Y-37377642D02*
X22836214Y-37425261D01*
X22693357Y-37472880D01*
X22598119Y-37472880D01*
X22455261Y-37425261D01*
X22360023Y-37330023D01*
X22312404Y-37234785D01*
X22264785Y-37044309D01*
X22264785Y-36901452D01*
X22312404Y-36710976D01*
X22360023Y-36615738D01*
X22455261Y-36520500D01*
X22598119Y-36472880D01*
X22693357Y-36472880D01*
X22836214Y-36520500D01*
X22883833Y-36568119D01*
X23836214Y-37472880D02*
X23264785Y-37472880D01*
X23550500Y-37472880D02*
X23550500Y-36472880D01*
X23455261Y-36615738D01*
X23360023Y-36710976D01*
X23264785Y-36758595D01*
X44124785Y-32392880D02*
X44124785Y-31392880D01*
X44505738Y-31392880D01*
X44600976Y-31440500D01*
X44648595Y-31488119D01*
X44696214Y-31583357D01*
X44696214Y-31726214D01*
X44648595Y-31821452D01*
X44600976Y-31869071D01*
X44505738Y-31916690D01*
X44124785Y-31916690D01*
X45696214Y-32392880D02*
X45362880Y-31916690D01*
X45124785Y-32392880D02*
X45124785Y-31392880D01*
X45505738Y-31392880D01*
X45600976Y-31440500D01*
X45648595Y-31488119D01*
X45696214Y-31583357D01*
X45696214Y-31726214D01*
X45648595Y-31821452D01*
X45600976Y-31869071D01*
X45505738Y-31916690D01*
X45124785Y-31916690D01*
X46315261Y-31392880D02*
X46505738Y-31392880D01*
X46600976Y-31440500D01*
X46696214Y-31535738D01*
X46743833Y-31726214D01*
X46743833Y-32059547D01*
X46696214Y-32250023D01*
X46600976Y-32345261D01*
X46505738Y-32392880D01*
X46315261Y-32392880D01*
X46220023Y-32345261D01*
X46124785Y-32250023D01*
X46077166Y-32059547D01*
X46077166Y-31726214D01*
X46124785Y-31535738D01*
X46220023Y-31440500D01*
X46315261Y-31392880D01*
X47696214Y-31440500D02*
X47600976Y-31392880D01*
X47458119Y-31392880D01*
X47315261Y-31440500D01*
X47220023Y-31535738D01*
X47172404Y-31630976D01*
X47124785Y-31821452D01*
X47124785Y-31964309D01*
X47172404Y-32154785D01*
X47220023Y-32250023D01*
X47315261Y-32345261D01*
X47458119Y-32392880D01*
X47553357Y-32392880D01*
X47696214Y-32345261D01*
X47743833Y-32297642D01*
X47743833Y-31964309D01*
X47553357Y-31964309D01*
X45386666Y-33869380D02*
X45386666Y-34583666D01*
X45339047Y-34726523D01*
X45243809Y-34821761D01*
X45100952Y-34869380D01*
X45005714Y-34869380D01*
X46339047Y-33869380D02*
X45862857Y-33869380D01*
X45815238Y-34345571D01*
X45862857Y-34297952D01*
X45958095Y-34250333D01*
X46196190Y-34250333D01*
X46291428Y-34297952D01*
X46339047Y-34345571D01*
X46386666Y-34440809D01*
X46386666Y-34678904D01*
X46339047Y-34774142D01*
X46291428Y-34821761D01*
X46196190Y-34869380D01*
X45958095Y-34869380D01*
X45862857Y-34821761D01*
X45815238Y-34774142D01*
X70207214Y-37157880D02*
X69635785Y-37157880D01*
X69921500Y-37157880D02*
X69921500Y-36157880D01*
X69826261Y-36300738D01*
X69731023Y-36395976D01*
X69635785Y-36443595D01*
X70635785Y-37157880D02*
X70635785Y-36157880D01*
X71207214Y-37157880D02*
X70778642Y-36586452D01*
X71207214Y-36157880D02*
X70635785Y-36729309D01*
D12*
X68433166Y-36931690D02*
X68266500Y-36693595D01*
X68147452Y-36931690D02*
X68147452Y-36431690D01*
X68337928Y-36431690D01*
X68385547Y-36455500D01*
X68409357Y-36479309D01*
X68433166Y-36526928D01*
X68433166Y-36598357D01*
X68409357Y-36645976D01*
X68385547Y-36669785D01*
X68337928Y-36693595D01*
X68147452Y-36693595D01*
X68861738Y-36598357D02*
X68861738Y-36931690D01*
X68742690Y-36407880D02*
X68623642Y-36765023D01*
X68933166Y-36765023D01*
D11*
X59285214Y-31630880D02*
X58713785Y-31630880D01*
X58999500Y-31630880D02*
X58999500Y-30630880D01*
X58904261Y-30773738D01*
X58809023Y-30868976D01*
X58713785Y-30916595D01*
X59713785Y-31630880D02*
X59713785Y-30630880D01*
X60285214Y-31630880D02*
X59856642Y-31059452D01*
X60285214Y-30630880D02*
X59713785Y-31202309D01*
D12*
X56749166Y-31404690D02*
X56582500Y-31166595D01*
X56463452Y-31404690D02*
X56463452Y-30904690D01*
X56653928Y-30904690D01*
X56701547Y-30928500D01*
X56725357Y-30952309D01*
X56749166Y-30999928D01*
X56749166Y-31071357D01*
X56725357Y-31118976D01*
X56701547Y-31142785D01*
X56653928Y-31166595D01*
X56463452Y-31166595D01*
X56915833Y-30904690D02*
X57225357Y-30904690D01*
X57058690Y-31095166D01*
X57130119Y-31095166D01*
X57177738Y-31118976D01*
X57201547Y-31142785D01*
X57225357Y-31190404D01*
X57225357Y-31309452D01*
X57201547Y-31357071D01*
X57177738Y-31380880D01*
X57130119Y-31404690D01*
X56987261Y-31404690D01*
X56939642Y-31380880D01*
X56915833Y-31357071D01*
D11*
X104306714Y-44711880D02*
X103735285Y-44711880D01*
X104021000Y-44711880D02*
X104021000Y-43711880D01*
X103925761Y-43854738D01*
X103830523Y-43949976D01*
X103735285Y-43997595D01*
X104735285Y-44711880D02*
X104735285Y-43711880D01*
X105306714Y-44711880D02*
X104878142Y-44140452D01*
X105306714Y-43711880D02*
X104735285Y-44283309D01*
D12*
X104437666Y-42136190D02*
X104271000Y-41898095D01*
X104151952Y-42136190D02*
X104151952Y-41636190D01*
X104342428Y-41636190D01*
X104390047Y-41660000D01*
X104413857Y-41683809D01*
X104437666Y-41731428D01*
X104437666Y-41802857D01*
X104413857Y-41850476D01*
X104390047Y-41874285D01*
X104342428Y-41898095D01*
X104151952Y-41898095D01*
X104913857Y-42136190D02*
X104628142Y-42136190D01*
X104771000Y-42136190D02*
X104771000Y-41636190D01*
X104723380Y-41707619D01*
X104675761Y-41755238D01*
X104628142Y-41779047D01*
D11*
X116022380Y-33596166D02*
X115022380Y-33596166D01*
X116022380Y-33024738D02*
X115450952Y-33453309D01*
X115022380Y-33024738D02*
X115593809Y-33596166D01*
X115927142Y-32024738D02*
X115974761Y-32072357D01*
X116022380Y-32215214D01*
X116022380Y-32310452D01*
X115974761Y-32453309D01*
X115879523Y-32548547D01*
X115784285Y-32596166D01*
X115593809Y-32643785D01*
X115450952Y-32643785D01*
X115260476Y-32596166D01*
X115165238Y-32548547D01*
X115070000Y-32453309D01*
X115022380Y-32310452D01*
X115022380Y-32215214D01*
X115070000Y-32072357D01*
X115117619Y-32024738D01*
X115974761Y-31643785D02*
X116022380Y-31500928D01*
X116022380Y-31262833D01*
X115974761Y-31167595D01*
X115927142Y-31119976D01*
X115831904Y-31072357D01*
X115736666Y-31072357D01*
X115641428Y-31119976D01*
X115593809Y-31167595D01*
X115546190Y-31262833D01*
X115498571Y-31453309D01*
X115450952Y-31548547D01*
X115403333Y-31596166D01*
X115308095Y-31643785D01*
X115212857Y-31643785D01*
X115117619Y-31596166D01*
X115070000Y-31548547D01*
X115022380Y-31453309D01*
X115022380Y-31215214D01*
X115070000Y-31072357D01*
X115736666Y-30691404D02*
X115736666Y-30215214D01*
X116022380Y-30786642D02*
X115022380Y-30453309D01*
X116022380Y-30119976D01*
X115022380Y-29596166D02*
X115022380Y-29500928D01*
X115070000Y-29405690D01*
X115117619Y-29358071D01*
X115212857Y-29310452D01*
X115403333Y-29262833D01*
X115641428Y-29262833D01*
X115831904Y-29310452D01*
X115927142Y-29358071D01*
X115974761Y-29405690D01*
X116022380Y-29500928D01*
X116022380Y-29596166D01*
X115974761Y-29691404D01*
X115927142Y-29739023D01*
X115831904Y-29786642D01*
X115641428Y-29834261D01*
X115403333Y-29834261D01*
X115212857Y-29786642D01*
X115117619Y-29739023D01*
X115070000Y-29691404D01*
X115022380Y-29596166D01*
X115022380Y-28929500D02*
X115022380Y-28310452D01*
X115403333Y-28643785D01*
X115403333Y-28500928D01*
X115450952Y-28405690D01*
X115498571Y-28358071D01*
X115593809Y-28310452D01*
X115831904Y-28310452D01*
X115927142Y-28358071D01*
X115974761Y-28405690D01*
X116022380Y-28500928D01*
X116022380Y-28786642D01*
X115974761Y-28881880D01*
X115927142Y-28929500D01*
X115641428Y-27881880D02*
X115641428Y-27119976D01*
X116022380Y-26119976D02*
X116022380Y-26691404D01*
X116022380Y-26405690D02*
X115022380Y-26405690D01*
X115165238Y-26500928D01*
X115260476Y-26596166D01*
X115308095Y-26691404D01*
X115022380Y-25500928D02*
X115022380Y-25405690D01*
X115070000Y-25310452D01*
X115117619Y-25262833D01*
X115212857Y-25215214D01*
X115403333Y-25167595D01*
X115641428Y-25167595D01*
X115831904Y-25215214D01*
X115927142Y-25262833D01*
X115974761Y-25310452D01*
X116022380Y-25405690D01*
X116022380Y-25500928D01*
X115974761Y-25596166D01*
X115927142Y-25643785D01*
X115831904Y-25691404D01*
X115641428Y-25739023D01*
X115403333Y-25739023D01*
X115212857Y-25691404D01*
X115117619Y-25643785D01*
X115070000Y-25596166D01*
X115022380Y-25500928D01*
X116022380Y-24215214D02*
X116022380Y-24786642D01*
X116022380Y-24500928D02*
X115022380Y-24500928D01*
X115165238Y-24596166D01*
X115260476Y-24691404D01*
X115308095Y-24786642D01*
X114617595Y-21677380D02*
X114617595Y-22486904D01*
X114665214Y-22582142D01*
X114712833Y-22629761D01*
X114808071Y-22677380D01*
X114998547Y-22677380D01*
X115093785Y-22629761D01*
X115141404Y-22582142D01*
X115189023Y-22486904D01*
X115189023Y-21677380D01*
X116093785Y-21677380D02*
X115903309Y-21677380D01*
X115808071Y-21725000D01*
X115760452Y-21772619D01*
X115665214Y-21915476D01*
X115617595Y-22105952D01*
X115617595Y-22486904D01*
X115665214Y-22582142D01*
X115712833Y-22629761D01*
X115808071Y-22677380D01*
X115998547Y-22677380D01*
X116093785Y-22629761D01*
X116141404Y-22582142D01*
X116189023Y-22486904D01*
X116189023Y-22248809D01*
X116141404Y-22153571D01*
X116093785Y-22105952D01*
X115998547Y-22058333D01*
X115808071Y-22058333D01*
X115712833Y-22105952D01*
X115665214Y-22153571D01*
X115617595Y-22248809D01*
X108084880Y-33559166D02*
X107084880Y-33559166D01*
X108084880Y-32987738D02*
X107513452Y-33416309D01*
X107084880Y-32987738D02*
X107656309Y-33559166D01*
X107989642Y-31987738D02*
X108037261Y-32035357D01*
X108084880Y-32178214D01*
X108084880Y-32273452D01*
X108037261Y-32416309D01*
X107942023Y-32511547D01*
X107846785Y-32559166D01*
X107656309Y-32606785D01*
X107513452Y-32606785D01*
X107322976Y-32559166D01*
X107227738Y-32511547D01*
X107132500Y-32416309D01*
X107084880Y-32273452D01*
X107084880Y-32178214D01*
X107132500Y-32035357D01*
X107180119Y-31987738D01*
X108037261Y-31606785D02*
X108084880Y-31463928D01*
X108084880Y-31225833D01*
X108037261Y-31130595D01*
X107989642Y-31082976D01*
X107894404Y-31035357D01*
X107799166Y-31035357D01*
X107703928Y-31082976D01*
X107656309Y-31130595D01*
X107608690Y-31225833D01*
X107561071Y-31416309D01*
X107513452Y-31511547D01*
X107465833Y-31559166D01*
X107370595Y-31606785D01*
X107275357Y-31606785D01*
X107180119Y-31559166D01*
X107132500Y-31511547D01*
X107084880Y-31416309D01*
X107084880Y-31178214D01*
X107132500Y-31035357D01*
X107799166Y-30654404D02*
X107799166Y-30178214D01*
X108084880Y-30749642D02*
X107084880Y-30416309D01*
X108084880Y-30082976D01*
X107084880Y-29559166D02*
X107084880Y-29463928D01*
X107132500Y-29368690D01*
X107180119Y-29321071D01*
X107275357Y-29273452D01*
X107465833Y-29225833D01*
X107703928Y-29225833D01*
X107894404Y-29273452D01*
X107989642Y-29321071D01*
X108037261Y-29368690D01*
X108084880Y-29463928D01*
X108084880Y-29559166D01*
X108037261Y-29654404D01*
X107989642Y-29702023D01*
X107894404Y-29749642D01*
X107703928Y-29797261D01*
X107465833Y-29797261D01*
X107275357Y-29749642D01*
X107180119Y-29702023D01*
X107132500Y-29654404D01*
X107084880Y-29559166D01*
X107084880Y-28892500D02*
X107084880Y-28273452D01*
X107465833Y-28606785D01*
X107465833Y-28463928D01*
X107513452Y-28368690D01*
X107561071Y-28321071D01*
X107656309Y-28273452D01*
X107894404Y-28273452D01*
X107989642Y-28321071D01*
X108037261Y-28368690D01*
X108084880Y-28463928D01*
X108084880Y-28749642D01*
X108037261Y-28844880D01*
X107989642Y-28892500D01*
X107703928Y-27844880D02*
X107703928Y-27082976D01*
X108084880Y-26082976D02*
X108084880Y-26654404D01*
X108084880Y-26368690D02*
X107084880Y-26368690D01*
X107227738Y-26463928D01*
X107322976Y-26559166D01*
X107370595Y-26654404D01*
X107084880Y-25463928D02*
X107084880Y-25368690D01*
X107132500Y-25273452D01*
X107180119Y-25225833D01*
X107275357Y-25178214D01*
X107465833Y-25130595D01*
X107703928Y-25130595D01*
X107894404Y-25178214D01*
X107989642Y-25225833D01*
X108037261Y-25273452D01*
X108084880Y-25368690D01*
X108084880Y-25463928D01*
X108037261Y-25559166D01*
X107989642Y-25606785D01*
X107894404Y-25654404D01*
X107703928Y-25702023D01*
X107465833Y-25702023D01*
X107275357Y-25654404D01*
X107180119Y-25606785D01*
X107132500Y-25559166D01*
X107084880Y-25463928D01*
X108084880Y-24178214D02*
X108084880Y-24749642D01*
X108084880Y-24463928D02*
X107084880Y-24463928D01*
X107227738Y-24559166D01*
X107322976Y-24654404D01*
X107370595Y-24749642D01*
X106997595Y-21550380D02*
X106997595Y-22359904D01*
X107045214Y-22455142D01*
X107092833Y-22502761D01*
X107188071Y-22550380D01*
X107378547Y-22550380D01*
X107473785Y-22502761D01*
X107521404Y-22455142D01*
X107569023Y-22359904D01*
X107569023Y-21550380D01*
X108521404Y-21550380D02*
X108045214Y-21550380D01*
X107997595Y-22026571D01*
X108045214Y-21978952D01*
X108140452Y-21931333D01*
X108378547Y-21931333D01*
X108473785Y-21978952D01*
X108521404Y-22026571D01*
X108569023Y-22121809D01*
X108569023Y-22359904D01*
X108521404Y-22455142D01*
X108473785Y-22502761D01*
X108378547Y-22550380D01*
X108140452Y-22550380D01*
X108045214Y-22502761D01*
X107997595Y-22455142D01*
X109918595Y-38647642D02*
X109870976Y-38695261D01*
X109728119Y-38742880D01*
X109632880Y-38742880D01*
X109490023Y-38695261D01*
X109394785Y-38600023D01*
X109347166Y-38504785D01*
X109299547Y-38314309D01*
X109299547Y-38171452D01*
X109347166Y-37980976D01*
X109394785Y-37885738D01*
X109490023Y-37790500D01*
X109632880Y-37742880D01*
X109728119Y-37742880D01*
X109870976Y-37790500D01*
X109918595Y-37838119D01*
X110347166Y-38742880D02*
X110347166Y-37742880D01*
X110680500Y-38457166D01*
X111013833Y-37742880D01*
X111013833Y-38742880D01*
X111490023Y-38742880D02*
X111490023Y-37742880D01*
X111728119Y-37742880D01*
X111870976Y-37790500D01*
X111966214Y-37885738D01*
X112013833Y-37980976D01*
X112061452Y-38171452D01*
X112061452Y-38314309D01*
X112013833Y-38504785D01*
X111966214Y-38600023D01*
X111870976Y-38695261D01*
X111728119Y-38742880D01*
X111490023Y-38742880D01*
X109347166Y-43457761D02*
X109490023Y-43505380D01*
X109728119Y-43505380D01*
X109823357Y-43457761D01*
X109870976Y-43410142D01*
X109918595Y-43314904D01*
X109918595Y-43219666D01*
X109870976Y-43124428D01*
X109823357Y-43076809D01*
X109728119Y-43029190D01*
X109537642Y-42981571D01*
X109442404Y-42933952D01*
X109394785Y-42886333D01*
X109347166Y-42791095D01*
X109347166Y-42695857D01*
X109394785Y-42600619D01*
X109442404Y-42553000D01*
X109537642Y-42505380D01*
X109775738Y-42505380D01*
X109918595Y-42553000D01*
X110251928Y-42505380D02*
X110490023Y-43505380D01*
X110680500Y-42791095D01*
X110870976Y-43505380D01*
X111109071Y-42505380D01*
X112013833Y-43505380D02*
X111442404Y-43505380D01*
X111728119Y-43505380D02*
X111728119Y-42505380D01*
X111632880Y-42648238D01*
X111537642Y-42743476D01*
X111442404Y-42791095D01*
X71597142Y-39568380D02*
X71597142Y-38568380D01*
X71978095Y-38568380D01*
X72073333Y-38616000D01*
X72120952Y-38663619D01*
X72168571Y-38758857D01*
X72168571Y-38901714D01*
X72120952Y-38996952D01*
X72073333Y-39044571D01*
X71978095Y-39092190D01*
X71597142Y-39092190D01*
X72597142Y-39568380D02*
X72597142Y-38568380D01*
X73644761Y-39473142D02*
X73597142Y-39520761D01*
X73454285Y-39568380D01*
X73359047Y-39568380D01*
X73216190Y-39520761D01*
X73120952Y-39425523D01*
X73073333Y-39330285D01*
X73025714Y-39139809D01*
X73025714Y-38996952D01*
X73073333Y-38806476D01*
X73120952Y-38711238D01*
X73216190Y-38616000D01*
X73359047Y-38568380D01*
X73454285Y-38568380D01*
X73597142Y-38616000D01*
X73644761Y-38663619D01*
X74597142Y-39568380D02*
X74025714Y-39568380D01*
X74311428Y-39568380D02*
X74311428Y-38568380D01*
X74216190Y-38711238D01*
X74120952Y-38806476D01*
X74025714Y-38854095D01*
X75168571Y-38996952D02*
X75073333Y-38949333D01*
X75025714Y-38901714D01*
X74978095Y-38806476D01*
X74978095Y-38758857D01*
X75025714Y-38663619D01*
X75073333Y-38616000D01*
X75168571Y-38568380D01*
X75359047Y-38568380D01*
X75454285Y-38616000D01*
X75501904Y-38663619D01*
X75549523Y-38758857D01*
X75549523Y-38806476D01*
X75501904Y-38901714D01*
X75454285Y-38949333D01*
X75359047Y-38996952D01*
X75168571Y-38996952D01*
X75073333Y-39044571D01*
X75025714Y-39092190D01*
X74978095Y-39187428D01*
X74978095Y-39377904D01*
X75025714Y-39473142D01*
X75073333Y-39520761D01*
X75168571Y-39568380D01*
X75359047Y-39568380D01*
X75454285Y-39520761D01*
X75501904Y-39473142D01*
X75549523Y-39377904D01*
X75549523Y-39187428D01*
X75501904Y-39092190D01*
X75454285Y-39044571D01*
X75359047Y-38996952D01*
X76311428Y-39044571D02*
X75978095Y-39044571D01*
X75978095Y-39568380D02*
X75978095Y-38568380D01*
X76454285Y-38568380D01*
X76787619Y-38663619D02*
X76835238Y-38616000D01*
X76930476Y-38568380D01*
X77168571Y-38568380D01*
X77263809Y-38616000D01*
X77311428Y-38663619D01*
X77359047Y-38758857D01*
X77359047Y-38854095D01*
X77311428Y-38996952D01*
X76740000Y-39568380D01*
X77359047Y-39568380D01*
X78216190Y-38568380D02*
X78025714Y-38568380D01*
X77930476Y-38616000D01*
X77882857Y-38663619D01*
X77787619Y-38806476D01*
X77740000Y-38996952D01*
X77740000Y-39377904D01*
X77787619Y-39473142D01*
X77835238Y-39520761D01*
X77930476Y-39568380D01*
X78120952Y-39568380D01*
X78216190Y-39520761D01*
X78263809Y-39473142D01*
X78311428Y-39377904D01*
X78311428Y-39139809D01*
X78263809Y-39044571D01*
X78216190Y-38996952D01*
X78120952Y-38949333D01*
X77930476Y-38949333D01*
X77835238Y-38996952D01*
X77787619Y-39044571D01*
X77740000Y-39139809D01*
X78740000Y-39568380D02*
X78740000Y-38568380D01*
X79311428Y-39568380D02*
X78882857Y-38996952D01*
X79311428Y-38568380D02*
X78740000Y-39139809D01*
X79692380Y-38663619D02*
X79740000Y-38616000D01*
X79835238Y-38568380D01*
X80073333Y-38568380D01*
X80168571Y-38616000D01*
X80216190Y-38663619D01*
X80263809Y-38758857D01*
X80263809Y-38854095D01*
X80216190Y-38996952D01*
X79644761Y-39568380D01*
X80263809Y-39568380D01*
X80644761Y-38663619D02*
X80692380Y-38616000D01*
X80787619Y-38568380D01*
X81025714Y-38568380D01*
X81120952Y-38616000D01*
X81168571Y-38663619D01*
X81216190Y-38758857D01*
X81216190Y-38854095D01*
X81168571Y-38996952D01*
X80597142Y-39568380D01*
X81216190Y-39568380D01*
X81644761Y-39187428D02*
X82406666Y-39187428D01*
X82882857Y-39568380D02*
X82882857Y-38568380D01*
X84073333Y-38520761D02*
X83216190Y-39806476D01*
X84406666Y-39568380D02*
X84406666Y-38568380D01*
X84739999Y-39282666D01*
X85073333Y-38568380D01*
X85073333Y-39568380D01*
X86025714Y-39568380D02*
X85549523Y-39568380D01*
X85549523Y-38568380D01*
X50673214Y-25344380D02*
X50673214Y-24344380D01*
X51054166Y-24344380D01*
X51149404Y-24392000D01*
X51197023Y-24439619D01*
X51244642Y-24534857D01*
X51244642Y-24677714D01*
X51197023Y-24772952D01*
X51149404Y-24820571D01*
X51054166Y-24868190D01*
X50673214Y-24868190D01*
X52244642Y-25249142D02*
X52197023Y-25296761D01*
X52054166Y-25344380D01*
X51958928Y-25344380D01*
X51816071Y-25296761D01*
X51720833Y-25201523D01*
X51673214Y-25106285D01*
X51625595Y-24915809D01*
X51625595Y-24772952D01*
X51673214Y-24582476D01*
X51720833Y-24487238D01*
X51816071Y-24392000D01*
X51958928Y-24344380D01*
X52054166Y-24344380D01*
X52197023Y-24392000D01*
X52244642Y-24439619D01*
X52577976Y-24344380D02*
X53197023Y-24344380D01*
X52863690Y-24725333D01*
X53006547Y-24725333D01*
X53101785Y-24772952D01*
X53149404Y-24820571D01*
X53197023Y-24915809D01*
X53197023Y-25153904D01*
X53149404Y-25249142D01*
X53101785Y-25296761D01*
X53006547Y-25344380D01*
X52720833Y-25344380D01*
X52625595Y-25296761D01*
X52577976Y-25249142D01*
X54054166Y-24677714D02*
X54054166Y-25344380D01*
X53816071Y-24296761D02*
X53577976Y-25011047D01*
X54197023Y-25011047D01*
X22542666Y-21236380D02*
X22542666Y-20236380D01*
X22923619Y-20236380D01*
X23018857Y-20284000D01*
X23066476Y-20331619D01*
X23114095Y-20426857D01*
X23114095Y-20569714D01*
X23066476Y-20664952D01*
X23018857Y-20712571D01*
X22923619Y-20760190D01*
X22542666Y-20760190D01*
X23447428Y-20236380D02*
X23685523Y-21236380D01*
X23876000Y-20522095D01*
X24066476Y-21236380D01*
X24304571Y-20236380D01*
X25256952Y-21236380D02*
X24923619Y-20760190D01*
X24685523Y-21236380D02*
X24685523Y-20236380D01*
X25066476Y-20236380D01*
X25161714Y-20284000D01*
X25209333Y-20331619D01*
X25256952Y-20426857D01*
X25256952Y-20569714D01*
X25209333Y-20664952D01*
X25161714Y-20712571D01*
X25066476Y-20760190D01*
X24685523Y-20760190D01*
X23542666Y-26376380D02*
X23542666Y-27090666D01*
X23495047Y-27233523D01*
X23399809Y-27328761D01*
X23256952Y-27376380D01*
X23161714Y-27376380D01*
X23971238Y-26471619D02*
X24018857Y-26424000D01*
X24114095Y-26376380D01*
X24352190Y-26376380D01*
X24447428Y-26424000D01*
X24495047Y-26471619D01*
X24542666Y-26566857D01*
X24542666Y-26662095D01*
X24495047Y-26804952D01*
X23923619Y-27376380D01*
X24542666Y-27376380D01*
D13*
X32984285Y-36051928D02*
X32984285Y-36218595D01*
X33246190Y-36218595D02*
X32746190Y-36218595D01*
X32746190Y-35980500D01*
X33246190Y-35790023D02*
X32746190Y-35790023D01*
X32746190Y-35670976D01*
X32770000Y-35599547D01*
X32817619Y-35551928D01*
X32865238Y-35528119D01*
X32960476Y-35504309D01*
X33031904Y-35504309D01*
X33127142Y-35528119D01*
X33174761Y-35551928D01*
X33222380Y-35599547D01*
X33246190Y-35670976D01*
X33246190Y-35790023D01*
X33246190Y-35290023D02*
X32746190Y-35290023D01*
X32746190Y-35170976D01*
X32770000Y-35099547D01*
X32817619Y-35051928D01*
X32865238Y-35028119D01*
X32960476Y-35004309D01*
X33031904Y-35004309D01*
X33127142Y-35028119D01*
X33174761Y-35051928D01*
X33222380Y-35099547D01*
X33246190Y-35170976D01*
X33246190Y-35290023D01*
X32746190Y-34551928D02*
X32746190Y-34790023D01*
X32984285Y-34813833D01*
X32960476Y-34790023D01*
X32936666Y-34742404D01*
X32936666Y-34623357D01*
X32960476Y-34575738D01*
X32984285Y-34551928D01*
X33031904Y-34528119D01*
X33150952Y-34528119D01*
X33198571Y-34551928D01*
X33222380Y-34575738D01*
X33246190Y-34623357D01*
X33246190Y-34742404D01*
X33222380Y-34790023D01*
X33198571Y-34813833D01*
X32746190Y-34218595D02*
X32746190Y-34170976D01*
X32770000Y-34123357D01*
X32793809Y-34099547D01*
X32841428Y-34075738D01*
X32936666Y-34051928D01*
X33055714Y-34051928D01*
X33150952Y-34075738D01*
X33198571Y-34099547D01*
X33222380Y-34123357D01*
X33246190Y-34170976D01*
X33246190Y-34218595D01*
X33222380Y-34266214D01*
X33198571Y-34290023D01*
X33150952Y-34313833D01*
X33055714Y-34337642D01*
X32936666Y-34337642D01*
X32841428Y-34313833D01*
X32793809Y-34290023D01*
X32770000Y-34266214D01*
X32746190Y-34218595D01*
X33293809Y-33956690D02*
X33293809Y-33575738D01*
X32746190Y-33218595D02*
X32746190Y-33456690D01*
X32984285Y-33480500D01*
X32960476Y-33456690D01*
X32936666Y-33409071D01*
X32936666Y-33290023D01*
X32960476Y-33242404D01*
X32984285Y-33218595D01*
X33031904Y-33194785D01*
X33150952Y-33194785D01*
X33198571Y-33218595D01*
X33222380Y-33242404D01*
X33246190Y-33290023D01*
X33246190Y-33409071D01*
X33222380Y-33456690D01*
X33198571Y-33480500D01*
X32746190Y-32885261D02*
X32746190Y-32837642D01*
X32770000Y-32790023D01*
X32793809Y-32766214D01*
X32841428Y-32742404D01*
X32936666Y-32718595D01*
X33055714Y-32718595D01*
X33150952Y-32742404D01*
X33198571Y-32766214D01*
X33222380Y-32790023D01*
X33246190Y-32837642D01*
X33246190Y-32885261D01*
X33222380Y-32932880D01*
X33198571Y-32956690D01*
X33150952Y-32980500D01*
X33055714Y-33004309D01*
X32936666Y-33004309D01*
X32841428Y-32980500D01*
X32793809Y-32956690D01*
X32770000Y-32932880D01*
X32746190Y-32885261D01*
X35524285Y-35988428D02*
X35524285Y-36155095D01*
X35786190Y-36155095D02*
X35286190Y-36155095D01*
X35286190Y-35917000D01*
X35786190Y-35726523D02*
X35286190Y-35726523D01*
X35286190Y-35607476D01*
X35310000Y-35536047D01*
X35357619Y-35488428D01*
X35405238Y-35464619D01*
X35500476Y-35440809D01*
X35571904Y-35440809D01*
X35667142Y-35464619D01*
X35714761Y-35488428D01*
X35762380Y-35536047D01*
X35786190Y-35607476D01*
X35786190Y-35726523D01*
X35786190Y-35226523D02*
X35286190Y-35226523D01*
X35286190Y-35107476D01*
X35310000Y-35036047D01*
X35357619Y-34988428D01*
X35405238Y-34964619D01*
X35500476Y-34940809D01*
X35571904Y-34940809D01*
X35667142Y-34964619D01*
X35714761Y-34988428D01*
X35762380Y-35036047D01*
X35786190Y-35107476D01*
X35786190Y-35226523D01*
X35286190Y-34488428D02*
X35286190Y-34726523D01*
X35524285Y-34750333D01*
X35500476Y-34726523D01*
X35476666Y-34678904D01*
X35476666Y-34559857D01*
X35500476Y-34512238D01*
X35524285Y-34488428D01*
X35571904Y-34464619D01*
X35690952Y-34464619D01*
X35738571Y-34488428D01*
X35762380Y-34512238D01*
X35786190Y-34559857D01*
X35786190Y-34678904D01*
X35762380Y-34726523D01*
X35738571Y-34750333D01*
X35286190Y-34155095D02*
X35286190Y-34107476D01*
X35310000Y-34059857D01*
X35333809Y-34036047D01*
X35381428Y-34012238D01*
X35476666Y-33988428D01*
X35595714Y-33988428D01*
X35690952Y-34012238D01*
X35738571Y-34036047D01*
X35762380Y-34059857D01*
X35786190Y-34107476D01*
X35786190Y-34155095D01*
X35762380Y-34202714D01*
X35738571Y-34226523D01*
X35690952Y-34250333D01*
X35595714Y-34274142D01*
X35476666Y-34274142D01*
X35381428Y-34250333D01*
X35333809Y-34226523D01*
X35310000Y-34202714D01*
X35286190Y-34155095D01*
X35833809Y-33893190D02*
X35833809Y-33512238D01*
X35452857Y-33178904D02*
X35786190Y-33178904D01*
X35262380Y-33297952D02*
X35619523Y-33417000D01*
X35619523Y-33107476D01*
X35500476Y-32845571D02*
X35476666Y-32893190D01*
X35452857Y-32917000D01*
X35405238Y-32940809D01*
X35381428Y-32940809D01*
X35333809Y-32917000D01*
X35310000Y-32893190D01*
X35286190Y-32845571D01*
X35286190Y-32750333D01*
X35310000Y-32702714D01*
X35333809Y-32678904D01*
X35381428Y-32655095D01*
X35405238Y-32655095D01*
X35452857Y-32678904D01*
X35476666Y-32702714D01*
X35500476Y-32750333D01*
X35500476Y-32845571D01*
X35524285Y-32893190D01*
X35548095Y-32917000D01*
X35595714Y-32940809D01*
X35690952Y-32940809D01*
X35738571Y-32917000D01*
X35762380Y-32893190D01*
X35786190Y-32845571D01*
X35786190Y-32750333D01*
X35762380Y-32702714D01*
X35738571Y-32678904D01*
X35690952Y-32655095D01*
X35595714Y-32655095D01*
X35548095Y-32678904D01*
X35524285Y-32702714D01*
X35500476Y-32750333D01*
X55844285Y-35861428D02*
X55844285Y-36028095D01*
X56106190Y-36028095D02*
X55606190Y-36028095D01*
X55606190Y-35790000D01*
X56106190Y-35599523D02*
X55606190Y-35599523D01*
X55606190Y-35480476D01*
X55630000Y-35409047D01*
X55677619Y-35361428D01*
X55725238Y-35337619D01*
X55820476Y-35313809D01*
X55891904Y-35313809D01*
X55987142Y-35337619D01*
X56034761Y-35361428D01*
X56082380Y-35409047D01*
X56106190Y-35480476D01*
X56106190Y-35599523D01*
X56106190Y-35099523D02*
X55606190Y-35099523D01*
X55606190Y-34980476D01*
X55630000Y-34909047D01*
X55677619Y-34861428D01*
X55725238Y-34837619D01*
X55820476Y-34813809D01*
X55891904Y-34813809D01*
X55987142Y-34837619D01*
X56034761Y-34861428D01*
X56082380Y-34909047D01*
X56106190Y-34980476D01*
X56106190Y-35099523D01*
X55606190Y-34361428D02*
X55606190Y-34599523D01*
X55844285Y-34623333D01*
X55820476Y-34599523D01*
X55796666Y-34551904D01*
X55796666Y-34432857D01*
X55820476Y-34385238D01*
X55844285Y-34361428D01*
X55891904Y-34337619D01*
X56010952Y-34337619D01*
X56058571Y-34361428D01*
X56082380Y-34385238D01*
X56106190Y-34432857D01*
X56106190Y-34551904D01*
X56082380Y-34599523D01*
X56058571Y-34623333D01*
X55606190Y-34028095D02*
X55606190Y-33980476D01*
X55630000Y-33932857D01*
X55653809Y-33909047D01*
X55701428Y-33885238D01*
X55796666Y-33861428D01*
X55915714Y-33861428D01*
X56010952Y-33885238D01*
X56058571Y-33909047D01*
X56082380Y-33932857D01*
X56106190Y-33980476D01*
X56106190Y-34028095D01*
X56082380Y-34075714D01*
X56058571Y-34099523D01*
X56010952Y-34123333D01*
X55915714Y-34147142D01*
X55796666Y-34147142D01*
X55701428Y-34123333D01*
X55653809Y-34099523D01*
X55630000Y-34075714D01*
X55606190Y-34028095D01*
X56153809Y-33766190D02*
X56153809Y-33385238D01*
X55606190Y-33313809D02*
X55606190Y-33004285D01*
X55796666Y-33170952D01*
X55796666Y-33099523D01*
X55820476Y-33051904D01*
X55844285Y-33028095D01*
X55891904Y-33004285D01*
X56010952Y-33004285D01*
X56058571Y-33028095D01*
X56082380Y-33051904D01*
X56106190Y-33099523D01*
X56106190Y-33242380D01*
X56082380Y-33290000D01*
X56058571Y-33313809D01*
X55653809Y-32813809D02*
X55630000Y-32790000D01*
X55606190Y-32742380D01*
X55606190Y-32623333D01*
X55630000Y-32575714D01*
X55653809Y-32551904D01*
X55701428Y-32528095D01*
X55749047Y-32528095D01*
X55820476Y-32551904D01*
X56106190Y-32837619D01*
X56106190Y-32528095D01*
X58384285Y-35924928D02*
X58384285Y-36091595D01*
X58646190Y-36091595D02*
X58146190Y-36091595D01*
X58146190Y-35853500D01*
X58646190Y-35663023D02*
X58146190Y-35663023D01*
X58146190Y-35543976D01*
X58170000Y-35472547D01*
X58217619Y-35424928D01*
X58265238Y-35401119D01*
X58360476Y-35377309D01*
X58431904Y-35377309D01*
X58527142Y-35401119D01*
X58574761Y-35424928D01*
X58622380Y-35472547D01*
X58646190Y-35543976D01*
X58646190Y-35663023D01*
X58646190Y-35163023D02*
X58146190Y-35163023D01*
X58146190Y-35043976D01*
X58170000Y-34972547D01*
X58217619Y-34924928D01*
X58265238Y-34901119D01*
X58360476Y-34877309D01*
X58431904Y-34877309D01*
X58527142Y-34901119D01*
X58574761Y-34924928D01*
X58622380Y-34972547D01*
X58646190Y-35043976D01*
X58646190Y-35163023D01*
X58146190Y-34424928D02*
X58146190Y-34663023D01*
X58384285Y-34686833D01*
X58360476Y-34663023D01*
X58336666Y-34615404D01*
X58336666Y-34496357D01*
X58360476Y-34448738D01*
X58384285Y-34424928D01*
X58431904Y-34401119D01*
X58550952Y-34401119D01*
X58598571Y-34424928D01*
X58622380Y-34448738D01*
X58646190Y-34496357D01*
X58646190Y-34615404D01*
X58622380Y-34663023D01*
X58598571Y-34686833D01*
X58146190Y-34091595D02*
X58146190Y-34043976D01*
X58170000Y-33996357D01*
X58193809Y-33972547D01*
X58241428Y-33948738D01*
X58336666Y-33924928D01*
X58455714Y-33924928D01*
X58550952Y-33948738D01*
X58598571Y-33972547D01*
X58622380Y-33996357D01*
X58646190Y-34043976D01*
X58646190Y-34091595D01*
X58622380Y-34139214D01*
X58598571Y-34163023D01*
X58550952Y-34186833D01*
X58455714Y-34210642D01*
X58336666Y-34210642D01*
X58241428Y-34186833D01*
X58193809Y-34163023D01*
X58170000Y-34139214D01*
X58146190Y-34091595D01*
X58693809Y-33829690D02*
X58693809Y-33448738D01*
X58146190Y-33377309D02*
X58146190Y-33067785D01*
X58336666Y-33234452D01*
X58336666Y-33163023D01*
X58360476Y-33115404D01*
X58384285Y-33091595D01*
X58431904Y-33067785D01*
X58550952Y-33067785D01*
X58598571Y-33091595D01*
X58622380Y-33115404D01*
X58646190Y-33163023D01*
X58646190Y-33305880D01*
X58622380Y-33353500D01*
X58598571Y-33377309D01*
X58146190Y-32758261D02*
X58146190Y-32710642D01*
X58170000Y-32663023D01*
X58193809Y-32639214D01*
X58241428Y-32615404D01*
X58336666Y-32591595D01*
X58455714Y-32591595D01*
X58550952Y-32615404D01*
X58598571Y-32639214D01*
X58622380Y-32663023D01*
X58646190Y-32710642D01*
X58646190Y-32758261D01*
X58622380Y-32805880D01*
X58598571Y-32829690D01*
X58550952Y-32853500D01*
X58455714Y-32877309D01*
X58336666Y-32877309D01*
X58241428Y-32853500D01*
X58193809Y-32829690D01*
X58170000Y-32805880D01*
X58146190Y-32758261D01*
X66004285Y-35988428D02*
X66004285Y-36155095D01*
X66266190Y-36155095D02*
X65766190Y-36155095D01*
X65766190Y-35917000D01*
X66266190Y-35726523D02*
X65766190Y-35726523D01*
X65766190Y-35607476D01*
X65790000Y-35536047D01*
X65837619Y-35488428D01*
X65885238Y-35464619D01*
X65980476Y-35440809D01*
X66051904Y-35440809D01*
X66147142Y-35464619D01*
X66194761Y-35488428D01*
X66242380Y-35536047D01*
X66266190Y-35607476D01*
X66266190Y-35726523D01*
X66266190Y-35226523D02*
X65766190Y-35226523D01*
X65766190Y-35107476D01*
X65790000Y-35036047D01*
X65837619Y-34988428D01*
X65885238Y-34964619D01*
X65980476Y-34940809D01*
X66051904Y-34940809D01*
X66147142Y-34964619D01*
X66194761Y-34988428D01*
X66242380Y-35036047D01*
X66266190Y-35107476D01*
X66266190Y-35226523D01*
X65766190Y-34488428D02*
X65766190Y-34726523D01*
X66004285Y-34750333D01*
X65980476Y-34726523D01*
X65956666Y-34678904D01*
X65956666Y-34559857D01*
X65980476Y-34512238D01*
X66004285Y-34488428D01*
X66051904Y-34464619D01*
X66170952Y-34464619D01*
X66218571Y-34488428D01*
X66242380Y-34512238D01*
X66266190Y-34559857D01*
X66266190Y-34678904D01*
X66242380Y-34726523D01*
X66218571Y-34750333D01*
X65766190Y-34155095D02*
X65766190Y-34107476D01*
X65790000Y-34059857D01*
X65813809Y-34036047D01*
X65861428Y-34012238D01*
X65956666Y-33988428D01*
X66075714Y-33988428D01*
X66170952Y-34012238D01*
X66218571Y-34036047D01*
X66242380Y-34059857D01*
X66266190Y-34107476D01*
X66266190Y-34155095D01*
X66242380Y-34202714D01*
X66218571Y-34226523D01*
X66170952Y-34250333D01*
X66075714Y-34274142D01*
X65956666Y-34274142D01*
X65861428Y-34250333D01*
X65813809Y-34226523D01*
X65790000Y-34202714D01*
X65766190Y-34155095D01*
X66313809Y-33893190D02*
X66313809Y-33512238D01*
X65813809Y-33417000D02*
X65790000Y-33393190D01*
X65766190Y-33345571D01*
X65766190Y-33226523D01*
X65790000Y-33178904D01*
X65813809Y-33155095D01*
X65861428Y-33131285D01*
X65909047Y-33131285D01*
X65980476Y-33155095D01*
X66266190Y-33440809D01*
X66266190Y-33131285D01*
X65932857Y-32702714D02*
X66266190Y-32702714D01*
X65742380Y-32821761D02*
X66099523Y-32940809D01*
X66099523Y-32631285D01*
X72290785Y-36051928D02*
X72290785Y-36218595D01*
X72552690Y-36218595D02*
X72052690Y-36218595D01*
X72052690Y-35980500D01*
X72552690Y-35790023D02*
X72052690Y-35790023D01*
X72052690Y-35670976D01*
X72076500Y-35599547D01*
X72124119Y-35551928D01*
X72171738Y-35528119D01*
X72266976Y-35504309D01*
X72338404Y-35504309D01*
X72433642Y-35528119D01*
X72481261Y-35551928D01*
X72528880Y-35599547D01*
X72552690Y-35670976D01*
X72552690Y-35790023D01*
X72552690Y-35290023D02*
X72052690Y-35290023D01*
X72052690Y-35170976D01*
X72076500Y-35099547D01*
X72124119Y-35051928D01*
X72171738Y-35028119D01*
X72266976Y-35004309D01*
X72338404Y-35004309D01*
X72433642Y-35028119D01*
X72481261Y-35051928D01*
X72528880Y-35099547D01*
X72552690Y-35170976D01*
X72552690Y-35290023D01*
X72052690Y-34551928D02*
X72052690Y-34790023D01*
X72290785Y-34813833D01*
X72266976Y-34790023D01*
X72243166Y-34742404D01*
X72243166Y-34623357D01*
X72266976Y-34575738D01*
X72290785Y-34551928D01*
X72338404Y-34528119D01*
X72457452Y-34528119D01*
X72505071Y-34551928D01*
X72528880Y-34575738D01*
X72552690Y-34623357D01*
X72552690Y-34742404D01*
X72528880Y-34790023D01*
X72505071Y-34813833D01*
X72052690Y-34218595D02*
X72052690Y-34170976D01*
X72076500Y-34123357D01*
X72100309Y-34099547D01*
X72147928Y-34075738D01*
X72243166Y-34051928D01*
X72362214Y-34051928D01*
X72457452Y-34075738D01*
X72505071Y-34099547D01*
X72528880Y-34123357D01*
X72552690Y-34170976D01*
X72552690Y-34218595D01*
X72528880Y-34266214D01*
X72505071Y-34290023D01*
X72457452Y-34313833D01*
X72362214Y-34337642D01*
X72243166Y-34337642D01*
X72147928Y-34313833D01*
X72100309Y-34290023D01*
X72076500Y-34266214D01*
X72052690Y-34218595D01*
X72600309Y-33956690D02*
X72600309Y-33575738D01*
X72552690Y-33194785D02*
X72552690Y-33480500D01*
X72552690Y-33337642D02*
X72052690Y-33337642D01*
X72124119Y-33385261D01*
X72171738Y-33432880D01*
X72195547Y-33480500D01*
X72052690Y-32766214D02*
X72052690Y-32861452D01*
X72076500Y-32909071D01*
X72100309Y-32932880D01*
X72171738Y-32980500D01*
X72266976Y-33004309D01*
X72457452Y-33004309D01*
X72505071Y-32980500D01*
X72528880Y-32956690D01*
X72552690Y-32909071D01*
X72552690Y-32813833D01*
X72528880Y-32766214D01*
X72505071Y-32742404D01*
X72457452Y-32718595D01*
X72338404Y-32718595D01*
X72290785Y-32742404D01*
X72266976Y-32766214D01*
X72243166Y-32813833D01*
X72243166Y-32909071D01*
X72266976Y-32956690D01*
X72290785Y-32980500D01*
X72338404Y-33004309D01*
X83784285Y-36051928D02*
X83784285Y-36218595D01*
X84046190Y-36218595D02*
X83546190Y-36218595D01*
X83546190Y-35980500D01*
X84046190Y-35790023D02*
X83546190Y-35790023D01*
X83546190Y-35670976D01*
X83570000Y-35599547D01*
X83617619Y-35551928D01*
X83665238Y-35528119D01*
X83760476Y-35504309D01*
X83831904Y-35504309D01*
X83927142Y-35528119D01*
X83974761Y-35551928D01*
X84022380Y-35599547D01*
X84046190Y-35670976D01*
X84046190Y-35790023D01*
X84046190Y-35290023D02*
X83546190Y-35290023D01*
X83546190Y-35170976D01*
X83570000Y-35099547D01*
X83617619Y-35051928D01*
X83665238Y-35028119D01*
X83760476Y-35004309D01*
X83831904Y-35004309D01*
X83927142Y-35028119D01*
X83974761Y-35051928D01*
X84022380Y-35099547D01*
X84046190Y-35170976D01*
X84046190Y-35290023D01*
X83546190Y-34551928D02*
X83546190Y-34790023D01*
X83784285Y-34813833D01*
X83760476Y-34790023D01*
X83736666Y-34742404D01*
X83736666Y-34623357D01*
X83760476Y-34575738D01*
X83784285Y-34551928D01*
X83831904Y-34528119D01*
X83950952Y-34528119D01*
X83998571Y-34551928D01*
X84022380Y-34575738D01*
X84046190Y-34623357D01*
X84046190Y-34742404D01*
X84022380Y-34790023D01*
X83998571Y-34813833D01*
X83546190Y-34218595D02*
X83546190Y-34170976D01*
X83570000Y-34123357D01*
X83593809Y-34099547D01*
X83641428Y-34075738D01*
X83736666Y-34051928D01*
X83855714Y-34051928D01*
X83950952Y-34075738D01*
X83998571Y-34099547D01*
X84022380Y-34123357D01*
X84046190Y-34170976D01*
X84046190Y-34218595D01*
X84022380Y-34266214D01*
X83998571Y-34290023D01*
X83950952Y-34313833D01*
X83855714Y-34337642D01*
X83736666Y-34337642D01*
X83641428Y-34313833D01*
X83593809Y-34290023D01*
X83570000Y-34266214D01*
X83546190Y-34218595D01*
X84093809Y-33956690D02*
X84093809Y-33575738D01*
X84046190Y-33194785D02*
X84046190Y-33480500D01*
X84046190Y-33337642D02*
X83546190Y-33337642D01*
X83617619Y-33385261D01*
X83665238Y-33432880D01*
X83689047Y-33480500D01*
X83546190Y-32885261D02*
X83546190Y-32837642D01*
X83570000Y-32790023D01*
X83593809Y-32766214D01*
X83641428Y-32742404D01*
X83736666Y-32718595D01*
X83855714Y-32718595D01*
X83950952Y-32742404D01*
X83998571Y-32766214D01*
X84022380Y-32790023D01*
X84046190Y-32837642D01*
X84046190Y-32885261D01*
X84022380Y-32932880D01*
X83998571Y-32956690D01*
X83950952Y-32980500D01*
X83855714Y-33004309D01*
X83736666Y-33004309D01*
X83641428Y-32980500D01*
X83593809Y-32956690D01*
X83570000Y-32932880D01*
X83546190Y-32885261D01*
X86387785Y-35940833D02*
X86387785Y-36107500D01*
X86649690Y-36107500D02*
X86149690Y-36107500D01*
X86149690Y-35869404D01*
X86649690Y-35678928D02*
X86149690Y-35678928D01*
X86149690Y-35559880D01*
X86173500Y-35488452D01*
X86221119Y-35440833D01*
X86268738Y-35417023D01*
X86363976Y-35393214D01*
X86435404Y-35393214D01*
X86530642Y-35417023D01*
X86578261Y-35440833D01*
X86625880Y-35488452D01*
X86649690Y-35559880D01*
X86649690Y-35678928D01*
X86649690Y-35178928D02*
X86149690Y-35178928D01*
X86149690Y-35059880D01*
X86173500Y-34988452D01*
X86221119Y-34940833D01*
X86268738Y-34917023D01*
X86363976Y-34893214D01*
X86435404Y-34893214D01*
X86530642Y-34917023D01*
X86578261Y-34940833D01*
X86625880Y-34988452D01*
X86649690Y-35059880D01*
X86649690Y-35178928D01*
X86149690Y-34440833D02*
X86149690Y-34678928D01*
X86387785Y-34702738D01*
X86363976Y-34678928D01*
X86340166Y-34631309D01*
X86340166Y-34512261D01*
X86363976Y-34464642D01*
X86387785Y-34440833D01*
X86435404Y-34417023D01*
X86554452Y-34417023D01*
X86602071Y-34440833D01*
X86625880Y-34464642D01*
X86649690Y-34512261D01*
X86649690Y-34631309D01*
X86625880Y-34678928D01*
X86602071Y-34702738D01*
X86149690Y-34107500D02*
X86149690Y-34059880D01*
X86173500Y-34012261D01*
X86197309Y-33988452D01*
X86244928Y-33964642D01*
X86340166Y-33940833D01*
X86459214Y-33940833D01*
X86554452Y-33964642D01*
X86602071Y-33988452D01*
X86625880Y-34012261D01*
X86649690Y-34059880D01*
X86649690Y-34107500D01*
X86625880Y-34155119D01*
X86602071Y-34178928D01*
X86554452Y-34202738D01*
X86459214Y-34226547D01*
X86340166Y-34226547D01*
X86244928Y-34202738D01*
X86197309Y-34178928D01*
X86173500Y-34155119D01*
X86149690Y-34107500D01*
X86697309Y-33845595D02*
X86697309Y-33464642D01*
X86363976Y-33274166D02*
X86340166Y-33321785D01*
X86316357Y-33345595D01*
X86268738Y-33369404D01*
X86244928Y-33369404D01*
X86197309Y-33345595D01*
X86173500Y-33321785D01*
X86149690Y-33274166D01*
X86149690Y-33178928D01*
X86173500Y-33131309D01*
X86197309Y-33107500D01*
X86244928Y-33083690D01*
X86268738Y-33083690D01*
X86316357Y-33107500D01*
X86340166Y-33131309D01*
X86363976Y-33178928D01*
X86363976Y-33274166D01*
X86387785Y-33321785D01*
X86411595Y-33345595D01*
X86459214Y-33369404D01*
X86554452Y-33369404D01*
X86602071Y-33345595D01*
X86625880Y-33321785D01*
X86649690Y-33274166D01*
X86649690Y-33178928D01*
X86625880Y-33131309D01*
X86602071Y-33107500D01*
X86554452Y-33083690D01*
X86459214Y-33083690D01*
X86411595Y-33107500D01*
X86387785Y-33131309D01*
X86363976Y-33178928D01*
X88864285Y-36004333D02*
X88864285Y-36171000D01*
X89126190Y-36171000D02*
X88626190Y-36171000D01*
X88626190Y-35932904D01*
X89126190Y-35742428D02*
X88626190Y-35742428D01*
X88626190Y-35623380D01*
X88650000Y-35551952D01*
X88697619Y-35504333D01*
X88745238Y-35480523D01*
X88840476Y-35456714D01*
X88911904Y-35456714D01*
X89007142Y-35480523D01*
X89054761Y-35504333D01*
X89102380Y-35551952D01*
X89126190Y-35623380D01*
X89126190Y-35742428D01*
X89126190Y-35242428D02*
X88626190Y-35242428D01*
X88626190Y-35123380D01*
X88650000Y-35051952D01*
X88697619Y-35004333D01*
X88745238Y-34980523D01*
X88840476Y-34956714D01*
X88911904Y-34956714D01*
X89007142Y-34980523D01*
X89054761Y-35004333D01*
X89102380Y-35051952D01*
X89126190Y-35123380D01*
X89126190Y-35242428D01*
X88626190Y-34504333D02*
X88626190Y-34742428D01*
X88864285Y-34766238D01*
X88840476Y-34742428D01*
X88816666Y-34694809D01*
X88816666Y-34575761D01*
X88840476Y-34528142D01*
X88864285Y-34504333D01*
X88911904Y-34480523D01*
X89030952Y-34480523D01*
X89078571Y-34504333D01*
X89102380Y-34528142D01*
X89126190Y-34575761D01*
X89126190Y-34694809D01*
X89102380Y-34742428D01*
X89078571Y-34766238D01*
X88626190Y-34171000D02*
X88626190Y-34123380D01*
X88650000Y-34075761D01*
X88673809Y-34051952D01*
X88721428Y-34028142D01*
X88816666Y-34004333D01*
X88935714Y-34004333D01*
X89030952Y-34028142D01*
X89078571Y-34051952D01*
X89102380Y-34075761D01*
X89126190Y-34123380D01*
X89126190Y-34171000D01*
X89102380Y-34218619D01*
X89078571Y-34242428D01*
X89030952Y-34266238D01*
X88935714Y-34290047D01*
X88816666Y-34290047D01*
X88721428Y-34266238D01*
X88673809Y-34242428D01*
X88650000Y-34218619D01*
X88626190Y-34171000D01*
X89173809Y-33909095D02*
X89173809Y-33528142D01*
X88626190Y-33194809D02*
X88626190Y-33290047D01*
X88650000Y-33337666D01*
X88673809Y-33361476D01*
X88745238Y-33409095D01*
X88840476Y-33432904D01*
X89030952Y-33432904D01*
X89078571Y-33409095D01*
X89102380Y-33385285D01*
X89126190Y-33337666D01*
X89126190Y-33242428D01*
X89102380Y-33194809D01*
X89078571Y-33171000D01*
X89030952Y-33147190D01*
X88911904Y-33147190D01*
X88864285Y-33171000D01*
X88840476Y-33194809D01*
X88816666Y-33242428D01*
X88816666Y-33337666D01*
X88840476Y-33385285D01*
X88864285Y-33409095D01*
X88911904Y-33432904D01*
X91404285Y-36004333D02*
X91404285Y-36171000D01*
X91666190Y-36171000D02*
X91166190Y-36171000D01*
X91166190Y-35932904D01*
X91666190Y-35742428D02*
X91166190Y-35742428D01*
X91166190Y-35623380D01*
X91190000Y-35551952D01*
X91237619Y-35504333D01*
X91285238Y-35480523D01*
X91380476Y-35456714D01*
X91451904Y-35456714D01*
X91547142Y-35480523D01*
X91594761Y-35504333D01*
X91642380Y-35551952D01*
X91666190Y-35623380D01*
X91666190Y-35742428D01*
X91666190Y-35242428D02*
X91166190Y-35242428D01*
X91166190Y-35123380D01*
X91190000Y-35051952D01*
X91237619Y-35004333D01*
X91285238Y-34980523D01*
X91380476Y-34956714D01*
X91451904Y-34956714D01*
X91547142Y-34980523D01*
X91594761Y-35004333D01*
X91642380Y-35051952D01*
X91666190Y-35123380D01*
X91666190Y-35242428D01*
X91166190Y-34504333D02*
X91166190Y-34742428D01*
X91404285Y-34766238D01*
X91380476Y-34742428D01*
X91356666Y-34694809D01*
X91356666Y-34575761D01*
X91380476Y-34528142D01*
X91404285Y-34504333D01*
X91451904Y-34480523D01*
X91570952Y-34480523D01*
X91618571Y-34504333D01*
X91642380Y-34528142D01*
X91666190Y-34575761D01*
X91666190Y-34694809D01*
X91642380Y-34742428D01*
X91618571Y-34766238D01*
X91166190Y-34171000D02*
X91166190Y-34123380D01*
X91190000Y-34075761D01*
X91213809Y-34051952D01*
X91261428Y-34028142D01*
X91356666Y-34004333D01*
X91475714Y-34004333D01*
X91570952Y-34028142D01*
X91618571Y-34051952D01*
X91642380Y-34075761D01*
X91666190Y-34123380D01*
X91666190Y-34171000D01*
X91642380Y-34218619D01*
X91618571Y-34242428D01*
X91570952Y-34266238D01*
X91475714Y-34290047D01*
X91356666Y-34290047D01*
X91261428Y-34266238D01*
X91213809Y-34242428D01*
X91190000Y-34218619D01*
X91166190Y-34171000D01*
X91713809Y-33909095D02*
X91713809Y-33528142D01*
X91332857Y-33194809D02*
X91666190Y-33194809D01*
X91142380Y-33313857D02*
X91499523Y-33432904D01*
X91499523Y-33123380D01*
X63726190Y-35623309D02*
X63226190Y-35623309D01*
X63226190Y-35432833D01*
X63250000Y-35385214D01*
X63273809Y-35361404D01*
X63321428Y-35337595D01*
X63392857Y-35337595D01*
X63440476Y-35361404D01*
X63464285Y-35385214D01*
X63488095Y-35432833D01*
X63488095Y-35623309D01*
X63678571Y-34837595D02*
X63702380Y-34861404D01*
X63726190Y-34932833D01*
X63726190Y-34980452D01*
X63702380Y-35051880D01*
X63654761Y-35099500D01*
X63607142Y-35123309D01*
X63511904Y-35147119D01*
X63440476Y-35147119D01*
X63345238Y-35123309D01*
X63297619Y-35099500D01*
X63250000Y-35051880D01*
X63226190Y-34980452D01*
X63226190Y-34932833D01*
X63250000Y-34861404D01*
X63273809Y-34837595D01*
X63226190Y-34670928D02*
X63226190Y-34361404D01*
X63416666Y-34528071D01*
X63416666Y-34456642D01*
X63440476Y-34409023D01*
X63464285Y-34385214D01*
X63511904Y-34361404D01*
X63630952Y-34361404D01*
X63678571Y-34385214D01*
X63702380Y-34409023D01*
X63726190Y-34456642D01*
X63726190Y-34599500D01*
X63702380Y-34647119D01*
X63678571Y-34670928D01*
X63392857Y-33932833D02*
X63726190Y-33932833D01*
X63202380Y-34051880D02*
X63559523Y-34170928D01*
X63559523Y-33861404D01*
X63773809Y-33789976D02*
X63773809Y-33409023D01*
X63726190Y-33028071D02*
X63726190Y-33313785D01*
X63726190Y-33170928D02*
X63226190Y-33170928D01*
X63297619Y-33218547D01*
X63345238Y-33266166D01*
X63369047Y-33313785D01*
X63226190Y-32718547D02*
X63226190Y-32670928D01*
X63250000Y-32623309D01*
X63273809Y-32599500D01*
X63321428Y-32575690D01*
X63416666Y-32551880D01*
X63535714Y-32551880D01*
X63630952Y-32575690D01*
X63678571Y-32599500D01*
X63702380Y-32623309D01*
X63726190Y-32670928D01*
X63726190Y-32718547D01*
X63702380Y-32766166D01*
X63678571Y-32789976D01*
X63630952Y-32813785D01*
X63535714Y-32837595D01*
X63416666Y-32837595D01*
X63321428Y-32813785D01*
X63273809Y-32789976D01*
X63250000Y-32766166D01*
X63226190Y-32718547D01*
X68806190Y-34940714D02*
X68306190Y-34940714D01*
X68306190Y-34750238D01*
X68330000Y-34702619D01*
X68353809Y-34678809D01*
X68401428Y-34655000D01*
X68472857Y-34655000D01*
X68520476Y-34678809D01*
X68544285Y-34702619D01*
X68568095Y-34750238D01*
X68568095Y-34940714D01*
X68758571Y-34155000D02*
X68782380Y-34178809D01*
X68806190Y-34250238D01*
X68806190Y-34297857D01*
X68782380Y-34369285D01*
X68734761Y-34416904D01*
X68687142Y-34440714D01*
X68591904Y-34464523D01*
X68520476Y-34464523D01*
X68425238Y-34440714D01*
X68377619Y-34416904D01*
X68330000Y-34369285D01*
X68306190Y-34297857D01*
X68306190Y-34250238D01*
X68330000Y-34178809D01*
X68353809Y-34155000D01*
X68306190Y-33988333D02*
X68306190Y-33678809D01*
X68496666Y-33845476D01*
X68496666Y-33774047D01*
X68520476Y-33726428D01*
X68544285Y-33702619D01*
X68591904Y-33678809D01*
X68710952Y-33678809D01*
X68758571Y-33702619D01*
X68782380Y-33726428D01*
X68806190Y-33774047D01*
X68806190Y-33916904D01*
X68782380Y-33964523D01*
X68758571Y-33988333D01*
X68472857Y-33250238D02*
X68806190Y-33250238D01*
X68282380Y-33369285D02*
X68639523Y-33488333D01*
X68639523Y-33178809D01*
X68853809Y-33107380D02*
X68853809Y-32726428D01*
X68306190Y-32393095D02*
X68306190Y-32488333D01*
X68330000Y-32535952D01*
X68353809Y-32559761D01*
X68425238Y-32607380D01*
X68520476Y-32631190D01*
X68710952Y-32631190D01*
X68758571Y-32607380D01*
X68782380Y-32583571D01*
X68806190Y-32535952D01*
X68806190Y-32440714D01*
X68782380Y-32393095D01*
X68758571Y-32369285D01*
X68710952Y-32345476D01*
X68591904Y-32345476D01*
X68544285Y-32369285D01*
X68520476Y-32393095D01*
X68496666Y-32440714D01*
X68496666Y-32535952D01*
X68520476Y-32583571D01*
X68544285Y-32607380D01*
X68591904Y-32631190D01*
X73886190Y-35004214D02*
X73386190Y-35004214D01*
X73386190Y-34813738D01*
X73410000Y-34766119D01*
X73433809Y-34742309D01*
X73481428Y-34718500D01*
X73552857Y-34718500D01*
X73600476Y-34742309D01*
X73624285Y-34766119D01*
X73648095Y-34813738D01*
X73648095Y-35004214D01*
X73838571Y-34218500D02*
X73862380Y-34242309D01*
X73886190Y-34313738D01*
X73886190Y-34361357D01*
X73862380Y-34432785D01*
X73814761Y-34480404D01*
X73767142Y-34504214D01*
X73671904Y-34528023D01*
X73600476Y-34528023D01*
X73505238Y-34504214D01*
X73457619Y-34480404D01*
X73410000Y-34432785D01*
X73386190Y-34361357D01*
X73386190Y-34313738D01*
X73410000Y-34242309D01*
X73433809Y-34218500D01*
X73386190Y-34051833D02*
X73386190Y-33742309D01*
X73576666Y-33908976D01*
X73576666Y-33837547D01*
X73600476Y-33789928D01*
X73624285Y-33766119D01*
X73671904Y-33742309D01*
X73790952Y-33742309D01*
X73838571Y-33766119D01*
X73862380Y-33789928D01*
X73886190Y-33837547D01*
X73886190Y-33980404D01*
X73862380Y-34028023D01*
X73838571Y-34051833D01*
X73552857Y-33313738D02*
X73886190Y-33313738D01*
X73362380Y-33432785D02*
X73719523Y-33551833D01*
X73719523Y-33242309D01*
X73933809Y-33170880D02*
X73933809Y-32789928D01*
X73433809Y-32694690D02*
X73410000Y-32670880D01*
X73386190Y-32623261D01*
X73386190Y-32504214D01*
X73410000Y-32456595D01*
X73433809Y-32432785D01*
X73481428Y-32408976D01*
X73529047Y-32408976D01*
X73600476Y-32432785D01*
X73886190Y-32718500D01*
X73886190Y-32408976D01*
D11*
X100592071Y-38346071D02*
X100925404Y-38346071D01*
X101068261Y-38869880D02*
X100592071Y-38869880D01*
X100592071Y-37869880D01*
X101068261Y-37869880D01*
X101401595Y-37869880D02*
X102068261Y-38869880D01*
X102068261Y-37869880D02*
X101401595Y-38869880D01*
X102306357Y-37869880D02*
X102877785Y-37869880D01*
X102592071Y-38869880D02*
X102592071Y-37869880D01*
X101330166Y-42949880D02*
X101330166Y-43664166D01*
X101282547Y-43807023D01*
X101187309Y-43902261D01*
X101044452Y-43949880D01*
X100949214Y-43949880D01*
X102234928Y-43283214D02*
X102234928Y-43949880D01*
X101996833Y-42902261D02*
X101758738Y-43616547D01*
X102377785Y-43616547D01*
M02*
