G04 #@! TF.GenerationSoftware,KiCad,Pcbnew,(5.99.0-576-ga860ac506)*
G04 #@! TF.CreationDate,2021-04-05T12:44:30+02:00*
G04 #@! TF.ProjectId,50 pin to 34 pin Floppy Adapter,35302070-696e-4207-946f-203334207069,rev?*
G04 #@! TF.SameCoordinates,Original*
G04 #@! TF.FileFunction,Copper,L2,Bot*
G04 #@! TF.FilePolarity,Positive*
%FSLAX46Y46*%
G04 Gerber Fmt 4.6, Leading zero omitted, Abs format (unit mm)*
G04 Created by KiCad (PCBNEW (5.99.0-576-ga860ac506)) date 2021-04-05 12:44:30*
%MOMM*%
%LPD*%
G04 APERTURE LIST*
%ADD10R,2.600000X2.000000*%
%ADD11O,2.600000X2.000000*%
%ADD12R,0.800000X0.300000*%
%ADD13R,1.700000X1.700000*%
%ADD14C,1.700000*%
%ADD15O,1.700000X1.700000*%
%ADD16R,0.700000X1.300000*%
%ADD17R,0.500000X0.800000*%
%ADD18R,0.400000X0.800000*%
%ADD19C,0.800000*%
%ADD20C,0.250000*%
%ADD21C,0.400000*%
%ADD22C,1.000000*%
%ADD23C,0.500000*%
%ADD24C,2.000000*%
%ADD25C,0.254000*%
G04 APERTURE END LIST*
D10*
X23876000Y-30670500D03*
D11*
X23876000Y-28170500D03*
X23876000Y-25670500D03*
X23876000Y-23170500D03*
D12*
X85635500Y-39421500D03*
X85635500Y-38921500D03*
X85635500Y-38421500D03*
X85635500Y-37921500D03*
X88735500Y-37921500D03*
X88735500Y-38421500D03*
X88735500Y-38921500D03*
X88735500Y-39421500D03*
D13*
X93980000Y-42164000D03*
D14*
X93980000Y-44704000D03*
X91440000Y-42164000D03*
X91440000Y-44704000D03*
X88900000Y-42164000D03*
X88900000Y-44704000D03*
X86360000Y-42164000D03*
X86360000Y-44704000D03*
X83820000Y-42164000D03*
X83820000Y-44704000D03*
X81280000Y-42164000D03*
X81280000Y-44704000D03*
X78740000Y-42164000D03*
X78740000Y-44704000D03*
X76200000Y-42164000D03*
X76200000Y-44704000D03*
X73660000Y-42164000D03*
X73660000Y-44704000D03*
X71120000Y-42164000D03*
X71120000Y-44704000D03*
X68580000Y-42164000D03*
X68580000Y-44704000D03*
X66040000Y-42164000D03*
X66040000Y-44704000D03*
X63500000Y-42164000D03*
X63500000Y-44704000D03*
X60960000Y-42164000D03*
X60960000Y-44704000D03*
X58420000Y-42164000D03*
X58420000Y-44704000D03*
X55880000Y-42164000D03*
X55880000Y-44704000D03*
X53340000Y-42164000D03*
X53340000Y-44704000D03*
X50800000Y-42164000D03*
X50800000Y-44704000D03*
X48260000Y-42164000D03*
X48260000Y-44704000D03*
X45720000Y-42164000D03*
X45720000Y-44704000D03*
X43180000Y-42164000D03*
X43180000Y-44704000D03*
X40640000Y-42164000D03*
X40640000Y-44704000D03*
X38100000Y-42164000D03*
X38100000Y-44704000D03*
X35560000Y-42164000D03*
X35560000Y-44704000D03*
X33020000Y-42164000D03*
X33020000Y-44704000D03*
D13*
X40640000Y-34417000D03*
D15*
X43180000Y-34417000D03*
X45720000Y-34417000D03*
X48260000Y-34417000D03*
X50800000Y-34417000D03*
D16*
X40960000Y-37211000D03*
X42860000Y-37211000D03*
G04 #@! TA.AperFunction,SMDPad,CuDef*
G36*
X84515903Y-29746918D02*
G01*
X84564566Y-29779434D01*
X84597082Y-29828097D01*
X84608500Y-29885500D01*
X84608500Y-30185500D01*
X84597082Y-30242903D01*
X84564566Y-30291566D01*
X84515903Y-30324082D01*
X84458500Y-30335500D01*
X83158500Y-30335500D01*
X83101097Y-30324082D01*
X83052434Y-30291566D01*
X83019918Y-30242903D01*
X83008500Y-30185500D01*
X83008500Y-29885500D01*
X83019918Y-29828097D01*
X83052434Y-29779434D01*
X83101097Y-29746918D01*
X83158500Y-29735500D01*
X84458500Y-29735500D01*
X84515903Y-29746918D01*
G37*
G04 #@! TD.AperFunction*
G04 #@! TA.AperFunction,SMDPad,CuDef*
G36*
X84515903Y-28476918D02*
G01*
X84564566Y-28509434D01*
X84597082Y-28558097D01*
X84608500Y-28615500D01*
X84608500Y-28915500D01*
X84597082Y-28972903D01*
X84564566Y-29021566D01*
X84515903Y-29054082D01*
X84458500Y-29065500D01*
X83158500Y-29065500D01*
X83101097Y-29054082D01*
X83052434Y-29021566D01*
X83019918Y-28972903D01*
X83008500Y-28915500D01*
X83008500Y-28615500D01*
X83019918Y-28558097D01*
X83052434Y-28509434D01*
X83101097Y-28476918D01*
X83158500Y-28465500D01*
X84458500Y-28465500D01*
X84515903Y-28476918D01*
G37*
G04 #@! TD.AperFunction*
G04 #@! TA.AperFunction,SMDPad,CuDef*
G36*
X84515903Y-27206918D02*
G01*
X84564566Y-27239434D01*
X84597082Y-27288097D01*
X84608500Y-27345500D01*
X84608500Y-27645500D01*
X84597082Y-27702903D01*
X84564566Y-27751566D01*
X84515903Y-27784082D01*
X84458500Y-27795500D01*
X83158500Y-27795500D01*
X83101097Y-27784082D01*
X83052434Y-27751566D01*
X83019918Y-27702903D01*
X83008500Y-27645500D01*
X83008500Y-27345500D01*
X83019918Y-27288097D01*
X83052434Y-27239434D01*
X83101097Y-27206918D01*
X83158500Y-27195500D01*
X84458500Y-27195500D01*
X84515903Y-27206918D01*
G37*
G04 #@! TD.AperFunction*
G04 #@! TA.AperFunction,SMDPad,CuDef*
G36*
X84515903Y-25936918D02*
G01*
X84564566Y-25969434D01*
X84597082Y-26018097D01*
X84608500Y-26075500D01*
X84608500Y-26375500D01*
X84597082Y-26432903D01*
X84564566Y-26481566D01*
X84515903Y-26514082D01*
X84458500Y-26525500D01*
X83158500Y-26525500D01*
X83101097Y-26514082D01*
X83052434Y-26481566D01*
X83019918Y-26432903D01*
X83008500Y-26375500D01*
X83008500Y-26075500D01*
X83019918Y-26018097D01*
X83052434Y-25969434D01*
X83101097Y-25936918D01*
X83158500Y-25925500D01*
X84458500Y-25925500D01*
X84515903Y-25936918D01*
G37*
G04 #@! TD.AperFunction*
G04 #@! TA.AperFunction,SMDPad,CuDef*
G36*
X84515903Y-24666918D02*
G01*
X84564566Y-24699434D01*
X84597082Y-24748097D01*
X84608500Y-24805500D01*
X84608500Y-25105500D01*
X84597082Y-25162903D01*
X84564566Y-25211566D01*
X84515903Y-25244082D01*
X84458500Y-25255500D01*
X83158500Y-25255500D01*
X83101097Y-25244082D01*
X83052434Y-25211566D01*
X83019918Y-25162903D01*
X83008500Y-25105500D01*
X83008500Y-24805500D01*
X83019918Y-24748097D01*
X83052434Y-24699434D01*
X83101097Y-24666918D01*
X83158500Y-24655500D01*
X84458500Y-24655500D01*
X84515903Y-24666918D01*
G37*
G04 #@! TD.AperFunction*
G04 #@! TA.AperFunction,SMDPad,CuDef*
G36*
X84515903Y-23396918D02*
G01*
X84564566Y-23429434D01*
X84597082Y-23478097D01*
X84608500Y-23535500D01*
X84608500Y-23835500D01*
X84597082Y-23892903D01*
X84564566Y-23941566D01*
X84515903Y-23974082D01*
X84458500Y-23985500D01*
X83158500Y-23985500D01*
X83101097Y-23974082D01*
X83052434Y-23941566D01*
X83019918Y-23892903D01*
X83008500Y-23835500D01*
X83008500Y-23535500D01*
X83019918Y-23478097D01*
X83052434Y-23429434D01*
X83101097Y-23396918D01*
X83158500Y-23385500D01*
X84458500Y-23385500D01*
X84515903Y-23396918D01*
G37*
G04 #@! TD.AperFunction*
G04 #@! TA.AperFunction,SMDPad,CuDef*
G36*
X84515903Y-22126918D02*
G01*
X84564566Y-22159434D01*
X84597082Y-22208097D01*
X84608500Y-22265500D01*
X84608500Y-22565500D01*
X84597082Y-22622903D01*
X84564566Y-22671566D01*
X84515903Y-22704082D01*
X84458500Y-22715500D01*
X83158500Y-22715500D01*
X83101097Y-22704082D01*
X83052434Y-22671566D01*
X83019918Y-22622903D01*
X83008500Y-22565500D01*
X83008500Y-22265500D01*
X83019918Y-22208097D01*
X83052434Y-22159434D01*
X83101097Y-22126918D01*
X83158500Y-22115500D01*
X84458500Y-22115500D01*
X84515903Y-22126918D01*
G37*
G04 #@! TD.AperFunction*
G04 #@! TA.AperFunction,SMDPad,CuDef*
G36*
X84515903Y-20856918D02*
G01*
X84564566Y-20889434D01*
X84597082Y-20938097D01*
X84608500Y-20995500D01*
X84608500Y-21295500D01*
X84597082Y-21352903D01*
X84564566Y-21401566D01*
X84515903Y-21434082D01*
X84458500Y-21445500D01*
X83158500Y-21445500D01*
X83101097Y-21434082D01*
X83052434Y-21401566D01*
X83019918Y-21352903D01*
X83008500Y-21295500D01*
X83008500Y-20995500D01*
X83019918Y-20938097D01*
X83052434Y-20889434D01*
X83101097Y-20856918D01*
X83158500Y-20845500D01*
X84458500Y-20845500D01*
X84515903Y-20856918D01*
G37*
G04 #@! TD.AperFunction*
G04 #@! TA.AperFunction,SMDPad,CuDef*
G36*
X91015903Y-20856918D02*
G01*
X91064566Y-20889434D01*
X91097082Y-20938097D01*
X91108500Y-20995500D01*
X91108500Y-21295500D01*
X91097082Y-21352903D01*
X91064566Y-21401566D01*
X91015903Y-21434082D01*
X90958500Y-21445500D01*
X89658500Y-21445500D01*
X89601097Y-21434082D01*
X89552434Y-21401566D01*
X89519918Y-21352903D01*
X89508500Y-21295500D01*
X89508500Y-20995500D01*
X89519918Y-20938097D01*
X89552434Y-20889434D01*
X89601097Y-20856918D01*
X89658500Y-20845500D01*
X90958500Y-20845500D01*
X91015903Y-20856918D01*
G37*
G04 #@! TD.AperFunction*
G04 #@! TA.AperFunction,SMDPad,CuDef*
G36*
X91015903Y-22126918D02*
G01*
X91064566Y-22159434D01*
X91097082Y-22208097D01*
X91108500Y-22265500D01*
X91108500Y-22565500D01*
X91097082Y-22622903D01*
X91064566Y-22671566D01*
X91015903Y-22704082D01*
X90958500Y-22715500D01*
X89658500Y-22715500D01*
X89601097Y-22704082D01*
X89552434Y-22671566D01*
X89519918Y-22622903D01*
X89508500Y-22565500D01*
X89508500Y-22265500D01*
X89519918Y-22208097D01*
X89552434Y-22159434D01*
X89601097Y-22126918D01*
X89658500Y-22115500D01*
X90958500Y-22115500D01*
X91015903Y-22126918D01*
G37*
G04 #@! TD.AperFunction*
G04 #@! TA.AperFunction,SMDPad,CuDef*
G36*
X91015903Y-23396918D02*
G01*
X91064566Y-23429434D01*
X91097082Y-23478097D01*
X91108500Y-23535500D01*
X91108500Y-23835500D01*
X91097082Y-23892903D01*
X91064566Y-23941566D01*
X91015903Y-23974082D01*
X90958500Y-23985500D01*
X89658500Y-23985500D01*
X89601097Y-23974082D01*
X89552434Y-23941566D01*
X89519918Y-23892903D01*
X89508500Y-23835500D01*
X89508500Y-23535500D01*
X89519918Y-23478097D01*
X89552434Y-23429434D01*
X89601097Y-23396918D01*
X89658500Y-23385500D01*
X90958500Y-23385500D01*
X91015903Y-23396918D01*
G37*
G04 #@! TD.AperFunction*
G04 #@! TA.AperFunction,SMDPad,CuDef*
G36*
X91015903Y-24666918D02*
G01*
X91064566Y-24699434D01*
X91097082Y-24748097D01*
X91108500Y-24805500D01*
X91108500Y-25105500D01*
X91097082Y-25162903D01*
X91064566Y-25211566D01*
X91015903Y-25244082D01*
X90958500Y-25255500D01*
X89658500Y-25255500D01*
X89601097Y-25244082D01*
X89552434Y-25211566D01*
X89519918Y-25162903D01*
X89508500Y-25105500D01*
X89508500Y-24805500D01*
X89519918Y-24748097D01*
X89552434Y-24699434D01*
X89601097Y-24666918D01*
X89658500Y-24655500D01*
X90958500Y-24655500D01*
X91015903Y-24666918D01*
G37*
G04 #@! TD.AperFunction*
G04 #@! TA.AperFunction,SMDPad,CuDef*
G36*
X91015903Y-25936918D02*
G01*
X91064566Y-25969434D01*
X91097082Y-26018097D01*
X91108500Y-26075500D01*
X91108500Y-26375500D01*
X91097082Y-26432903D01*
X91064566Y-26481566D01*
X91015903Y-26514082D01*
X90958500Y-26525500D01*
X89658500Y-26525500D01*
X89601097Y-26514082D01*
X89552434Y-26481566D01*
X89519918Y-26432903D01*
X89508500Y-26375500D01*
X89508500Y-26075500D01*
X89519918Y-26018097D01*
X89552434Y-25969434D01*
X89601097Y-25936918D01*
X89658500Y-25925500D01*
X90958500Y-25925500D01*
X91015903Y-25936918D01*
G37*
G04 #@! TD.AperFunction*
G04 #@! TA.AperFunction,SMDPad,CuDef*
G36*
X91015903Y-27206918D02*
G01*
X91064566Y-27239434D01*
X91097082Y-27288097D01*
X91108500Y-27345500D01*
X91108500Y-27645500D01*
X91097082Y-27702903D01*
X91064566Y-27751566D01*
X91015903Y-27784082D01*
X90958500Y-27795500D01*
X89658500Y-27795500D01*
X89601097Y-27784082D01*
X89552434Y-27751566D01*
X89519918Y-27702903D01*
X89508500Y-27645500D01*
X89508500Y-27345500D01*
X89519918Y-27288097D01*
X89552434Y-27239434D01*
X89601097Y-27206918D01*
X89658500Y-27195500D01*
X90958500Y-27195500D01*
X91015903Y-27206918D01*
G37*
G04 #@! TD.AperFunction*
G04 #@! TA.AperFunction,SMDPad,CuDef*
G36*
X91015903Y-28476918D02*
G01*
X91064566Y-28509434D01*
X91097082Y-28558097D01*
X91108500Y-28615500D01*
X91108500Y-28915500D01*
X91097082Y-28972903D01*
X91064566Y-29021566D01*
X91015903Y-29054082D01*
X90958500Y-29065500D01*
X89658500Y-29065500D01*
X89601097Y-29054082D01*
X89552434Y-29021566D01*
X89519918Y-28972903D01*
X89508500Y-28915500D01*
X89508500Y-28615500D01*
X89519918Y-28558097D01*
X89552434Y-28509434D01*
X89601097Y-28476918D01*
X89658500Y-28465500D01*
X90958500Y-28465500D01*
X91015903Y-28476918D01*
G37*
G04 #@! TD.AperFunction*
G04 #@! TA.AperFunction,SMDPad,CuDef*
G36*
X91015903Y-29746918D02*
G01*
X91064566Y-29779434D01*
X91097082Y-29828097D01*
X91108500Y-29885500D01*
X91108500Y-30185500D01*
X91097082Y-30242903D01*
X91064566Y-30291566D01*
X91015903Y-30324082D01*
X90958500Y-30335500D01*
X89658500Y-30335500D01*
X89601097Y-30324082D01*
X89552434Y-30291566D01*
X89519918Y-30242903D01*
X89508500Y-30185500D01*
X89508500Y-29885500D01*
X89519918Y-29828097D01*
X89552434Y-29779434D01*
X89601097Y-29746918D01*
X89658500Y-29735500D01*
X90958500Y-29735500D01*
X91015903Y-29746918D01*
G37*
G04 #@! TD.AperFunction*
D17*
X112338000Y-26595500D03*
D18*
X113938000Y-26595500D03*
X113138000Y-26595500D03*
D17*
X114738000Y-26595500D03*
D18*
X113138000Y-28395500D03*
D17*
X112338000Y-28395500D03*
D18*
X113938000Y-28395500D03*
D17*
X114738000Y-28395500D03*
X116084500Y-26341500D03*
D18*
X117684500Y-26341500D03*
X116884500Y-26341500D03*
D17*
X118484500Y-26341500D03*
D18*
X116884500Y-28141500D03*
D17*
X116084500Y-28141500D03*
D18*
X117684500Y-28141500D03*
D17*
X118484500Y-28141500D03*
G04 #@! TA.AperFunction,SMDPad,CuDef*
G36*
X102632903Y-26758918D02*
G01*
X102681566Y-26791434D01*
X102714082Y-26840097D01*
X102725500Y-26897500D01*
X102725500Y-28197500D01*
X102714082Y-28254903D01*
X102681566Y-28303566D01*
X102632903Y-28336082D01*
X102575500Y-28347500D01*
X102275500Y-28347500D01*
X102218097Y-28336082D01*
X102169434Y-28303566D01*
X102136918Y-28254903D01*
X102125500Y-28197500D01*
X102125500Y-26897500D01*
X102136918Y-26840097D01*
X102169434Y-26791434D01*
X102218097Y-26758918D01*
X102275500Y-26747500D01*
X102575500Y-26747500D01*
X102632903Y-26758918D01*
G37*
G04 #@! TD.AperFunction*
G04 #@! TA.AperFunction,SMDPad,CuDef*
G36*
X101362903Y-26758918D02*
G01*
X101411566Y-26791434D01*
X101444082Y-26840097D01*
X101455500Y-26897500D01*
X101455500Y-28197500D01*
X101444082Y-28254903D01*
X101411566Y-28303566D01*
X101362903Y-28336082D01*
X101305500Y-28347500D01*
X101005500Y-28347500D01*
X100948097Y-28336082D01*
X100899434Y-28303566D01*
X100866918Y-28254903D01*
X100855500Y-28197500D01*
X100855500Y-26897500D01*
X100866918Y-26840097D01*
X100899434Y-26791434D01*
X100948097Y-26758918D01*
X101005500Y-26747500D01*
X101305500Y-26747500D01*
X101362903Y-26758918D01*
G37*
G04 #@! TD.AperFunction*
G04 #@! TA.AperFunction,SMDPad,CuDef*
G36*
X100092903Y-26758918D02*
G01*
X100141566Y-26791434D01*
X100174082Y-26840097D01*
X100185500Y-26897500D01*
X100185500Y-28197500D01*
X100174082Y-28254903D01*
X100141566Y-28303566D01*
X100092903Y-28336082D01*
X100035500Y-28347500D01*
X99735500Y-28347500D01*
X99678097Y-28336082D01*
X99629434Y-28303566D01*
X99596918Y-28254903D01*
X99585500Y-28197500D01*
X99585500Y-26897500D01*
X99596918Y-26840097D01*
X99629434Y-26791434D01*
X99678097Y-26758918D01*
X99735500Y-26747500D01*
X100035500Y-26747500D01*
X100092903Y-26758918D01*
G37*
G04 #@! TD.AperFunction*
G04 #@! TA.AperFunction,SMDPad,CuDef*
G36*
X98822903Y-26758918D02*
G01*
X98871566Y-26791434D01*
X98904082Y-26840097D01*
X98915500Y-26897500D01*
X98915500Y-28197500D01*
X98904082Y-28254903D01*
X98871566Y-28303566D01*
X98822903Y-28336082D01*
X98765500Y-28347500D01*
X98465500Y-28347500D01*
X98408097Y-28336082D01*
X98359434Y-28303566D01*
X98326918Y-28254903D01*
X98315500Y-28197500D01*
X98315500Y-26897500D01*
X98326918Y-26840097D01*
X98359434Y-26791434D01*
X98408097Y-26758918D01*
X98465500Y-26747500D01*
X98765500Y-26747500D01*
X98822903Y-26758918D01*
G37*
G04 #@! TD.AperFunction*
G04 #@! TA.AperFunction,SMDPad,CuDef*
G36*
X97552903Y-26758918D02*
G01*
X97601566Y-26791434D01*
X97634082Y-26840097D01*
X97645500Y-26897500D01*
X97645500Y-28197500D01*
X97634082Y-28254903D01*
X97601566Y-28303566D01*
X97552903Y-28336082D01*
X97495500Y-28347500D01*
X97195500Y-28347500D01*
X97138097Y-28336082D01*
X97089434Y-28303566D01*
X97056918Y-28254903D01*
X97045500Y-28197500D01*
X97045500Y-26897500D01*
X97056918Y-26840097D01*
X97089434Y-26791434D01*
X97138097Y-26758918D01*
X97195500Y-26747500D01*
X97495500Y-26747500D01*
X97552903Y-26758918D01*
G37*
G04 #@! TD.AperFunction*
G04 #@! TA.AperFunction,SMDPad,CuDef*
G36*
X96282903Y-26758918D02*
G01*
X96331566Y-26791434D01*
X96364082Y-26840097D01*
X96375500Y-26897500D01*
X96375500Y-28197500D01*
X96364082Y-28254903D01*
X96331566Y-28303566D01*
X96282903Y-28336082D01*
X96225500Y-28347500D01*
X95925500Y-28347500D01*
X95868097Y-28336082D01*
X95819434Y-28303566D01*
X95786918Y-28254903D01*
X95775500Y-28197500D01*
X95775500Y-26897500D01*
X95786918Y-26840097D01*
X95819434Y-26791434D01*
X95868097Y-26758918D01*
X95925500Y-26747500D01*
X96225500Y-26747500D01*
X96282903Y-26758918D01*
G37*
G04 #@! TD.AperFunction*
G04 #@! TA.AperFunction,SMDPad,CuDef*
G36*
X95012903Y-26758918D02*
G01*
X95061566Y-26791434D01*
X95094082Y-26840097D01*
X95105500Y-26897500D01*
X95105500Y-28197500D01*
X95094082Y-28254903D01*
X95061566Y-28303566D01*
X95012903Y-28336082D01*
X94955500Y-28347500D01*
X94655500Y-28347500D01*
X94598097Y-28336082D01*
X94549434Y-28303566D01*
X94516918Y-28254903D01*
X94505500Y-28197500D01*
X94505500Y-26897500D01*
X94516918Y-26840097D01*
X94549434Y-26791434D01*
X94598097Y-26758918D01*
X94655500Y-26747500D01*
X94955500Y-26747500D01*
X95012903Y-26758918D01*
G37*
G04 #@! TD.AperFunction*
G04 #@! TA.AperFunction,SMDPad,CuDef*
G36*
X93742903Y-26758918D02*
G01*
X93791566Y-26791434D01*
X93824082Y-26840097D01*
X93835500Y-26897500D01*
X93835500Y-28197500D01*
X93824082Y-28254903D01*
X93791566Y-28303566D01*
X93742903Y-28336082D01*
X93685500Y-28347500D01*
X93385500Y-28347500D01*
X93328097Y-28336082D01*
X93279434Y-28303566D01*
X93246918Y-28254903D01*
X93235500Y-28197500D01*
X93235500Y-26897500D01*
X93246918Y-26840097D01*
X93279434Y-26791434D01*
X93328097Y-26758918D01*
X93385500Y-26747500D01*
X93685500Y-26747500D01*
X93742903Y-26758918D01*
G37*
G04 #@! TD.AperFunction*
G04 #@! TA.AperFunction,SMDPad,CuDef*
G36*
X93742903Y-33258918D02*
G01*
X93791566Y-33291434D01*
X93824082Y-33340097D01*
X93835500Y-33397500D01*
X93835500Y-34697500D01*
X93824082Y-34754903D01*
X93791566Y-34803566D01*
X93742903Y-34836082D01*
X93685500Y-34847500D01*
X93385500Y-34847500D01*
X93328097Y-34836082D01*
X93279434Y-34803566D01*
X93246918Y-34754903D01*
X93235500Y-34697500D01*
X93235500Y-33397500D01*
X93246918Y-33340097D01*
X93279434Y-33291434D01*
X93328097Y-33258918D01*
X93385500Y-33247500D01*
X93685500Y-33247500D01*
X93742903Y-33258918D01*
G37*
G04 #@! TD.AperFunction*
G04 #@! TA.AperFunction,SMDPad,CuDef*
G36*
X95012903Y-33258918D02*
G01*
X95061566Y-33291434D01*
X95094082Y-33340097D01*
X95105500Y-33397500D01*
X95105500Y-34697500D01*
X95094082Y-34754903D01*
X95061566Y-34803566D01*
X95012903Y-34836082D01*
X94955500Y-34847500D01*
X94655500Y-34847500D01*
X94598097Y-34836082D01*
X94549434Y-34803566D01*
X94516918Y-34754903D01*
X94505500Y-34697500D01*
X94505500Y-33397500D01*
X94516918Y-33340097D01*
X94549434Y-33291434D01*
X94598097Y-33258918D01*
X94655500Y-33247500D01*
X94955500Y-33247500D01*
X95012903Y-33258918D01*
G37*
G04 #@! TD.AperFunction*
G04 #@! TA.AperFunction,SMDPad,CuDef*
G36*
X96282903Y-33258918D02*
G01*
X96331566Y-33291434D01*
X96364082Y-33340097D01*
X96375500Y-33397500D01*
X96375500Y-34697500D01*
X96364082Y-34754903D01*
X96331566Y-34803566D01*
X96282903Y-34836082D01*
X96225500Y-34847500D01*
X95925500Y-34847500D01*
X95868097Y-34836082D01*
X95819434Y-34803566D01*
X95786918Y-34754903D01*
X95775500Y-34697500D01*
X95775500Y-33397500D01*
X95786918Y-33340097D01*
X95819434Y-33291434D01*
X95868097Y-33258918D01*
X95925500Y-33247500D01*
X96225500Y-33247500D01*
X96282903Y-33258918D01*
G37*
G04 #@! TD.AperFunction*
G04 #@! TA.AperFunction,SMDPad,CuDef*
G36*
X97552903Y-33258918D02*
G01*
X97601566Y-33291434D01*
X97634082Y-33340097D01*
X97645500Y-33397500D01*
X97645500Y-34697500D01*
X97634082Y-34754903D01*
X97601566Y-34803566D01*
X97552903Y-34836082D01*
X97495500Y-34847500D01*
X97195500Y-34847500D01*
X97138097Y-34836082D01*
X97089434Y-34803566D01*
X97056918Y-34754903D01*
X97045500Y-34697500D01*
X97045500Y-33397500D01*
X97056918Y-33340097D01*
X97089434Y-33291434D01*
X97138097Y-33258918D01*
X97195500Y-33247500D01*
X97495500Y-33247500D01*
X97552903Y-33258918D01*
G37*
G04 #@! TD.AperFunction*
G04 #@! TA.AperFunction,SMDPad,CuDef*
G36*
X98822903Y-33258918D02*
G01*
X98871566Y-33291434D01*
X98904082Y-33340097D01*
X98915500Y-33397500D01*
X98915500Y-34697500D01*
X98904082Y-34754903D01*
X98871566Y-34803566D01*
X98822903Y-34836082D01*
X98765500Y-34847500D01*
X98465500Y-34847500D01*
X98408097Y-34836082D01*
X98359434Y-34803566D01*
X98326918Y-34754903D01*
X98315500Y-34697500D01*
X98315500Y-33397500D01*
X98326918Y-33340097D01*
X98359434Y-33291434D01*
X98408097Y-33258918D01*
X98465500Y-33247500D01*
X98765500Y-33247500D01*
X98822903Y-33258918D01*
G37*
G04 #@! TD.AperFunction*
G04 #@! TA.AperFunction,SMDPad,CuDef*
G36*
X100092903Y-33258918D02*
G01*
X100141566Y-33291434D01*
X100174082Y-33340097D01*
X100185500Y-33397500D01*
X100185500Y-34697500D01*
X100174082Y-34754903D01*
X100141566Y-34803566D01*
X100092903Y-34836082D01*
X100035500Y-34847500D01*
X99735500Y-34847500D01*
X99678097Y-34836082D01*
X99629434Y-34803566D01*
X99596918Y-34754903D01*
X99585500Y-34697500D01*
X99585500Y-33397500D01*
X99596918Y-33340097D01*
X99629434Y-33291434D01*
X99678097Y-33258918D01*
X99735500Y-33247500D01*
X100035500Y-33247500D01*
X100092903Y-33258918D01*
G37*
G04 #@! TD.AperFunction*
G04 #@! TA.AperFunction,SMDPad,CuDef*
G36*
X101362903Y-33258918D02*
G01*
X101411566Y-33291434D01*
X101444082Y-33340097D01*
X101455500Y-33397500D01*
X101455500Y-34697500D01*
X101444082Y-34754903D01*
X101411566Y-34803566D01*
X101362903Y-34836082D01*
X101305500Y-34847500D01*
X101005500Y-34847500D01*
X100948097Y-34836082D01*
X100899434Y-34803566D01*
X100866918Y-34754903D01*
X100855500Y-34697500D01*
X100855500Y-33397500D01*
X100866918Y-33340097D01*
X100899434Y-33291434D01*
X100948097Y-33258918D01*
X101005500Y-33247500D01*
X101305500Y-33247500D01*
X101362903Y-33258918D01*
G37*
G04 #@! TD.AperFunction*
G04 #@! TA.AperFunction,SMDPad,CuDef*
G36*
X102632903Y-33258918D02*
G01*
X102681566Y-33291434D01*
X102714082Y-33340097D01*
X102725500Y-33397500D01*
X102725500Y-34697500D01*
X102714082Y-34754903D01*
X102681566Y-34803566D01*
X102632903Y-34836082D01*
X102575500Y-34847500D01*
X102275500Y-34847500D01*
X102218097Y-34836082D01*
X102169434Y-34803566D01*
X102136918Y-34754903D01*
X102125500Y-34697500D01*
X102125500Y-33397500D01*
X102136918Y-33340097D01*
X102169434Y-33291434D01*
X102218097Y-33258918D01*
X102275500Y-33247500D01*
X102575500Y-33247500D01*
X102632903Y-33258918D01*
G37*
G04 #@! TD.AperFunction*
X106825500Y-28395500D03*
D18*
X106025500Y-28395500D03*
D17*
X104425500Y-28395500D03*
D18*
X105225500Y-28395500D03*
D17*
X106825500Y-26595500D03*
D18*
X105225500Y-26595500D03*
X106025500Y-26595500D03*
D17*
X104425500Y-26595500D03*
X108134000Y-26341500D03*
D18*
X109734000Y-26341500D03*
X108934000Y-26341500D03*
D17*
X110534000Y-26341500D03*
D18*
X108934000Y-28141500D03*
D17*
X108134000Y-28141500D03*
D18*
X109734000Y-28141500D03*
D17*
X110534000Y-28141500D03*
D14*
X33020000Y-26290000D03*
X33020000Y-23750000D03*
X35560000Y-26290000D03*
X35560000Y-23750000D03*
X38100000Y-26290000D03*
X38100000Y-23750000D03*
X40640000Y-26290000D03*
X40640000Y-23750000D03*
X43180000Y-26290000D03*
X43180000Y-23750000D03*
X45720000Y-26290000D03*
X45720000Y-23750000D03*
X48260000Y-26290000D03*
X48260000Y-23750000D03*
X50800000Y-26290000D03*
X50800000Y-23750000D03*
X53340000Y-26290000D03*
X53340000Y-23750000D03*
X55880000Y-26290000D03*
X55880000Y-23750000D03*
X58420000Y-26290000D03*
X58420000Y-23750000D03*
X60960000Y-26290000D03*
X60960000Y-23750000D03*
X63500000Y-26290000D03*
X63500000Y-23750000D03*
X66040000Y-26290000D03*
X66040000Y-23750000D03*
X68580000Y-26290000D03*
X68580000Y-23750000D03*
X71120000Y-26290000D03*
X71120000Y-23750000D03*
X73660000Y-26290000D03*
D13*
X73660000Y-23750000D03*
D15*
X101663500Y-46037500D03*
X101663500Y-43497500D03*
D13*
X101663500Y-40957500D03*
D19*
X87506346Y-39430154D03*
X74358500Y-31205010D03*
X73351870Y-31205010D03*
X72626860Y-30480000D03*
X101155500Y-34036000D03*
X99885500Y-34036000D03*
X70485000Y-31940500D03*
X65976500Y-39306500D03*
X74803000Y-39787990D03*
X116903500Y-30543500D03*
X116903500Y-29400500D03*
X112331500Y-30607000D03*
X112337986Y-29464000D03*
X108966000Y-29427590D03*
X108966000Y-30543500D03*
X104425500Y-30607000D03*
X104425462Y-29527500D03*
X74041000Y-36799750D03*
X69088000Y-34189510D03*
X70612000Y-35623500D03*
X69850000Y-34925000D03*
X74358500Y-32702500D03*
X71818500Y-29718000D03*
X73215500Y-37655500D03*
X72453500Y-36893500D03*
X68897500Y-32702500D03*
X67754500Y-32702500D03*
X89916000Y-38417500D03*
X49530000Y-40360510D03*
X76769755Y-28982500D03*
X63500000Y-32702500D03*
X55880000Y-32702500D03*
X76898500Y-27432000D03*
X78422500Y-28257500D03*
X81474998Y-28443177D03*
X90297000Y-30035500D03*
X98597376Y-31135510D03*
X52070000Y-38200490D03*
X79284990Y-38940149D03*
X87439500Y-34798000D03*
X86614000Y-34036000D03*
X84103709Y-39623680D03*
X86781345Y-38685335D03*
X80454500Y-39497000D03*
X79863431Y-40303636D03*
X76263500Y-40513000D03*
X80518000Y-22415500D03*
X80091760Y-30897405D03*
X118484502Y-26278000D03*
X110534002Y-26341500D03*
X104514500Y-34952000D03*
X105975000Y-34952000D03*
X109023000Y-34952000D03*
X110483500Y-34952000D03*
X113976000Y-34888500D03*
X112579000Y-34888500D03*
X117024000Y-34888500D03*
X118484500Y-34888500D03*
X83820000Y-28765500D03*
X83820000Y-27495500D03*
X83820000Y-26225500D03*
X83820000Y-24955500D03*
X97345500Y-34099500D03*
X82105500Y-22415500D03*
X94805500Y-34036000D03*
X77470000Y-40449500D03*
X85471000Y-23685500D03*
X33020000Y-36639500D03*
D20*
X85635500Y-39421500D02*
X87497692Y-39421500D01*
X87497692Y-39421500D02*
X87506346Y-39430154D01*
X88735500Y-38921500D02*
X88015000Y-38921500D01*
X87906345Y-39030155D02*
X87506346Y-39430154D01*
X88015000Y-38921500D02*
X87906345Y-39030155D01*
X87439500Y-34798000D02*
X85531680Y-34798000D01*
X73192545Y-30480000D02*
X72626860Y-30480000D01*
X74358500Y-32702500D02*
X74358500Y-31205010D01*
X73351870Y-32965870D02*
X73351870Y-31770695D01*
X74041000Y-36799750D02*
X74041000Y-33655000D01*
X79756000Y-29972000D02*
X79248000Y-30480000D01*
X73351870Y-31770695D02*
X73351870Y-31205010D01*
X85531680Y-34798000D02*
X80705680Y-29972000D01*
X74041000Y-33655000D02*
X73351870Y-32965870D01*
X80705680Y-29972000D02*
X79756000Y-29972000D01*
X79248000Y-30480000D02*
X73192545Y-30480000D01*
X101155500Y-34047500D02*
X101155500Y-34036000D01*
X99885500Y-34047500D02*
X99885500Y-34036000D01*
X84391500Y-40449500D02*
X80009295Y-40449500D01*
X84828710Y-40012290D02*
X84391500Y-40449500D01*
X85635500Y-38921500D02*
X85000498Y-38921500D01*
X84828710Y-39093288D02*
X84828710Y-40012290D01*
X85000498Y-38921500D02*
X84828710Y-39093288D01*
X80009295Y-40449500D02*
X79863431Y-40303636D01*
X43180000Y-26290000D02*
X46354000Y-29464000D01*
X46354000Y-29464000D02*
X54483000Y-29464000D01*
X69708661Y-31164161D02*
X70085001Y-31540501D01*
X70085001Y-31540501D02*
X70485000Y-31940500D01*
X56183161Y-31164161D02*
X69708661Y-31164161D01*
X54483000Y-29464000D02*
X56183161Y-31164161D01*
D21*
X35687000Y-39306500D02*
X65410815Y-39306500D01*
X33020000Y-36639500D02*
X35687000Y-39306500D01*
X65410815Y-39306500D02*
X65976500Y-39306500D01*
D20*
X66711990Y-38200490D02*
X68299490Y-39787990D01*
X52070000Y-38200490D02*
X66711990Y-38200490D01*
X68299490Y-39787990D02*
X74237315Y-39787990D01*
D21*
X39560500Y-30289500D02*
X53594000Y-30289500D01*
X71628000Y-34226500D02*
X71628000Y-37655500D01*
X35560000Y-26289000D02*
X39560500Y-30289500D01*
X53594000Y-30289500D02*
X55181500Y-31877000D01*
X76008488Y-38987988D02*
X77070001Y-40049501D01*
X71628000Y-37655500D02*
X72960488Y-38987988D01*
X77070001Y-40049501D02*
X77470000Y-40449500D01*
D20*
X74237315Y-39787990D02*
X74803000Y-39787990D01*
D21*
X55181500Y-31877000D02*
X69278500Y-31877000D01*
X69278500Y-31877000D02*
X71628000Y-34226500D01*
X72960488Y-38987988D02*
X76008488Y-38987988D01*
D20*
X76263500Y-40513000D02*
X49682490Y-40513000D01*
X49682490Y-40513000D02*
X49530000Y-40360510D01*
X70104000Y-30353000D02*
X71818500Y-32067500D01*
X72453500Y-36327815D02*
X72453500Y-36893500D01*
X57848500Y-30353000D02*
X70104000Y-30353000D01*
X45720000Y-26290000D02*
X48132000Y-28702000D01*
X56197500Y-28702000D02*
X57848500Y-30353000D01*
X48132000Y-28702000D02*
X56197500Y-28702000D01*
X71818500Y-32067500D02*
X71818500Y-33464500D01*
X71818500Y-33464500D02*
X72453500Y-34099500D01*
X72453500Y-34099500D02*
X72453500Y-36327815D01*
X72517000Y-33210500D02*
X73215500Y-33909000D01*
X72517000Y-31813500D02*
X72517000Y-33210500D01*
X70294500Y-29591000D02*
X72517000Y-31813500D01*
X55880000Y-26290000D02*
X59181000Y-29591000D01*
X59181000Y-29591000D02*
X70294500Y-29591000D01*
X73215500Y-33909000D02*
X73215500Y-37089815D01*
X73215500Y-37089815D02*
X73215500Y-37655500D01*
D22*
X28384500Y-30734000D02*
X28384500Y-23939500D01*
X23876000Y-30734000D02*
X28384500Y-30734000D01*
X28384500Y-23939500D02*
X30734000Y-21590000D01*
X30734000Y-21590000D02*
X79692500Y-21590000D01*
X79692500Y-21590000D02*
X80518000Y-22415500D01*
D20*
X116084500Y-30931000D02*
X117024000Y-31870500D01*
X116084500Y-28141500D02*
X116084500Y-30931000D01*
X117024000Y-31870500D02*
X117024000Y-34888500D01*
X117684500Y-29762500D02*
X116903500Y-30543500D01*
X117684500Y-28141500D02*
X117684500Y-29762500D01*
X116884500Y-28141500D02*
X116884500Y-29381500D01*
X116884500Y-29381500D02*
X116903500Y-29400500D01*
X108134000Y-30854500D02*
X109023000Y-31743500D01*
X108134000Y-28141500D02*
X108134000Y-30854500D01*
X109023000Y-31743500D02*
X109023000Y-34952000D01*
X114738000Y-30613500D02*
X113976000Y-31375500D01*
X114738000Y-28395500D02*
X114738000Y-30613500D01*
X113976000Y-31375500D02*
X113976000Y-34888500D01*
X112579000Y-31629500D02*
X113938000Y-30270500D01*
X113938000Y-30270500D02*
X113938000Y-29737000D01*
X112579000Y-34888500D02*
X112579000Y-31629500D01*
X113938000Y-29737000D02*
X113938000Y-28395500D01*
X113138000Y-29800500D02*
X112776000Y-30162500D01*
X113138000Y-28395500D02*
X113138000Y-29800500D01*
X112776000Y-30162500D02*
X112331500Y-30607000D01*
X112338000Y-28395500D02*
X112338000Y-29463986D01*
X112338000Y-29463986D02*
X112337986Y-29464000D01*
X108934000Y-28141500D02*
X108934000Y-29395590D01*
X108934000Y-29395590D02*
X108966000Y-29427590D01*
X109734000Y-29775500D02*
X108966000Y-30543500D01*
X109734000Y-28141500D02*
X109734000Y-29775500D01*
X106825500Y-30461500D02*
X105975000Y-31312000D01*
X106825500Y-28395500D02*
X106825500Y-30461500D01*
X105975000Y-31312000D02*
X105975000Y-34952000D01*
X106025500Y-30245500D02*
X104514500Y-31756500D01*
X106025500Y-28395500D02*
X106025500Y-30245500D01*
X104514500Y-31756500D02*
X104514500Y-34952000D01*
X105225500Y-29807000D02*
X104425500Y-30607000D01*
X105225500Y-28395500D02*
X105225500Y-29807000D01*
X104425500Y-28395500D02*
X104425500Y-29527462D01*
X104425500Y-29527462D02*
X104425462Y-29527500D01*
X118484500Y-28141500D02*
X118484500Y-31178703D01*
X118484500Y-31178703D02*
X118484500Y-31328703D01*
X110534000Y-28141500D02*
X110534000Y-34901500D01*
X110534000Y-34901500D02*
X110483500Y-34952000D01*
X67754500Y-32702500D02*
X69088000Y-34036000D01*
X68522315Y-34189510D02*
X69088000Y-34189510D01*
X51090990Y-34189510D02*
X68522315Y-34189510D01*
X50800000Y-34480500D02*
X51090990Y-34189510D01*
X69088000Y-34036000D02*
X69088000Y-34189510D01*
X44640500Y-37401500D02*
X68834000Y-37401500D01*
X43614012Y-38427988D02*
X44640500Y-37401500D01*
X68834000Y-37401500D02*
X70212001Y-36023499D01*
X70212001Y-36023499D02*
X70612000Y-35623500D01*
X41729988Y-38427988D02*
X43614012Y-38427988D01*
X40957500Y-37655500D02*
X41729988Y-38427988D01*
X48260000Y-35052000D02*
X49466500Y-36258500D01*
X69850000Y-33655000D02*
X69850000Y-34925000D01*
X68516500Y-36258500D02*
X69450001Y-35324999D01*
X69450001Y-35324999D02*
X69850000Y-34925000D01*
X49466500Y-36258500D02*
X68516500Y-36258500D01*
X68897500Y-32702500D02*
X69850000Y-33655000D01*
X80834090Y-29464000D02*
X79565500Y-29464000D01*
X79311500Y-29718000D02*
X72384185Y-29718000D01*
X72384185Y-29718000D02*
X71818500Y-29718000D01*
X86614000Y-34036000D02*
X85406090Y-34036000D01*
X79565500Y-29464000D02*
X79311500Y-29718000D01*
X85406090Y-34036000D02*
X80834090Y-29464000D01*
X82861002Y-39624000D02*
X85038503Y-37446499D01*
X85038503Y-37446499D02*
X88436999Y-37446499D01*
X80454500Y-39497000D02*
X80581500Y-39624000D01*
X88436999Y-37446499D02*
X88735500Y-37745000D01*
X80581500Y-39624000D02*
X82861002Y-39624000D01*
X88735500Y-37745000D02*
X88735500Y-37921500D01*
X90424000Y-39433500D02*
X90868500Y-38989000D01*
X90868500Y-38989000D02*
X90868500Y-37909500D01*
X90868500Y-37909500D02*
X90297000Y-37338000D01*
X88709500Y-39433500D02*
X90424000Y-39433500D01*
X90297000Y-37338000D02*
X90297000Y-30035500D01*
X88773000Y-38417500D02*
X89916000Y-38417500D01*
X64896000Y-27686000D02*
X76644500Y-27686000D01*
X63500000Y-26290000D02*
X64896000Y-27686000D01*
X76644500Y-27686000D02*
X76898500Y-27432000D01*
X61112500Y-28982500D02*
X76769755Y-28982500D01*
X58420000Y-26290000D02*
X61112500Y-28982500D01*
D23*
X55880000Y-32702500D02*
X63500000Y-32702500D01*
X52451000Y-31178500D02*
X53975000Y-32702500D01*
X43180000Y-31178500D02*
X52451000Y-31178500D01*
X55314315Y-32702500D02*
X55880000Y-32702500D01*
X53975000Y-32702500D02*
X55314315Y-32702500D01*
D20*
X62927500Y-28257500D02*
X77856815Y-28257500D01*
X77856815Y-28257500D02*
X78422500Y-28257500D01*
X60960000Y-26290000D02*
X62927500Y-28257500D01*
D23*
X81601998Y-23685500D02*
X81474998Y-23812500D01*
X83808500Y-23685500D02*
X81601998Y-23685500D01*
X81474998Y-23812500D02*
X81474998Y-28443177D01*
X90297000Y-30035500D02*
X90308500Y-30035500D01*
X90297000Y-30035500D02*
X96329500Y-30035500D01*
X102425500Y-30035500D02*
X102425500Y-34099500D01*
X96329500Y-30035500D02*
X102425500Y-30035500D01*
X102425500Y-27547500D02*
X102425500Y-30035500D01*
D20*
X98615500Y-34047500D02*
X98615500Y-31153634D01*
X98615500Y-31153634D02*
X98597376Y-31135510D01*
D23*
X93980000Y-42164000D02*
X94805500Y-41338500D01*
X94805500Y-41338500D02*
X94805500Y-34036000D01*
X83947000Y-22415500D02*
X84645500Y-22415500D01*
X83820000Y-22288500D02*
X83947000Y-22415500D01*
X83808500Y-21145500D02*
X83820000Y-21157000D01*
X84645500Y-22415500D02*
X85471000Y-23241000D01*
X83820000Y-21157000D02*
X83820000Y-22288500D01*
X85471000Y-23241000D02*
X85471000Y-23685500D01*
D22*
X80518000Y-22415500D02*
X80962500Y-22415500D01*
D23*
X81470500Y-22556980D02*
X81470500Y-23861520D01*
X81509490Y-22517990D02*
X81470500Y-22556980D01*
X79109139Y-39116000D02*
X79284990Y-38940149D01*
X79084000Y-39116000D02*
X79109139Y-39116000D01*
D20*
X84740204Y-38421500D02*
X84103709Y-39057995D01*
X85635500Y-38421500D02*
X84740204Y-38421500D01*
X84103709Y-39057995D02*
X84103709Y-39623680D01*
X86583195Y-37921500D02*
X86781345Y-38119650D01*
X85635500Y-37921500D02*
X86583195Y-37921500D01*
X86781345Y-38119650D02*
X86781345Y-38685335D01*
D22*
X78740000Y-40703500D02*
X78740000Y-38989000D01*
X78740000Y-38989000D02*
X78740000Y-33528000D01*
X78740000Y-42164000D02*
X78740000Y-40703500D01*
D23*
X37338000Y-31178500D02*
X43180000Y-31178500D01*
X24320500Y-31178500D02*
X37338000Y-31178500D01*
X78740000Y-33528000D02*
X80091760Y-32176240D01*
X80091760Y-32176240D02*
X80091760Y-31463090D01*
X80091760Y-31463090D02*
X80091760Y-30897405D01*
D20*
X81407000Y-22415500D02*
X81509490Y-22517990D01*
X80962500Y-22415500D02*
X81407000Y-22415500D01*
D22*
X80962500Y-22415500D02*
X82105500Y-22415500D01*
D20*
X105300110Y-25328110D02*
X106013000Y-26041000D01*
X106013000Y-26041000D02*
X106013000Y-26595500D01*
X105650099Y-24878099D02*
X106827000Y-26055000D01*
X106827000Y-26055000D02*
X106827000Y-26595500D01*
X106226588Y-24428088D02*
X108134000Y-26335500D01*
X107226577Y-23978077D02*
X108934000Y-25685500D01*
X108934000Y-25685500D02*
X108934000Y-26335500D01*
X107632066Y-23528066D02*
X109734000Y-25630000D01*
X109734000Y-25630000D02*
X109734000Y-26335500D01*
X110861022Y-21728022D02*
X114712500Y-25579500D01*
X114712500Y-25579500D02*
X114712500Y-26659000D01*
X111171011Y-21278011D02*
X116084500Y-26191500D01*
X116084500Y-26191500D02*
X116084500Y-26341500D01*
X112120000Y-20828000D02*
X116871500Y-25579500D01*
X116871500Y-25579500D02*
X116871500Y-26341500D01*
X117684500Y-25630500D02*
X112404010Y-20350010D01*
X117684500Y-26341500D02*
X117684500Y-25630500D01*
X105187500Y-26019750D02*
X105187500Y-26595500D01*
X104945871Y-25778121D02*
X105187500Y-26019750D01*
X103994632Y-26228132D02*
X104362000Y-26595500D01*
X118484500Y-34888500D02*
X118484500Y-34322815D01*
X118484500Y-34322815D02*
X118484500Y-31269000D01*
X118484500Y-26277998D02*
X118484502Y-26278000D01*
X118484500Y-26267203D02*
X118484500Y-26277998D01*
X110534000Y-26341498D02*
X110534002Y-26341500D01*
X110534000Y-26335500D02*
X110534000Y-26341498D01*
D24*
X33020000Y-42164000D02*
X34222081Y-42164000D01*
X34222081Y-42164000D02*
X35560000Y-42164000D01*
X35560000Y-42164000D02*
X36762081Y-42164000D01*
X36762081Y-42164000D02*
X38100000Y-42164000D01*
X38100000Y-42164000D02*
X40640000Y-42164000D01*
X40640000Y-42164000D02*
X43180000Y-42164000D01*
X43180000Y-42164000D02*
X44382081Y-42164000D01*
X44382081Y-42164000D02*
X45720000Y-42164000D01*
X45720000Y-42164000D02*
X46922081Y-42164000D01*
X46922081Y-42164000D02*
X48260000Y-42164000D01*
X48260000Y-42164000D02*
X49462081Y-42164000D01*
X49462081Y-42164000D02*
X50800000Y-42164000D01*
X50800000Y-42164000D02*
X52002081Y-42164000D01*
X52002081Y-42164000D02*
X53340000Y-42164000D01*
X53340000Y-42164000D02*
X54542081Y-42164000D01*
X54542081Y-42164000D02*
X55880000Y-42164000D01*
X55880000Y-42164000D02*
X57082081Y-42164000D01*
X57082081Y-42164000D02*
X58420000Y-42164000D01*
X58420000Y-42164000D02*
X59622081Y-42164000D01*
X59622081Y-42164000D02*
X60960000Y-42164000D01*
X60960000Y-42164000D02*
X62162081Y-42164000D01*
X62162081Y-42164000D02*
X63500000Y-42164000D01*
X63500000Y-42164000D02*
X64702081Y-42164000D01*
X64702081Y-42164000D02*
X66040000Y-42164000D01*
X66040000Y-42164000D02*
X67242081Y-42164000D01*
X67242081Y-42164000D02*
X68580000Y-42164000D01*
X68580000Y-42164000D02*
X71120000Y-42164000D01*
X71120000Y-42164000D02*
X73660000Y-42164000D01*
X73660000Y-42164000D02*
X74862081Y-42164000D01*
X74862081Y-42164000D02*
X76200000Y-42164000D01*
X76200000Y-42164000D02*
X77402081Y-42164000D01*
X77402081Y-42164000D02*
X78740000Y-42164000D01*
X78740000Y-42164000D02*
X79942081Y-42164000D01*
X79942081Y-42164000D02*
X81280000Y-42164000D01*
X81280000Y-42164000D02*
X82482081Y-42164000D01*
X82482081Y-42164000D02*
X83820000Y-42164000D01*
X83820000Y-42164000D02*
X86360000Y-42164000D01*
X86360000Y-42164000D02*
X87562081Y-42164000D01*
X87562081Y-42164000D02*
X88900000Y-42164000D01*
X88900000Y-42164000D02*
X90102081Y-42164000D01*
X90102081Y-42164000D02*
X91440000Y-42164000D01*
X91440000Y-42164000D02*
X92642081Y-42164000D01*
X92642081Y-42164000D02*
X93980000Y-42164000D01*
D20*
X118548000Y-34825000D02*
X118484500Y-34888500D01*
X110485533Y-22178033D02*
X113938000Y-25630500D01*
X113938000Y-25945500D02*
X113938000Y-26595500D01*
X113938000Y-25630500D02*
X113938000Y-25945500D01*
X113125000Y-25643000D02*
X113125000Y-26595500D01*
X110110044Y-22628044D02*
X113125000Y-25643000D01*
X108845555Y-23078055D02*
X112363000Y-26595500D01*
X91694000Y-27495500D02*
X91821000Y-27368500D01*
X91440000Y-28765500D02*
X92456000Y-27749500D01*
X92456000Y-27749500D02*
X92456000Y-26606500D01*
X99885500Y-27547500D02*
X99885500Y-26686931D01*
X98615500Y-27547500D02*
X98615500Y-26670000D01*
X95074717Y-22178033D02*
X110485533Y-22178033D01*
X91821000Y-26352500D02*
X95545456Y-22628044D01*
X91821000Y-27368500D02*
X91821000Y-26352500D01*
X95545456Y-22628044D02*
X110110044Y-22628044D01*
X95984445Y-23078055D02*
X108845555Y-23078055D01*
X92456000Y-26606500D02*
X95984445Y-23078055D01*
X101155500Y-26479500D02*
X101406868Y-26228132D01*
X92647535Y-20350010D02*
X98426490Y-20350010D01*
X91821000Y-22415500D02*
X93408500Y-20828000D01*
X112404010Y-20350010D02*
X98425000Y-20350010D01*
X93910989Y-21278011D02*
X111171011Y-21278011D01*
X100794310Y-25778121D02*
X104945871Y-25778121D01*
X93408500Y-20828000D02*
X112120000Y-20828000D01*
X91503500Y-23685500D02*
X93910989Y-21278011D01*
X101406868Y-26228132D02*
X103994632Y-26228132D01*
X101155500Y-27547500D02*
X101155500Y-26479500D01*
X91852045Y-21145500D02*
X92647535Y-20350010D01*
X99885500Y-26686931D02*
X100794310Y-25778121D01*
X91217045Y-24955500D02*
X94444523Y-21728022D01*
X97306923Y-23978077D02*
X107226577Y-23978077D01*
X96486934Y-23528066D02*
X107632066Y-23528066D01*
X94444523Y-21728022D02*
X110861022Y-21728022D01*
X93535500Y-27547500D02*
X93535500Y-26479500D01*
X94805500Y-27547500D02*
X94805500Y-26479500D01*
X93535500Y-26479500D02*
X96486934Y-23528066D01*
X94805500Y-26479500D02*
X97306923Y-23978077D01*
X96075500Y-27547500D02*
X96075500Y-26479500D01*
X98126912Y-24428088D02*
X106226588Y-24428088D01*
X97345500Y-27547500D02*
X97345500Y-26479500D01*
X96075500Y-26479500D02*
X98126912Y-24428088D01*
X98946901Y-24878099D02*
X105650099Y-24878099D01*
X99957390Y-25328110D02*
X105300110Y-25328110D01*
X98615500Y-26670000D02*
X99957390Y-25328110D01*
X97345500Y-26479500D02*
X98946901Y-24878099D01*
X91027250Y-26225500D02*
X95074717Y-22178033D01*
X90308500Y-26225500D02*
X91027250Y-26225500D01*
X90308500Y-27495500D02*
X91694000Y-27495500D01*
X90308500Y-28765500D02*
X91440000Y-28765500D01*
X90308500Y-22415500D02*
X91821000Y-22415500D01*
X90308500Y-21145500D02*
X91852045Y-21145500D01*
X90308500Y-23685500D02*
X91503500Y-23685500D01*
X90308500Y-24955500D02*
X91217045Y-24955500D01*
X78740000Y-39460000D02*
X79084000Y-39116000D01*
X78740000Y-40703500D02*
X78740000Y-39460000D01*
D23*
X102425500Y-30035500D02*
X102425500Y-30734000D01*
X40640000Y-34988500D02*
X40957500Y-34671000D01*
X40640000Y-35052000D02*
X40957500Y-35369500D01*
X40957500Y-35369500D02*
X40957500Y-37655500D01*
X42860000Y-37211000D02*
X42860000Y-34737000D01*
X42860000Y-34737000D02*
X43180000Y-34417000D01*
X43180000Y-34480500D02*
X43180000Y-31178500D01*
X43180000Y-31178500D02*
X43243500Y-31242000D01*
X23876000Y-30734000D02*
X24320500Y-31178500D01*
D22*
X95186500Y-40957500D02*
X93980000Y-42164000D01*
X101663500Y-40957500D02*
X95186500Y-40957500D01*
D23*
X93535500Y-34036000D02*
X94805500Y-34036000D01*
X83808500Y-30035500D02*
X90297000Y-30035500D01*
D20*
X96075500Y-30289500D02*
X96329500Y-30035500D01*
D23*
X96075500Y-34047500D02*
X96075500Y-30289500D01*
G36*
X82360500Y-32700207D02*
G01*
X82360500Y-38482000D01*
X80661538Y-38482000D01*
X80590628Y-38463000D01*
X80318372Y-38463000D01*
X80247462Y-38482000D01*
X76681953Y-38482000D01*
X76664283Y-38464330D01*
X76650132Y-38441904D01*
X76579288Y-38379336D01*
X76555922Y-38355969D01*
X76535504Y-38340666D01*
X76471076Y-38283766D01*
X76440305Y-38269319D01*
X76413107Y-38248935D01*
X76332646Y-38218773D01*
X76254475Y-38182071D01*
X76221662Y-38177167D01*
X76189415Y-38165079D01*
X76092663Y-38157889D01*
X76066565Y-38153988D01*
X76040171Y-38153988D01*
X75951181Y-38147374D01*
X75920197Y-38153988D01*
X75056000Y-38153988D01*
X75056000Y-37006788D01*
X75075000Y-36935878D01*
X75075000Y-36663622D01*
X75056000Y-36592712D01*
X75056000Y-33467296D01*
X75185906Y-33337391D01*
X75322034Y-33101609D01*
X75392500Y-32838628D01*
X75392500Y-32566372D01*
X75322034Y-32303391D01*
X75185906Y-32067609D01*
X75117500Y-31999204D01*
X75117500Y-31908306D01*
X75185906Y-31839901D01*
X75322034Y-31604119D01*
X75392500Y-31341138D01*
X75392500Y-31239000D01*
X79308244Y-31239000D01*
X79308250Y-31238999D01*
X79368213Y-31238999D01*
X79425726Y-31220312D01*
X79485468Y-31210850D01*
X79539359Y-31183390D01*
X79596873Y-31164704D01*
X79645801Y-31129156D01*
X79675545Y-31114000D01*
X80774294Y-31114000D01*
X82360500Y-32700207D01*
G37*
D25*
X82360500Y-32700207D02*
X82360500Y-38482000D01*
X80661538Y-38482000D01*
X80590628Y-38463000D01*
X80318372Y-38463000D01*
X80247462Y-38482000D01*
X76681953Y-38482000D01*
X76664283Y-38464330D01*
X76650132Y-38441904D01*
X76579288Y-38379336D01*
X76555922Y-38355969D01*
X76535504Y-38340666D01*
X76471076Y-38283766D01*
X76440305Y-38269319D01*
X76413107Y-38248935D01*
X76332646Y-38218773D01*
X76254475Y-38182071D01*
X76221662Y-38177167D01*
X76189415Y-38165079D01*
X76092663Y-38157889D01*
X76066565Y-38153988D01*
X76040171Y-38153988D01*
X75951181Y-38147374D01*
X75920197Y-38153988D01*
X75056000Y-38153988D01*
X75056000Y-37006788D01*
X75075000Y-36935878D01*
X75075000Y-36663622D01*
X75056000Y-36592712D01*
X75056000Y-33467296D01*
X75185906Y-33337391D01*
X75322034Y-33101609D01*
X75392500Y-32838628D01*
X75392500Y-32566372D01*
X75322034Y-32303391D01*
X75185906Y-32067609D01*
X75117500Y-31999204D01*
X75117500Y-31908306D01*
X75185906Y-31839901D01*
X75322034Y-31604119D01*
X75392500Y-31341138D01*
X75392500Y-31239000D01*
X79308244Y-31239000D01*
X79308250Y-31238999D01*
X79368213Y-31238999D01*
X79425726Y-31220312D01*
X79485468Y-31210850D01*
X79539359Y-31183390D01*
X79596873Y-31164704D01*
X79645801Y-31129156D01*
X79675545Y-31114000D01*
X80774294Y-31114000D01*
X82360500Y-32700207D01*
M02*
