G04 #@! TF.GenerationSoftware,KiCad,Pcbnew,(5.99.0-576-ga860ac506)*
G04 #@! TF.CreationDate,2021-04-05T12:44:30+02:00*
G04 #@! TF.ProjectId,50 pin to 34 pin Floppy Adapter,35302070-696e-4207-946f-203334207069,rev?*
G04 #@! TF.SameCoordinates,Original*
G04 #@! TF.FileFunction,Legend,Bot*
G04 #@! TF.FilePolarity,Positive*
%FSLAX46Y46*%
G04 Gerber Fmt 4.6, Leading zero omitted, Abs format (unit mm)*
G04 Created by KiCad (PCBNEW (5.99.0-576-ga860ac506)) date 2021-04-05 12:44:30*
%MOMM*%
%LPD*%
G04 APERTURE LIST*
%ADD10C,0.120000*%
%ADD11C,0.150000*%
G04 APERTURE END LIST*
D10*
X88285500Y-39771500D02*
X85285500Y-39771500D01*
X88285500Y-37571500D02*
X86085500Y-37571500D01*
X42510000Y-36331000D02*
X41310000Y-36331000D01*
X41310000Y-38091000D02*
X42510000Y-38091000D01*
X87058500Y-20330500D02*
X89443500Y-20330500D01*
X89443500Y-20330500D02*
X89443500Y-20585500D01*
X87058500Y-20330500D02*
X84673500Y-20330500D01*
X84673500Y-20330500D02*
X84673500Y-20585500D01*
X87058500Y-30850500D02*
X89443500Y-30850500D01*
X89443500Y-30850500D02*
X89443500Y-30595500D01*
X87058500Y-30850500D02*
X84673500Y-30850500D01*
X84673500Y-30850500D02*
X84673500Y-30595500D01*
X84673500Y-30595500D02*
X83008500Y-30595500D01*
X115218000Y-27995500D02*
X115218000Y-26995500D01*
X111858000Y-27995500D02*
X111858000Y-26995500D01*
X118964500Y-27741500D02*
X118964500Y-26741500D01*
X115604500Y-27741500D02*
X115604500Y-26741500D01*
X102985500Y-33182500D02*
X102985500Y-34847500D01*
X103240500Y-33182500D02*
X102985500Y-33182500D01*
X103240500Y-30797500D02*
X103240500Y-33182500D01*
X103240500Y-28412500D02*
X102985500Y-28412500D01*
X103240500Y-30797500D02*
X103240500Y-28412500D01*
X92720500Y-33182500D02*
X92975500Y-33182500D01*
X92720500Y-30797500D02*
X92720500Y-33182500D01*
X92720500Y-28412500D02*
X92975500Y-28412500D01*
X92720500Y-30797500D02*
X92720500Y-28412500D01*
X103945500Y-27995500D02*
X103945500Y-26995500D01*
X107305500Y-27995500D02*
X107305500Y-26995500D01*
X111014000Y-27741500D02*
X111014000Y-26741500D01*
X107654000Y-27741500D02*
X107654000Y-26741500D01*
D11*
X87947404Y-39965380D02*
X87947404Y-40774904D01*
X87899785Y-40870142D01*
X87852166Y-40917761D01*
X87756928Y-40965380D01*
X87566452Y-40965380D01*
X87471214Y-40917761D01*
X87423595Y-40870142D01*
X87375976Y-40774904D01*
X87375976Y-39965380D01*
X86756928Y-40393952D02*
X86852166Y-40346333D01*
X86899785Y-40298714D01*
X86947404Y-40203476D01*
X86947404Y-40155857D01*
X86899785Y-40060619D01*
X86852166Y-40013000D01*
X86756928Y-39965380D01*
X86566452Y-39965380D01*
X86471214Y-40013000D01*
X86423595Y-40060619D01*
X86375976Y-40155857D01*
X86375976Y-40203476D01*
X86423595Y-40298714D01*
X86471214Y-40346333D01*
X86566452Y-40393952D01*
X86756928Y-40393952D01*
X86852166Y-40441571D01*
X86899785Y-40489190D01*
X86947404Y-40584428D01*
X86947404Y-40774904D01*
X86899785Y-40870142D01*
X86852166Y-40917761D01*
X86756928Y-40965380D01*
X86566452Y-40965380D01*
X86471214Y-40917761D01*
X86423595Y-40870142D01*
X86375976Y-40774904D01*
X86375976Y-40584428D01*
X86423595Y-40489190D01*
X86471214Y-40441571D01*
X86566452Y-40393952D01*
X42076666Y-39377880D02*
X42410000Y-38901690D01*
X42648095Y-39377880D02*
X42648095Y-38377880D01*
X42267142Y-38377880D01*
X42171904Y-38425500D01*
X42124285Y-38473119D01*
X42076666Y-38568357D01*
X42076666Y-38711214D01*
X42124285Y-38806452D01*
X42171904Y-38854071D01*
X42267142Y-38901690D01*
X42648095Y-38901690D01*
X41124285Y-39377880D02*
X41695714Y-39377880D01*
X41410000Y-39377880D02*
X41410000Y-38377880D01*
X41505238Y-38520738D01*
X41600476Y-38615976D01*
X41695714Y-38663595D01*
X87820404Y-31142880D02*
X87820404Y-31952404D01*
X87772785Y-32047642D01*
X87725166Y-32095261D01*
X87629928Y-32142880D01*
X87439452Y-32142880D01*
X87344214Y-32095261D01*
X87296595Y-32047642D01*
X87248976Y-31952404D01*
X87248976Y-31142880D01*
X86868023Y-31142880D02*
X86248976Y-31142880D01*
X86582309Y-31523833D01*
X86439452Y-31523833D01*
X86344214Y-31571452D01*
X86296595Y-31619071D01*
X86248976Y-31714309D01*
X86248976Y-31952404D01*
X86296595Y-32047642D01*
X86344214Y-32095261D01*
X86439452Y-32142880D01*
X86725166Y-32142880D01*
X86820404Y-32095261D01*
X86868023Y-32047642D01*
X114221976Y-25788677D02*
X114555309Y-25312487D01*
X114793404Y-25788677D02*
X114793404Y-24788677D01*
X114412452Y-24788677D01*
X114317214Y-24836297D01*
X114269595Y-24883916D01*
X114221976Y-24979154D01*
X114221976Y-25122011D01*
X114269595Y-25217249D01*
X114317214Y-25264868D01*
X114412452Y-25312487D01*
X114793404Y-25312487D01*
X113793404Y-25788677D02*
X113793404Y-24788677D01*
X113221976Y-25788677D01*
X113221976Y-24788677D01*
X112317214Y-24788677D02*
X112507690Y-24788677D01*
X112602928Y-24836297D01*
X112650547Y-24883916D01*
X112745785Y-25026773D01*
X112793404Y-25217249D01*
X112793404Y-25598201D01*
X112745785Y-25693439D01*
X112698166Y-25741058D01*
X112602928Y-25788677D01*
X112412452Y-25788677D01*
X112317214Y-25741058D01*
X112269595Y-25693439D01*
X112221976Y-25598201D01*
X112221976Y-25360106D01*
X112269595Y-25264868D01*
X112317214Y-25217249D01*
X112412452Y-25169630D01*
X112602928Y-25169630D01*
X112698166Y-25217249D01*
X112745785Y-25264868D01*
X112793404Y-25360106D01*
X117942976Y-25534677D02*
X118276309Y-25058487D01*
X118514404Y-25534677D02*
X118514404Y-24534677D01*
X118133452Y-24534677D01*
X118038214Y-24582297D01*
X117990595Y-24629916D01*
X117942976Y-24725154D01*
X117942976Y-24868011D01*
X117990595Y-24963249D01*
X118038214Y-25010868D01*
X118133452Y-25058487D01*
X118514404Y-25058487D01*
X117514404Y-25534677D02*
X117514404Y-24534677D01*
X116942976Y-25534677D01*
X116942976Y-24534677D01*
X115990595Y-24534677D02*
X116466785Y-24534677D01*
X116514404Y-25010868D01*
X116466785Y-24963249D01*
X116371547Y-24915630D01*
X116133452Y-24915630D01*
X116038214Y-24963249D01*
X115990595Y-25010868D01*
X115942976Y-25106106D01*
X115942976Y-25344201D01*
X115990595Y-25439439D01*
X116038214Y-25487058D01*
X116133452Y-25534677D01*
X116371547Y-25534677D01*
X116466785Y-25487058D01*
X116514404Y-25439439D01*
X98742404Y-35393380D02*
X98742404Y-36202904D01*
X98694785Y-36298142D01*
X98647166Y-36345761D01*
X98551928Y-36393380D01*
X98361452Y-36393380D01*
X98266214Y-36345761D01*
X98218595Y-36298142D01*
X98170976Y-36202904D01*
X98170976Y-35393380D01*
X97742404Y-35488619D02*
X97694785Y-35441000D01*
X97599547Y-35393380D01*
X97361452Y-35393380D01*
X97266214Y-35441000D01*
X97218595Y-35488619D01*
X97170976Y-35583857D01*
X97170976Y-35679095D01*
X97218595Y-35821952D01*
X97790023Y-36393380D01*
X97170976Y-36393380D01*
X106320976Y-25731880D02*
X106654309Y-25255690D01*
X106892404Y-25731880D02*
X106892404Y-24731880D01*
X106511452Y-24731880D01*
X106416214Y-24779500D01*
X106368595Y-24827119D01*
X106320976Y-24922357D01*
X106320976Y-25065214D01*
X106368595Y-25160452D01*
X106416214Y-25208071D01*
X106511452Y-25255690D01*
X106892404Y-25255690D01*
X105892404Y-25731880D02*
X105892404Y-24731880D01*
X105320976Y-25731880D01*
X105320976Y-24731880D01*
X104892404Y-24827119D02*
X104844785Y-24779500D01*
X104749547Y-24731880D01*
X104511452Y-24731880D01*
X104416214Y-24779500D01*
X104368595Y-24827119D01*
X104320976Y-24922357D01*
X104320976Y-25017595D01*
X104368595Y-25160452D01*
X104940023Y-25731880D01*
X104320976Y-25731880D01*
X110005476Y-25529880D02*
X110338809Y-25053690D01*
X110576904Y-25529880D02*
X110576904Y-24529880D01*
X110195952Y-24529880D01*
X110100714Y-24577500D01*
X110053095Y-24625119D01*
X110005476Y-24720357D01*
X110005476Y-24863214D01*
X110053095Y-24958452D01*
X110100714Y-25006071D01*
X110195952Y-25053690D01*
X110576904Y-25053690D01*
X109576904Y-25529880D02*
X109576904Y-24529880D01*
X109005476Y-25529880D01*
X109005476Y-24529880D01*
X108005476Y-25529880D02*
X108576904Y-25529880D01*
X108291190Y-25529880D02*
X108291190Y-24529880D01*
X108386428Y-24672738D01*
X108481666Y-24767976D01*
X108576904Y-24815595D01*
M02*
