M48
; DRILL file {KiCad (5.99.0-576-ga860ac506)} date 05.04.2021 12:44:28
; FORMAT={-:-/ absolute / metric / decimal}
; #@! TF.CreationDate,2021-04-05T12:44:28+02:00
; #@! TF.GenerationSoftware,Kicad,Pcbnew,(5.99.0-576-ga860ac506)
; #@! TF.FileFunction,Plated,1,2,PTH
FMAT,2
METRIC
T1C0.400
T2C1.000
T3C1.200
%
G90
G05
T1
X33.02Y-36.639
X49.53Y-40.361
X52.07Y-38.2
X55.88Y-32.703
X63.5Y-32.703
X65.977Y-39.306
X67.754Y-32.703
X68.897Y-32.703
X69.088Y-34.19
X69.85Y-34.925
X70.485Y-31.941
X70.612Y-35.623
X71.819Y-29.718
X72.453Y-36.893
X72.627Y-30.48
X73.215Y-37.655
X73.352Y-31.205
X74.041Y-36.8
X74.358Y-31.205
X74.358Y-32.703
X74.803Y-39.788
X76.263Y-40.513
X76.77Y-28.982
X76.898Y-27.432
X77.47Y-40.45
X78.422Y-28.258
X79.285Y-38.94
X79.863Y-40.304
X80.092Y-30.897
X80.454Y-39.497
X80.518Y-22.415
X81.475Y-28.443
X82.105Y-22.415
X83.82Y-24.955
X83.82Y-26.226
X83.82Y-27.495
X83.82Y-28.765
X84.104Y-39.624
X85.471Y-23.685
X86.614Y-34.036
X86.781Y-38.685
X87.439Y-34.798
X87.506Y-39.43
X89.916Y-38.417
X90.297Y-30.035
X94.805Y-34.036
X97.346Y-34.099
X98.597Y-31.136
X99.885Y-34.036
X101.155Y-34.036
X104.425Y-29.527
X104.425Y-30.607
X104.514Y-34.952
X105.975Y-34.952
X108.966Y-29.428
X108.966Y-30.543
X109.023Y-34.952
X110.483Y-34.952
X110.534Y-26.341
X112.331Y-30.607
X112.338Y-29.464
X112.579Y-34.889
X113.976Y-34.889
X116.903Y-29.4
X116.903Y-30.543
X117.024Y-34.889
X118.484Y-34.889
X118.485Y-26.278
T2
X33.02Y-23.75
X33.02Y-26.29
X35.56Y-23.75
X35.56Y-26.29
X38.1Y-23.75
X38.1Y-26.29
X40.64Y-23.75
X40.64Y-26.29
X43.18Y-23.75
X43.18Y-26.29
X45.72Y-23.75
X45.72Y-26.29
X48.26Y-23.75
X48.26Y-26.29
X50.8Y-23.75
X50.8Y-26.29
X53.34Y-23.75
X53.34Y-26.29
X55.88Y-23.75
X55.88Y-26.29
X58.42Y-23.75
X58.42Y-26.29
X60.96Y-23.75
X60.96Y-26.29
X63.5Y-23.75
X63.5Y-26.29
X66.04Y-23.75
X66.04Y-26.29
X68.58Y-23.75
X68.58Y-26.29
X71.12Y-23.75
X71.12Y-26.29
X73.66Y-23.75
X73.66Y-26.29
X40.64Y-34.417
X43.18Y-34.417
X45.72Y-34.417
X48.26Y-34.417
X50.8Y-34.417
X101.663Y-40.957
X101.663Y-43.497
X101.663Y-46.038
X33.02Y-42.164
X33.02Y-44.704
X35.56Y-42.164
X35.56Y-44.704
X38.1Y-42.164
X38.1Y-44.704
X40.64Y-42.164
X40.64Y-44.704
X43.18Y-42.164
X43.18Y-44.704
X45.72Y-42.164
X45.72Y-44.704
X48.26Y-42.164
X48.26Y-44.704
X50.8Y-42.164
X50.8Y-44.704
X53.34Y-42.164
X53.34Y-44.704
X55.88Y-42.164
X55.88Y-44.704
X58.42Y-42.164
X58.42Y-44.704
X60.96Y-42.164
X60.96Y-44.704
X63.5Y-42.164
X63.5Y-44.704
X66.04Y-42.164
X66.04Y-44.704
X68.58Y-42.164
X68.58Y-44.704
X71.12Y-42.164
X71.12Y-44.704
X73.66Y-42.164
X73.66Y-44.704
X76.2Y-42.164
X76.2Y-44.704
X78.74Y-42.164
X78.74Y-44.704
X81.28Y-42.164
X81.28Y-44.704
X83.82Y-42.164
X83.82Y-44.704
X86.36Y-42.164
X86.36Y-44.704
X88.9Y-42.164
X88.9Y-44.704
X91.44Y-42.164
X91.44Y-44.704
X93.98Y-42.164
X93.98Y-44.704
T3
X23.876Y-23.171
X23.876Y-25.671
X23.876Y-28.17
X23.876Y-30.67
T0
M30
