G04 #@! TF.GenerationSoftware,KiCad,Pcbnew,(5.99.0-576-ga860ac506)*
G04 #@! TF.CreationDate,2021-04-05T12:44:30+02:00*
G04 #@! TF.ProjectId,50 pin to 34 pin Floppy Adapter,35302070-696e-4207-946f-203334207069,rev?*
G04 #@! TF.SameCoordinates,Original*
G04 #@! TF.FileFunction,AssemblyDrawing,Top*
%FSLAX46Y46*%
G04 Gerber Fmt 4.6, Leading zero omitted, Abs format (unit mm)*
G04 Created by KiCad (PCBNEW (5.99.0-576-ga860ac506)) date 2021-04-05 12:44:30*
%MOMM*%
%LPD*%
G04 APERTURE LIST*
%ADD10C,0.120000*%
%ADD11C,0.100000*%
%ADD12C,0.150000*%
%ADD13C,0.075000*%
G04 APERTURE END LIST*
D10*
X20756000Y-21700500D02*
X20756000Y-32140500D01*
X26956000Y-21700500D02*
X20756000Y-21700500D01*
X26956000Y-32140500D02*
X26956000Y-21700500D01*
X20756000Y-32140500D02*
X26956000Y-32140500D01*
D11*
X64120000Y-32752500D02*
X62880000Y-32752500D01*
X64120000Y-30752500D02*
X64120000Y-32752500D01*
X62880000Y-30752500D02*
X64120000Y-30752500D01*
X62880000Y-32752500D02*
X62880000Y-30752500D01*
X79672000Y-24788500D02*
X79672000Y-25638500D01*
X80172000Y-26138500D02*
X81872000Y-26138500D01*
X79672000Y-24788500D02*
X81872000Y-24788500D01*
X81872000Y-24788500D02*
X81872000Y-26138500D01*
X79672000Y-25638500D02*
X80172000Y-26138500D01*
X23205500Y-33080500D02*
X23205500Y-35880500D01*
X23205500Y-35880500D02*
X26705500Y-35880500D01*
X26705500Y-35880500D02*
X26705500Y-33080500D01*
X26705500Y-33080500D02*
X23205500Y-33080500D01*
X23555500Y-33080500D02*
X23555500Y-35880500D01*
X23730500Y-33080500D02*
X23730500Y-35880500D01*
X24455500Y-37080000D02*
X24455500Y-36580000D01*
X25455500Y-37080000D02*
X24455500Y-37080000D01*
X25455500Y-36580000D02*
X25455500Y-37080000D01*
X24455500Y-36580000D02*
X25455500Y-36580000D01*
X39370000Y-35052000D02*
X39370000Y-33147000D01*
X39370000Y-33147000D02*
X52070000Y-33147000D01*
X52070000Y-33147000D02*
X52070000Y-35687000D01*
X52070000Y-35687000D02*
X40005000Y-35687000D01*
X40005000Y-35687000D02*
X39370000Y-35052000D01*
X56500000Y-32747500D02*
X55260000Y-32747500D01*
X56500000Y-30747500D02*
X56500000Y-32747500D01*
X55260000Y-30747500D02*
X56500000Y-30747500D01*
X55260000Y-32747500D02*
X55260000Y-30747500D01*
X105141000Y-42910000D02*
X103901000Y-42910000D01*
X105141000Y-40910000D02*
X105141000Y-42910000D01*
X103901000Y-40910000D02*
X105141000Y-40910000D01*
X103901000Y-42910000D02*
X103901000Y-40910000D01*
X118950000Y-23919500D02*
X118950000Y-33919500D01*
X118950000Y-33919500D02*
X114050000Y-33919500D01*
X114050000Y-33919500D02*
X112050000Y-31919500D01*
X112050000Y-31919500D02*
X112050000Y-23919500D01*
X112050000Y-23919500D02*
X118950000Y-23919500D01*
X110949000Y-23919500D02*
X110949000Y-33919500D01*
X110949000Y-33919500D02*
X106049000Y-33919500D01*
X106049000Y-33919500D02*
X104049000Y-31919500D01*
X104049000Y-31919500D02*
X104049000Y-23919500D01*
X104049000Y-23919500D02*
X110949000Y-23919500D01*
X112431214Y-40640000D02*
G75*
G03*
X112431214Y-40640000I-1750714J0D01*
G01*
X107680500Y-43640000D02*
X113680500Y-43640000D01*
X107680500Y-37640000D02*
X107680500Y-43640000D01*
X113680500Y-37640000D02*
X107680500Y-37640000D01*
X113680500Y-43640000D02*
X113680500Y-37640000D01*
D12*
X76716750Y-37774750D02*
X75716750Y-36774750D01*
X81716750Y-37774750D02*
X76716750Y-37774750D01*
X81716750Y-31774750D02*
X81716750Y-37774750D01*
X75716750Y-31774750D02*
X81716750Y-31774750D01*
X75716750Y-36774750D02*
X75716750Y-31774750D01*
D11*
X101028500Y-39687500D02*
X102933500Y-39687500D01*
X102933500Y-39687500D02*
X102933500Y-47307500D01*
X102933500Y-47307500D02*
X100393500Y-47307500D01*
X100393500Y-47307500D02*
X100393500Y-40322500D01*
X100393500Y-40322500D02*
X101028500Y-39687500D01*
D12*
X28828380Y-28193833D02*
X27828380Y-28193833D01*
X27828380Y-27812880D01*
X27876000Y-27717642D01*
X27923619Y-27670023D01*
X28018857Y-27622404D01*
X28161714Y-27622404D01*
X28256952Y-27670023D01*
X28304571Y-27717642D01*
X28352190Y-27812880D01*
X28352190Y-28193833D01*
X27828380Y-27289071D02*
X28828380Y-27050976D01*
X28114095Y-26860500D01*
X28828380Y-26670023D01*
X27828380Y-26431928D01*
X28828380Y-25479547D02*
X28352190Y-25812880D01*
X28828380Y-26050976D02*
X27828380Y-26050976D01*
X27828380Y-25670023D01*
X27876000Y-25574785D01*
X27923619Y-25527166D01*
X28018857Y-25479547D01*
X28161714Y-25479547D01*
X28256952Y-25527166D01*
X28304571Y-25574785D01*
X28352190Y-25670023D01*
X28352190Y-26050976D01*
X23328380Y-27193833D02*
X24042666Y-27193833D01*
X24185523Y-27241452D01*
X24280761Y-27336690D01*
X24328380Y-27479547D01*
X24328380Y-27574785D01*
X23423619Y-26765261D02*
X23376000Y-26717642D01*
X23328380Y-26622404D01*
X23328380Y-26384309D01*
X23376000Y-26289071D01*
X23423619Y-26241452D01*
X23518857Y-26193833D01*
X23614095Y-26193833D01*
X23756952Y-26241452D01*
X24328380Y-26812880D01*
X24328380Y-26193833D01*
X30572380Y-40479595D02*
X31286666Y-40479595D01*
X31429523Y-40527214D01*
X31524761Y-40622452D01*
X31572380Y-40765309D01*
X31572380Y-40860547D01*
X30905714Y-39574833D02*
X31572380Y-39574833D01*
X30905714Y-40003404D02*
X31429523Y-40003404D01*
X31524761Y-39955785D01*
X31572380Y-39860547D01*
X31572380Y-39717690D01*
X31524761Y-39622452D01*
X31477142Y-39574833D01*
X31572380Y-39098642D02*
X30905714Y-39098642D01*
X31000952Y-39098642D02*
X30953333Y-39051023D01*
X30905714Y-38955785D01*
X30905714Y-38812928D01*
X30953333Y-38717690D01*
X31048571Y-38670071D01*
X31572380Y-38670071D01*
X31048571Y-38670071D02*
X30953333Y-38622452D01*
X30905714Y-38527214D01*
X30905714Y-38384357D01*
X30953333Y-38289119D01*
X31048571Y-38241500D01*
X31572380Y-38241500D01*
X30905714Y-37765309D02*
X31905714Y-37765309D01*
X30953333Y-37765309D02*
X30905714Y-37670071D01*
X30905714Y-37479595D01*
X30953333Y-37384357D01*
X31000952Y-37336738D01*
X31096190Y-37289119D01*
X31381904Y-37289119D01*
X31477142Y-37336738D01*
X31524761Y-37384357D01*
X31572380Y-37479595D01*
X31572380Y-37670071D01*
X31524761Y-37765309D01*
X31524761Y-36479595D02*
X31572380Y-36574833D01*
X31572380Y-36765309D01*
X31524761Y-36860547D01*
X31429523Y-36908166D01*
X31048571Y-36908166D01*
X30953333Y-36860547D01*
X30905714Y-36765309D01*
X30905714Y-36574833D01*
X30953333Y-36479595D01*
X31048571Y-36431976D01*
X31143809Y-36431976D01*
X31239047Y-36908166D01*
X31572380Y-36003404D02*
X30905714Y-36003404D01*
X31096190Y-36003404D02*
X31000952Y-35955785D01*
X30953333Y-35908166D01*
X30905714Y-35812928D01*
X30905714Y-35717690D01*
X31667619Y-35622452D02*
X31667619Y-34860547D01*
X30667619Y-34670071D02*
X30620000Y-34622452D01*
X30572380Y-34527214D01*
X30572380Y-34289119D01*
X30620000Y-34193880D01*
X30667619Y-34146261D01*
X30762857Y-34098642D01*
X30858095Y-34098642D01*
X31000952Y-34146261D01*
X31572380Y-34717690D01*
X31572380Y-34098642D01*
X31667619Y-33908166D02*
X31667619Y-33146261D01*
X31048571Y-32574833D02*
X31096190Y-32431976D01*
X31143809Y-32384357D01*
X31239047Y-32336738D01*
X31381904Y-32336738D01*
X31477142Y-32384357D01*
X31524761Y-32431976D01*
X31572380Y-32527214D01*
X31572380Y-32908166D01*
X30572380Y-32908166D01*
X30572380Y-32574833D01*
X30620000Y-32479595D01*
X30667619Y-32431976D01*
X30762857Y-32384357D01*
X30858095Y-32384357D01*
X30953333Y-32431976D01*
X31000952Y-32479595D01*
X31048571Y-32574833D01*
X31048571Y-32908166D01*
X31572380Y-31908166D02*
X30905714Y-31908166D01*
X31096190Y-31908166D02*
X31000952Y-31860547D01*
X30953333Y-31812928D01*
X30905714Y-31717690D01*
X30905714Y-31622452D01*
X31572380Y-31289119D02*
X30905714Y-31289119D01*
X30572380Y-31289119D02*
X30620000Y-31336738D01*
X30667619Y-31289119D01*
X30620000Y-31241500D01*
X30572380Y-31289119D01*
X30667619Y-31289119D01*
X31572380Y-30384357D02*
X30572380Y-30384357D01*
X31524761Y-30384357D02*
X31572380Y-30479595D01*
X31572380Y-30670071D01*
X31524761Y-30765309D01*
X31477142Y-30812928D01*
X31381904Y-30860547D01*
X31096190Y-30860547D01*
X31000952Y-30812928D01*
X30953333Y-30765309D01*
X30905714Y-30670071D01*
X30905714Y-30479595D01*
X30953333Y-30384357D01*
X30905714Y-29479595D02*
X31715238Y-29479595D01*
X31810476Y-29527214D01*
X31858095Y-29574833D01*
X31905714Y-29670071D01*
X31905714Y-29812928D01*
X31858095Y-29908166D01*
X31524761Y-29479595D02*
X31572380Y-29574833D01*
X31572380Y-29765309D01*
X31524761Y-29860547D01*
X31477142Y-29908166D01*
X31381904Y-29955785D01*
X31096190Y-29955785D01*
X31000952Y-29908166D01*
X30953333Y-29860547D01*
X30905714Y-29765309D01*
X30905714Y-29574833D01*
X30953333Y-29479595D01*
X31524761Y-28622452D02*
X31572380Y-28717690D01*
X31572380Y-28908166D01*
X31524761Y-29003404D01*
X31429523Y-29051023D01*
X31048571Y-29051023D01*
X30953333Y-29003404D01*
X30905714Y-28908166D01*
X30905714Y-28717690D01*
X30953333Y-28622452D01*
X31048571Y-28574833D01*
X31143809Y-28574833D01*
X31239047Y-29051023D01*
X31572380Y-27717690D02*
X30572380Y-27717690D01*
X31524761Y-27717690D02*
X31572380Y-27812928D01*
X31572380Y-28003404D01*
X31524761Y-28098642D01*
X31477142Y-28146261D01*
X31381904Y-28193880D01*
X31096190Y-28193880D01*
X31000952Y-28146261D01*
X30953333Y-28098642D01*
X30905714Y-28003404D01*
X30905714Y-27812928D01*
X30953333Y-27717690D01*
X65702380Y-31966785D02*
X65702380Y-32538214D01*
X65702380Y-32252500D02*
X64702380Y-32252500D01*
X64845238Y-32347738D01*
X64940476Y-32442976D01*
X64988095Y-32538214D01*
X65702380Y-31538214D02*
X64702380Y-31538214D01*
X65702380Y-30966785D02*
X65130952Y-31395357D01*
X64702380Y-30966785D02*
X65273809Y-31538214D01*
D13*
X63726190Y-31835833D02*
X63488095Y-32002500D01*
X63726190Y-32121547D02*
X63226190Y-32121547D01*
X63226190Y-31931071D01*
X63250000Y-31883452D01*
X63273809Y-31859642D01*
X63321428Y-31835833D01*
X63392857Y-31835833D01*
X63440476Y-31859642D01*
X63464285Y-31883452D01*
X63488095Y-31931071D01*
X63488095Y-32121547D01*
X63273809Y-31645357D02*
X63250000Y-31621547D01*
X63226190Y-31573928D01*
X63226190Y-31454880D01*
X63250000Y-31407261D01*
X63273809Y-31383452D01*
X63321428Y-31359642D01*
X63369047Y-31359642D01*
X63440476Y-31383452D01*
X63726190Y-31669166D01*
X63726190Y-31359642D01*
D12*
X78938380Y-29860285D02*
X77938380Y-29860285D01*
X78938380Y-29288857D01*
X77938380Y-29288857D01*
X78843142Y-28241238D02*
X78890761Y-28288857D01*
X78938380Y-28431714D01*
X78938380Y-28526952D01*
X78890761Y-28669809D01*
X78795523Y-28765047D01*
X78700285Y-28812666D01*
X78509809Y-28860285D01*
X78366952Y-28860285D01*
X78176476Y-28812666D01*
X78081238Y-28765047D01*
X77986000Y-28669809D01*
X77938380Y-28526952D01*
X77938380Y-28431714D01*
X77986000Y-28288857D01*
X78033619Y-28241238D01*
X77938380Y-27907904D02*
X77938380Y-27241238D01*
X78938380Y-27669809D01*
X77938380Y-26955523D02*
X78938380Y-26717428D01*
X78224095Y-26526952D01*
X78938380Y-26336476D01*
X77938380Y-26098380D01*
X77938380Y-25812666D02*
X77938380Y-25146000D01*
X78938380Y-25812666D01*
X78938380Y-25146000D01*
X78938380Y-24241238D02*
X78938380Y-24812666D01*
X78938380Y-24526952D02*
X77938380Y-24526952D01*
X78081238Y-24622190D01*
X78176476Y-24717428D01*
X78224095Y-24812666D01*
X77938380Y-23384095D02*
X77938380Y-23574571D01*
X77986000Y-23669809D01*
X78033619Y-23717428D01*
X78176476Y-23812666D01*
X78366952Y-23860285D01*
X78747904Y-23860285D01*
X78843142Y-23812666D01*
X78890761Y-23765047D01*
X78938380Y-23669809D01*
X78938380Y-23479333D01*
X78890761Y-23384095D01*
X78843142Y-23336476D01*
X78747904Y-23288857D01*
X78509809Y-23288857D01*
X78414571Y-23336476D01*
X78366952Y-23384095D01*
X78319333Y-23479333D01*
X78319333Y-23669809D01*
X78366952Y-23765047D01*
X78414571Y-23812666D01*
X78509809Y-23860285D01*
X78938380Y-22860285D02*
X77938380Y-22860285D01*
X77938380Y-22479333D01*
X77986000Y-22384095D01*
X78033619Y-22336476D01*
X78128857Y-22288857D01*
X78271714Y-22288857D01*
X78366952Y-22336476D01*
X78414571Y-22384095D01*
X78462190Y-22479333D01*
X78462190Y-22860285D01*
X77938380Y-21431714D02*
X77938380Y-21622190D01*
X77986000Y-21717428D01*
X78033619Y-21765047D01*
X78176476Y-21860285D01*
X78366952Y-21907904D01*
X78747904Y-21907904D01*
X78843142Y-21860285D01*
X78890761Y-21812666D01*
X78938380Y-21717428D01*
X78938380Y-21526952D01*
X78890761Y-21431714D01*
X78843142Y-21384095D01*
X78747904Y-21336476D01*
X78509809Y-21336476D01*
X78414571Y-21384095D01*
X78366952Y-21431714D01*
X78319333Y-21526952D01*
X78319333Y-21717428D01*
X78366952Y-21812666D01*
X78414571Y-21860285D01*
X78509809Y-21907904D01*
X77938380Y-21003142D02*
X78938380Y-20336476D01*
X77938380Y-20336476D02*
X78938380Y-21003142D01*
D13*
X80391047Y-25189690D02*
X80391047Y-25594452D01*
X80414857Y-25642071D01*
X80438666Y-25665880D01*
X80486285Y-25689690D01*
X80581523Y-25689690D01*
X80629142Y-25665880D01*
X80652952Y-25642071D01*
X80676761Y-25594452D01*
X80676761Y-25189690D01*
X81129142Y-25356357D02*
X81129142Y-25689690D01*
X81010095Y-25165880D02*
X80891047Y-25523023D01*
X81200571Y-25523023D01*
D12*
X62134976Y-42981571D02*
X61801642Y-42981571D01*
X61801642Y-43505380D02*
X61801642Y-42505380D01*
X62277833Y-42505380D01*
X62658785Y-43505380D02*
X62658785Y-42505380D01*
X62896880Y-42505380D01*
X63039738Y-42553000D01*
X63134976Y-42648238D01*
X63182595Y-42743476D01*
X63230214Y-42933952D01*
X63230214Y-43076809D01*
X63182595Y-43267285D01*
X63134976Y-43362523D01*
X63039738Y-43457761D01*
X62896880Y-43505380D01*
X62658785Y-43505380D01*
X63658785Y-43505380D02*
X63658785Y-42505380D01*
X63896880Y-42505380D01*
X64039738Y-42553000D01*
X64134976Y-42648238D01*
X64182595Y-42743476D01*
X64230214Y-42933952D01*
X64230214Y-43076809D01*
X64182595Y-43267285D01*
X64134976Y-43362523D01*
X64039738Y-43457761D01*
X63896880Y-43505380D01*
X63658785Y-43505380D01*
X65134976Y-42505380D02*
X64658785Y-42505380D01*
X64611166Y-42981571D01*
X64658785Y-42933952D01*
X64754023Y-42886333D01*
X64992119Y-42886333D01*
X65087357Y-42933952D01*
X65134976Y-42981571D01*
X65182595Y-43076809D01*
X65182595Y-43314904D01*
X65134976Y-43410142D01*
X65087357Y-43457761D01*
X64992119Y-43505380D01*
X64754023Y-43505380D01*
X64658785Y-43457761D01*
X64611166Y-43410142D01*
X65801642Y-42505380D02*
X65896880Y-42505380D01*
X65992119Y-42553000D01*
X66039738Y-42600619D01*
X66087357Y-42695857D01*
X66134976Y-42886333D01*
X66134976Y-43124428D01*
X66087357Y-43314904D01*
X66039738Y-43410142D01*
X65992119Y-43457761D01*
X65896880Y-43505380D01*
X65801642Y-43505380D01*
X65706404Y-43457761D01*
X65658785Y-43410142D01*
X65611166Y-43314904D01*
X65563547Y-43124428D01*
X65563547Y-42886333D01*
X65611166Y-42695857D01*
X65658785Y-42600619D01*
X65706404Y-42553000D01*
X65801642Y-42505380D01*
X28694142Y-34805880D02*
X28122714Y-34805880D01*
X28408428Y-34805880D02*
X28408428Y-33805880D01*
X28313190Y-33948738D01*
X28217952Y-34043976D01*
X28122714Y-34091595D01*
X29313190Y-33805880D02*
X29408428Y-33805880D01*
X29503666Y-33853500D01*
X29551285Y-33901119D01*
X29598904Y-33996357D01*
X29646523Y-34186833D01*
X29646523Y-34424928D01*
X29598904Y-34615404D01*
X29551285Y-34710642D01*
X29503666Y-34758261D01*
X29408428Y-34805880D01*
X29313190Y-34805880D01*
X29217952Y-34758261D01*
X29170333Y-34710642D01*
X29122714Y-34615404D01*
X29075095Y-34424928D01*
X29075095Y-34186833D01*
X29122714Y-33996357D01*
X29170333Y-33901119D01*
X29217952Y-33853500D01*
X29313190Y-33805880D01*
X30503666Y-34139214D02*
X30503666Y-34805880D01*
X30075095Y-34139214D02*
X30075095Y-34663023D01*
X30122714Y-34758261D01*
X30217952Y-34805880D01*
X30360809Y-34805880D01*
X30456047Y-34758261D01*
X30503666Y-34710642D01*
D10*
X24822166Y-34766214D02*
X24784071Y-34804309D01*
X24669785Y-34842404D01*
X24593595Y-34842404D01*
X24479309Y-34804309D01*
X24403119Y-34728119D01*
X24365023Y-34651928D01*
X24326928Y-34499547D01*
X24326928Y-34385261D01*
X24365023Y-34232880D01*
X24403119Y-34156690D01*
X24479309Y-34080500D01*
X24593595Y-34042404D01*
X24669785Y-34042404D01*
X24784071Y-34080500D01*
X24822166Y-34118595D01*
X25126928Y-34118595D02*
X25165023Y-34080500D01*
X25241214Y-34042404D01*
X25431690Y-34042404D01*
X25507880Y-34080500D01*
X25545976Y-34118595D01*
X25584071Y-34194785D01*
X25584071Y-34270976D01*
X25545976Y-34385261D01*
X25088833Y-34842404D01*
X25584071Y-34842404D01*
D12*
X26820952Y-37472880D02*
X26249523Y-37472880D01*
X26535238Y-37472880D02*
X26535238Y-36472880D01*
X26440000Y-36615738D01*
X26344761Y-36710976D01*
X26249523Y-36758595D01*
X27440000Y-36472880D02*
X27535238Y-36472880D01*
X27630476Y-36520500D01*
X27678095Y-36568119D01*
X27725714Y-36663357D01*
X27773333Y-36853833D01*
X27773333Y-37091928D01*
X27725714Y-37282404D01*
X27678095Y-37377642D01*
X27630476Y-37425261D01*
X27535238Y-37472880D01*
X27440000Y-37472880D01*
X27344761Y-37425261D01*
X27297142Y-37377642D01*
X27249523Y-37282404D01*
X27201904Y-37091928D01*
X27201904Y-36853833D01*
X27249523Y-36663357D01*
X27297142Y-36568119D01*
X27344761Y-36520500D01*
X27440000Y-36472880D01*
X28392380Y-36472880D02*
X28487619Y-36472880D01*
X28582857Y-36520500D01*
X28630476Y-36568119D01*
X28678095Y-36663357D01*
X28725714Y-36853833D01*
X28725714Y-37091928D01*
X28678095Y-37282404D01*
X28630476Y-37377642D01*
X28582857Y-37425261D01*
X28487619Y-37472880D01*
X28392380Y-37472880D01*
X28297142Y-37425261D01*
X28249523Y-37377642D01*
X28201904Y-37282404D01*
X28154285Y-37091928D01*
X28154285Y-36853833D01*
X28201904Y-36663357D01*
X28249523Y-36568119D01*
X28297142Y-36520500D01*
X28392380Y-36472880D01*
X29154285Y-36806214D02*
X29154285Y-37472880D01*
X29154285Y-36901452D02*
X29201904Y-36853833D01*
X29297142Y-36806214D01*
X29440000Y-36806214D01*
X29535238Y-36853833D01*
X29582857Y-36949071D01*
X29582857Y-37472880D01*
X22883833Y-37377642D02*
X22836214Y-37425261D01*
X22693357Y-37472880D01*
X22598119Y-37472880D01*
X22455261Y-37425261D01*
X22360023Y-37330023D01*
X22312404Y-37234785D01*
X22264785Y-37044309D01*
X22264785Y-36901452D01*
X22312404Y-36710976D01*
X22360023Y-36615738D01*
X22455261Y-36520500D01*
X22598119Y-36472880D01*
X22693357Y-36472880D01*
X22836214Y-36520500D01*
X22883833Y-36568119D01*
X23836214Y-37472880D02*
X23264785Y-37472880D01*
X23550500Y-37472880D02*
X23550500Y-36472880D01*
X23455261Y-36615738D01*
X23360023Y-36710976D01*
X23264785Y-36758595D01*
X44124785Y-32392880D02*
X44124785Y-31392880D01*
X44505738Y-31392880D01*
X44600976Y-31440500D01*
X44648595Y-31488119D01*
X44696214Y-31583357D01*
X44696214Y-31726214D01*
X44648595Y-31821452D01*
X44600976Y-31869071D01*
X44505738Y-31916690D01*
X44124785Y-31916690D01*
X45696214Y-32392880D02*
X45362880Y-31916690D01*
X45124785Y-32392880D02*
X45124785Y-31392880D01*
X45505738Y-31392880D01*
X45600976Y-31440500D01*
X45648595Y-31488119D01*
X45696214Y-31583357D01*
X45696214Y-31726214D01*
X45648595Y-31821452D01*
X45600976Y-31869071D01*
X45505738Y-31916690D01*
X45124785Y-31916690D01*
X46315261Y-31392880D02*
X46505738Y-31392880D01*
X46600976Y-31440500D01*
X46696214Y-31535738D01*
X46743833Y-31726214D01*
X46743833Y-32059547D01*
X46696214Y-32250023D01*
X46600976Y-32345261D01*
X46505738Y-32392880D01*
X46315261Y-32392880D01*
X46220023Y-32345261D01*
X46124785Y-32250023D01*
X46077166Y-32059547D01*
X46077166Y-31726214D01*
X46124785Y-31535738D01*
X46220023Y-31440500D01*
X46315261Y-31392880D01*
X47696214Y-31440500D02*
X47600976Y-31392880D01*
X47458119Y-31392880D01*
X47315261Y-31440500D01*
X47220023Y-31535738D01*
X47172404Y-31630976D01*
X47124785Y-31821452D01*
X47124785Y-31964309D01*
X47172404Y-32154785D01*
X47220023Y-32250023D01*
X47315261Y-32345261D01*
X47458119Y-32392880D01*
X47553357Y-32392880D01*
X47696214Y-32345261D01*
X47743833Y-32297642D01*
X47743833Y-31964309D01*
X47553357Y-31964309D01*
X45386666Y-33869380D02*
X45386666Y-34583666D01*
X45339047Y-34726523D01*
X45243809Y-34821761D01*
X45100952Y-34869380D01*
X45005714Y-34869380D01*
X46339047Y-33869380D02*
X45862857Y-33869380D01*
X45815238Y-34345571D01*
X45862857Y-34297952D01*
X45958095Y-34250333D01*
X46196190Y-34250333D01*
X46291428Y-34297952D01*
X46339047Y-34345571D01*
X46386666Y-34440809D01*
X46386666Y-34678904D01*
X46339047Y-34774142D01*
X46291428Y-34821761D01*
X46196190Y-34869380D01*
X45958095Y-34869380D01*
X45862857Y-34821761D01*
X45815238Y-34774142D01*
X56332380Y-34628785D02*
X56332380Y-35200214D01*
X56332380Y-34914500D02*
X55332380Y-34914500D01*
X55475238Y-35009738D01*
X55570476Y-35104976D01*
X55618095Y-35200214D01*
X56332380Y-34200214D02*
X55332380Y-34200214D01*
X56332380Y-33628785D02*
X55760952Y-34057357D01*
X55332380Y-33628785D02*
X55903809Y-34200214D01*
D13*
X56106190Y-31830833D02*
X55868095Y-31997500D01*
X56106190Y-32116547D02*
X55606190Y-32116547D01*
X55606190Y-31926071D01*
X55630000Y-31878452D01*
X55653809Y-31854642D01*
X55701428Y-31830833D01*
X55772857Y-31830833D01*
X55820476Y-31854642D01*
X55844285Y-31878452D01*
X55868095Y-31926071D01*
X55868095Y-32116547D01*
X55606190Y-31664166D02*
X55606190Y-31354642D01*
X55796666Y-31521309D01*
X55796666Y-31449880D01*
X55820476Y-31402261D01*
X55844285Y-31378452D01*
X55891904Y-31354642D01*
X56010952Y-31354642D01*
X56058571Y-31378452D01*
X56082380Y-31402261D01*
X56106190Y-31449880D01*
X56106190Y-31592738D01*
X56082380Y-31640357D01*
X56058571Y-31664166D01*
D12*
X104306714Y-44711880D02*
X103735285Y-44711880D01*
X104021000Y-44711880D02*
X104021000Y-43711880D01*
X103925761Y-43854738D01*
X103830523Y-43949976D01*
X103735285Y-43997595D01*
X104735285Y-44711880D02*
X104735285Y-43711880D01*
X105306714Y-44711880D02*
X104878142Y-44140452D01*
X105306714Y-43711880D02*
X104735285Y-44283309D01*
D13*
X104437666Y-42136190D02*
X104271000Y-41898095D01*
X104151952Y-42136190D02*
X104151952Y-41636190D01*
X104342428Y-41636190D01*
X104390047Y-41660000D01*
X104413857Y-41683809D01*
X104437666Y-41731428D01*
X104437666Y-41802857D01*
X104413857Y-41850476D01*
X104390047Y-41874285D01*
X104342428Y-41898095D01*
X104151952Y-41898095D01*
X104866238Y-41802857D02*
X104866238Y-42136190D01*
X104747190Y-41612380D02*
X104628142Y-41969523D01*
X104937666Y-41969523D01*
D12*
X116022380Y-33596166D02*
X115022380Y-33596166D01*
X116022380Y-33024738D02*
X115450952Y-33453309D01*
X115022380Y-33024738D02*
X115593809Y-33596166D01*
X115927142Y-32024738D02*
X115974761Y-32072357D01*
X116022380Y-32215214D01*
X116022380Y-32310452D01*
X115974761Y-32453309D01*
X115879523Y-32548547D01*
X115784285Y-32596166D01*
X115593809Y-32643785D01*
X115450952Y-32643785D01*
X115260476Y-32596166D01*
X115165238Y-32548547D01*
X115070000Y-32453309D01*
X115022380Y-32310452D01*
X115022380Y-32215214D01*
X115070000Y-32072357D01*
X115117619Y-32024738D01*
X115974761Y-31643785D02*
X116022380Y-31500928D01*
X116022380Y-31262833D01*
X115974761Y-31167595D01*
X115927142Y-31119976D01*
X115831904Y-31072357D01*
X115736666Y-31072357D01*
X115641428Y-31119976D01*
X115593809Y-31167595D01*
X115546190Y-31262833D01*
X115498571Y-31453309D01*
X115450952Y-31548547D01*
X115403333Y-31596166D01*
X115308095Y-31643785D01*
X115212857Y-31643785D01*
X115117619Y-31596166D01*
X115070000Y-31548547D01*
X115022380Y-31453309D01*
X115022380Y-31215214D01*
X115070000Y-31072357D01*
X115736666Y-30691404D02*
X115736666Y-30215214D01*
X116022380Y-30786642D02*
X115022380Y-30453309D01*
X116022380Y-30119976D01*
X115022380Y-29596166D02*
X115022380Y-29500928D01*
X115070000Y-29405690D01*
X115117619Y-29358071D01*
X115212857Y-29310452D01*
X115403333Y-29262833D01*
X115641428Y-29262833D01*
X115831904Y-29310452D01*
X115927142Y-29358071D01*
X115974761Y-29405690D01*
X116022380Y-29500928D01*
X116022380Y-29596166D01*
X115974761Y-29691404D01*
X115927142Y-29739023D01*
X115831904Y-29786642D01*
X115641428Y-29834261D01*
X115403333Y-29834261D01*
X115212857Y-29786642D01*
X115117619Y-29739023D01*
X115070000Y-29691404D01*
X115022380Y-29596166D01*
X115022380Y-28929500D02*
X115022380Y-28310452D01*
X115403333Y-28643785D01*
X115403333Y-28500928D01*
X115450952Y-28405690D01*
X115498571Y-28358071D01*
X115593809Y-28310452D01*
X115831904Y-28310452D01*
X115927142Y-28358071D01*
X115974761Y-28405690D01*
X116022380Y-28500928D01*
X116022380Y-28786642D01*
X115974761Y-28881880D01*
X115927142Y-28929500D01*
X115641428Y-27881880D02*
X115641428Y-27119976D01*
X116022380Y-26119976D02*
X116022380Y-26691404D01*
X116022380Y-26405690D02*
X115022380Y-26405690D01*
X115165238Y-26500928D01*
X115260476Y-26596166D01*
X115308095Y-26691404D01*
X115022380Y-25500928D02*
X115022380Y-25405690D01*
X115070000Y-25310452D01*
X115117619Y-25262833D01*
X115212857Y-25215214D01*
X115403333Y-25167595D01*
X115641428Y-25167595D01*
X115831904Y-25215214D01*
X115927142Y-25262833D01*
X115974761Y-25310452D01*
X116022380Y-25405690D01*
X116022380Y-25500928D01*
X115974761Y-25596166D01*
X115927142Y-25643785D01*
X115831904Y-25691404D01*
X115641428Y-25739023D01*
X115403333Y-25739023D01*
X115212857Y-25691404D01*
X115117619Y-25643785D01*
X115070000Y-25596166D01*
X115022380Y-25500928D01*
X116022380Y-24215214D02*
X116022380Y-24786642D01*
X116022380Y-24500928D02*
X115022380Y-24500928D01*
X115165238Y-24596166D01*
X115260476Y-24691404D01*
X115308095Y-24786642D01*
X114617595Y-21677380D02*
X114617595Y-22486904D01*
X114665214Y-22582142D01*
X114712833Y-22629761D01*
X114808071Y-22677380D01*
X114998547Y-22677380D01*
X115093785Y-22629761D01*
X115141404Y-22582142D01*
X115189023Y-22486904D01*
X115189023Y-21677380D01*
X116093785Y-21677380D02*
X115903309Y-21677380D01*
X115808071Y-21725000D01*
X115760452Y-21772619D01*
X115665214Y-21915476D01*
X115617595Y-22105952D01*
X115617595Y-22486904D01*
X115665214Y-22582142D01*
X115712833Y-22629761D01*
X115808071Y-22677380D01*
X115998547Y-22677380D01*
X116093785Y-22629761D01*
X116141404Y-22582142D01*
X116189023Y-22486904D01*
X116189023Y-22248809D01*
X116141404Y-22153571D01*
X116093785Y-22105952D01*
X115998547Y-22058333D01*
X115808071Y-22058333D01*
X115712833Y-22105952D01*
X115665214Y-22153571D01*
X115617595Y-22248809D01*
X108084880Y-33559166D02*
X107084880Y-33559166D01*
X108084880Y-32987738D02*
X107513452Y-33416309D01*
X107084880Y-32987738D02*
X107656309Y-33559166D01*
X107989642Y-31987738D02*
X108037261Y-32035357D01*
X108084880Y-32178214D01*
X108084880Y-32273452D01*
X108037261Y-32416309D01*
X107942023Y-32511547D01*
X107846785Y-32559166D01*
X107656309Y-32606785D01*
X107513452Y-32606785D01*
X107322976Y-32559166D01*
X107227738Y-32511547D01*
X107132500Y-32416309D01*
X107084880Y-32273452D01*
X107084880Y-32178214D01*
X107132500Y-32035357D01*
X107180119Y-31987738D01*
X108037261Y-31606785D02*
X108084880Y-31463928D01*
X108084880Y-31225833D01*
X108037261Y-31130595D01*
X107989642Y-31082976D01*
X107894404Y-31035357D01*
X107799166Y-31035357D01*
X107703928Y-31082976D01*
X107656309Y-31130595D01*
X107608690Y-31225833D01*
X107561071Y-31416309D01*
X107513452Y-31511547D01*
X107465833Y-31559166D01*
X107370595Y-31606785D01*
X107275357Y-31606785D01*
X107180119Y-31559166D01*
X107132500Y-31511547D01*
X107084880Y-31416309D01*
X107084880Y-31178214D01*
X107132500Y-31035357D01*
X107799166Y-30654404D02*
X107799166Y-30178214D01*
X108084880Y-30749642D02*
X107084880Y-30416309D01*
X108084880Y-30082976D01*
X107084880Y-29559166D02*
X107084880Y-29463928D01*
X107132500Y-29368690D01*
X107180119Y-29321071D01*
X107275357Y-29273452D01*
X107465833Y-29225833D01*
X107703928Y-29225833D01*
X107894404Y-29273452D01*
X107989642Y-29321071D01*
X108037261Y-29368690D01*
X108084880Y-29463928D01*
X108084880Y-29559166D01*
X108037261Y-29654404D01*
X107989642Y-29702023D01*
X107894404Y-29749642D01*
X107703928Y-29797261D01*
X107465833Y-29797261D01*
X107275357Y-29749642D01*
X107180119Y-29702023D01*
X107132500Y-29654404D01*
X107084880Y-29559166D01*
X107084880Y-28892500D02*
X107084880Y-28273452D01*
X107465833Y-28606785D01*
X107465833Y-28463928D01*
X107513452Y-28368690D01*
X107561071Y-28321071D01*
X107656309Y-28273452D01*
X107894404Y-28273452D01*
X107989642Y-28321071D01*
X108037261Y-28368690D01*
X108084880Y-28463928D01*
X108084880Y-28749642D01*
X108037261Y-28844880D01*
X107989642Y-28892500D01*
X107703928Y-27844880D02*
X107703928Y-27082976D01*
X108084880Y-26082976D02*
X108084880Y-26654404D01*
X108084880Y-26368690D02*
X107084880Y-26368690D01*
X107227738Y-26463928D01*
X107322976Y-26559166D01*
X107370595Y-26654404D01*
X107084880Y-25463928D02*
X107084880Y-25368690D01*
X107132500Y-25273452D01*
X107180119Y-25225833D01*
X107275357Y-25178214D01*
X107465833Y-25130595D01*
X107703928Y-25130595D01*
X107894404Y-25178214D01*
X107989642Y-25225833D01*
X108037261Y-25273452D01*
X108084880Y-25368690D01*
X108084880Y-25463928D01*
X108037261Y-25559166D01*
X107989642Y-25606785D01*
X107894404Y-25654404D01*
X107703928Y-25702023D01*
X107465833Y-25702023D01*
X107275357Y-25654404D01*
X107180119Y-25606785D01*
X107132500Y-25559166D01*
X107084880Y-25463928D01*
X108084880Y-24178214D02*
X108084880Y-24749642D01*
X108084880Y-24463928D02*
X107084880Y-24463928D01*
X107227738Y-24559166D01*
X107322976Y-24654404D01*
X107370595Y-24749642D01*
X106997595Y-21550380D02*
X106997595Y-22359904D01*
X107045214Y-22455142D01*
X107092833Y-22502761D01*
X107188071Y-22550380D01*
X107378547Y-22550380D01*
X107473785Y-22502761D01*
X107521404Y-22455142D01*
X107569023Y-22359904D01*
X107569023Y-21550380D01*
X108521404Y-21550380D02*
X108045214Y-21550380D01*
X107997595Y-22026571D01*
X108045214Y-21978952D01*
X108140452Y-21931333D01*
X108378547Y-21931333D01*
X108473785Y-21978952D01*
X108521404Y-22026571D01*
X108569023Y-22121809D01*
X108569023Y-22359904D01*
X108521404Y-22455142D01*
X108473785Y-22502761D01*
X108378547Y-22550380D01*
X108140452Y-22550380D01*
X108045214Y-22502761D01*
X107997595Y-22455142D01*
X109918595Y-38647642D02*
X109870976Y-38695261D01*
X109728119Y-38742880D01*
X109632880Y-38742880D01*
X109490023Y-38695261D01*
X109394785Y-38600023D01*
X109347166Y-38504785D01*
X109299547Y-38314309D01*
X109299547Y-38171452D01*
X109347166Y-37980976D01*
X109394785Y-37885738D01*
X109490023Y-37790500D01*
X109632880Y-37742880D01*
X109728119Y-37742880D01*
X109870976Y-37790500D01*
X109918595Y-37838119D01*
X110347166Y-38742880D02*
X110347166Y-37742880D01*
X110680500Y-38457166D01*
X111013833Y-37742880D01*
X111013833Y-38742880D01*
X111490023Y-38742880D02*
X111490023Y-37742880D01*
X111728119Y-37742880D01*
X111870976Y-37790500D01*
X111966214Y-37885738D01*
X112013833Y-37980976D01*
X112061452Y-38171452D01*
X112061452Y-38314309D01*
X112013833Y-38504785D01*
X111966214Y-38600023D01*
X111870976Y-38695261D01*
X111728119Y-38742880D01*
X111490023Y-38742880D01*
X109347166Y-43457761D02*
X109490023Y-43505380D01*
X109728119Y-43505380D01*
X109823357Y-43457761D01*
X109870976Y-43410142D01*
X109918595Y-43314904D01*
X109918595Y-43219666D01*
X109870976Y-43124428D01*
X109823357Y-43076809D01*
X109728119Y-43029190D01*
X109537642Y-42981571D01*
X109442404Y-42933952D01*
X109394785Y-42886333D01*
X109347166Y-42791095D01*
X109347166Y-42695857D01*
X109394785Y-42600619D01*
X109442404Y-42553000D01*
X109537642Y-42505380D01*
X109775738Y-42505380D01*
X109918595Y-42553000D01*
X110251928Y-42505380D02*
X110490023Y-43505380D01*
X110680500Y-42791095D01*
X110870976Y-43505380D01*
X111109071Y-42505380D01*
X112013833Y-43505380D02*
X111442404Y-43505380D01*
X111728119Y-43505380D02*
X111728119Y-42505380D01*
X111632880Y-42648238D01*
X111537642Y-42743476D01*
X111442404Y-42791095D01*
X71597142Y-39568380D02*
X71597142Y-38568380D01*
X71978095Y-38568380D01*
X72073333Y-38616000D01*
X72120952Y-38663619D01*
X72168571Y-38758857D01*
X72168571Y-38901714D01*
X72120952Y-38996952D01*
X72073333Y-39044571D01*
X71978095Y-39092190D01*
X71597142Y-39092190D01*
X72597142Y-39568380D02*
X72597142Y-38568380D01*
X73644761Y-39473142D02*
X73597142Y-39520761D01*
X73454285Y-39568380D01*
X73359047Y-39568380D01*
X73216190Y-39520761D01*
X73120952Y-39425523D01*
X73073333Y-39330285D01*
X73025714Y-39139809D01*
X73025714Y-38996952D01*
X73073333Y-38806476D01*
X73120952Y-38711238D01*
X73216190Y-38616000D01*
X73359047Y-38568380D01*
X73454285Y-38568380D01*
X73597142Y-38616000D01*
X73644761Y-38663619D01*
X74597142Y-39568380D02*
X74025714Y-39568380D01*
X74311428Y-39568380D02*
X74311428Y-38568380D01*
X74216190Y-38711238D01*
X74120952Y-38806476D01*
X74025714Y-38854095D01*
X75168571Y-38996952D02*
X75073333Y-38949333D01*
X75025714Y-38901714D01*
X74978095Y-38806476D01*
X74978095Y-38758857D01*
X75025714Y-38663619D01*
X75073333Y-38616000D01*
X75168571Y-38568380D01*
X75359047Y-38568380D01*
X75454285Y-38616000D01*
X75501904Y-38663619D01*
X75549523Y-38758857D01*
X75549523Y-38806476D01*
X75501904Y-38901714D01*
X75454285Y-38949333D01*
X75359047Y-38996952D01*
X75168571Y-38996952D01*
X75073333Y-39044571D01*
X75025714Y-39092190D01*
X74978095Y-39187428D01*
X74978095Y-39377904D01*
X75025714Y-39473142D01*
X75073333Y-39520761D01*
X75168571Y-39568380D01*
X75359047Y-39568380D01*
X75454285Y-39520761D01*
X75501904Y-39473142D01*
X75549523Y-39377904D01*
X75549523Y-39187428D01*
X75501904Y-39092190D01*
X75454285Y-39044571D01*
X75359047Y-38996952D01*
X76311428Y-39044571D02*
X75978095Y-39044571D01*
X75978095Y-39568380D02*
X75978095Y-38568380D01*
X76454285Y-38568380D01*
X76787619Y-38663619D02*
X76835238Y-38616000D01*
X76930476Y-38568380D01*
X77168571Y-38568380D01*
X77263809Y-38616000D01*
X77311428Y-38663619D01*
X77359047Y-38758857D01*
X77359047Y-38854095D01*
X77311428Y-38996952D01*
X76740000Y-39568380D01*
X77359047Y-39568380D01*
X78216190Y-38568380D02*
X78025714Y-38568380D01*
X77930476Y-38616000D01*
X77882857Y-38663619D01*
X77787619Y-38806476D01*
X77740000Y-38996952D01*
X77740000Y-39377904D01*
X77787619Y-39473142D01*
X77835238Y-39520761D01*
X77930476Y-39568380D01*
X78120952Y-39568380D01*
X78216190Y-39520761D01*
X78263809Y-39473142D01*
X78311428Y-39377904D01*
X78311428Y-39139809D01*
X78263809Y-39044571D01*
X78216190Y-38996952D01*
X78120952Y-38949333D01*
X77930476Y-38949333D01*
X77835238Y-38996952D01*
X77787619Y-39044571D01*
X77740000Y-39139809D01*
X78740000Y-39568380D02*
X78740000Y-38568380D01*
X79311428Y-39568380D02*
X78882857Y-38996952D01*
X79311428Y-38568380D02*
X78740000Y-39139809D01*
X79692380Y-38663619D02*
X79740000Y-38616000D01*
X79835238Y-38568380D01*
X80073333Y-38568380D01*
X80168571Y-38616000D01*
X80216190Y-38663619D01*
X80263809Y-38758857D01*
X80263809Y-38854095D01*
X80216190Y-38996952D01*
X79644761Y-39568380D01*
X80263809Y-39568380D01*
X80644761Y-38663619D02*
X80692380Y-38616000D01*
X80787619Y-38568380D01*
X81025714Y-38568380D01*
X81120952Y-38616000D01*
X81168571Y-38663619D01*
X81216190Y-38758857D01*
X81216190Y-38854095D01*
X81168571Y-38996952D01*
X80597142Y-39568380D01*
X81216190Y-39568380D01*
X81644761Y-39187428D02*
X82406666Y-39187428D01*
X82882857Y-39568380D02*
X82882857Y-38568380D01*
X84073333Y-38520761D02*
X83216190Y-39806476D01*
X84406666Y-39568380D02*
X84406666Y-38568380D01*
X84739999Y-39282666D01*
X85073333Y-38568380D01*
X85073333Y-39568380D01*
X86025714Y-39568380D02*
X85549523Y-39568380D01*
X85549523Y-38568380D01*
X50673214Y-25344380D02*
X50673214Y-24344380D01*
X51054166Y-24344380D01*
X51149404Y-24392000D01*
X51197023Y-24439619D01*
X51244642Y-24534857D01*
X51244642Y-24677714D01*
X51197023Y-24772952D01*
X51149404Y-24820571D01*
X51054166Y-24868190D01*
X50673214Y-24868190D01*
X52244642Y-25249142D02*
X52197023Y-25296761D01*
X52054166Y-25344380D01*
X51958928Y-25344380D01*
X51816071Y-25296761D01*
X51720833Y-25201523D01*
X51673214Y-25106285D01*
X51625595Y-24915809D01*
X51625595Y-24772952D01*
X51673214Y-24582476D01*
X51720833Y-24487238D01*
X51816071Y-24392000D01*
X51958928Y-24344380D01*
X52054166Y-24344380D01*
X52197023Y-24392000D01*
X52244642Y-24439619D01*
X52577976Y-24344380D02*
X53197023Y-24344380D01*
X52863690Y-24725333D01*
X53006547Y-24725333D01*
X53101785Y-24772952D01*
X53149404Y-24820571D01*
X53197023Y-24915809D01*
X53197023Y-25153904D01*
X53149404Y-25249142D01*
X53101785Y-25296761D01*
X53006547Y-25344380D01*
X52720833Y-25344380D01*
X52625595Y-25296761D01*
X52577976Y-25249142D01*
X54054166Y-24677714D02*
X54054166Y-25344380D01*
X53816071Y-24296761D02*
X53577976Y-25011047D01*
X54197023Y-25011047D01*
X100592071Y-38346071D02*
X100925404Y-38346071D01*
X101068261Y-38869880D02*
X100592071Y-38869880D01*
X100592071Y-37869880D01*
X101068261Y-37869880D01*
X101401595Y-37869880D02*
X102068261Y-38869880D01*
X102068261Y-37869880D02*
X101401595Y-38869880D01*
X102306357Y-37869880D02*
X102877785Y-37869880D01*
X102592071Y-38869880D02*
X102592071Y-37869880D01*
X101330166Y-42949880D02*
X101330166Y-43664166D01*
X101282547Y-43807023D01*
X101187309Y-43902261D01*
X101044452Y-43949880D01*
X100949214Y-43949880D01*
X102234928Y-43283214D02*
X102234928Y-43949880D01*
X101996833Y-42902261D02*
X101758738Y-43616547D01*
X102377785Y-43616547D01*
M02*
