G04 #@! TF.GenerationSoftware,KiCad,Pcbnew,(5.99.0-576-ga860ac506)*
G04 #@! TF.CreationDate,2021-04-05T12:44:30+02:00*
G04 #@! TF.ProjectId,50 pin to 34 pin Floppy Adapter,35302070-696e-4207-946f-203334207069,rev?*
G04 #@! TF.SameCoordinates,Original*
G04 #@! TF.FileFunction,AssemblyDrawing,Bot*
%FSLAX46Y46*%
G04 Gerber Fmt 4.6, Leading zero omitted, Abs format (unit mm)*
G04 Created by KiCad (PCBNEW (5.99.0-576-ga860ac506)) date 2021-04-05 12:44:30*
%MOMM*%
%LPD*%
G04 APERTURE LIST*
%ADD10C,0.100000*%
%ADD11C,0.150000*%
%ADD12C,0.075000*%
G04 APERTURE END LIST*
D10*
X88335500Y-39671500D02*
X88335500Y-37671500D01*
X88335500Y-37671500D02*
X86035500Y-37671500D01*
X86035500Y-37671500D02*
X86035500Y-39121500D01*
X86585500Y-39671500D02*
X88335500Y-39671500D01*
X86585500Y-39671500D02*
X86035500Y-39121500D01*
X40910000Y-36591000D02*
X40910000Y-37831000D01*
X42910000Y-36591000D02*
X40910000Y-36591000D01*
X42910000Y-37831000D02*
X42910000Y-36591000D01*
X40910000Y-37831000D02*
X42910000Y-37831000D01*
X85783500Y-30740500D02*
X89333500Y-30740500D01*
X89333500Y-30740500D02*
X89333500Y-20440500D01*
X89333500Y-20440500D02*
X84783500Y-20440500D01*
X84783500Y-20440500D02*
X84783500Y-29740500D01*
X84783500Y-29740500D02*
X85783500Y-30740500D01*
X111938000Y-26695500D02*
X111938000Y-28295500D01*
X111938000Y-28295500D02*
X115138000Y-28295500D01*
X115138000Y-28295500D02*
X115138000Y-26695500D01*
X115138000Y-26695500D02*
X111938000Y-26695500D01*
X115684500Y-26441500D02*
X115684500Y-28041500D01*
X115684500Y-28041500D02*
X118884500Y-28041500D01*
X118884500Y-28041500D02*
X118884500Y-26441500D01*
X118884500Y-26441500D02*
X115684500Y-26441500D01*
X102130500Y-33072500D02*
X103130500Y-32072500D01*
X92830500Y-33072500D02*
X102130500Y-33072500D01*
X92830500Y-28522500D02*
X92830500Y-33072500D01*
X103130500Y-28522500D02*
X92830500Y-28522500D01*
X103130500Y-32072500D02*
X103130500Y-28522500D01*
X107225500Y-26695500D02*
X104025500Y-26695500D01*
X107225500Y-28295500D02*
X107225500Y-26695500D01*
X104025500Y-28295500D02*
X107225500Y-28295500D01*
X104025500Y-26695500D02*
X104025500Y-28295500D01*
X107734000Y-26441500D02*
X107734000Y-28041500D01*
X107734000Y-28041500D02*
X110934000Y-28041500D01*
X110934000Y-28041500D02*
X110934000Y-26441500D01*
X110934000Y-26441500D02*
X107734000Y-26441500D01*
D11*
X92375976Y-36923880D02*
X92375976Y-35923880D01*
X91804547Y-36923880D01*
X91804547Y-35923880D01*
X90756928Y-36828642D02*
X90804547Y-36876261D01*
X90947404Y-36923880D01*
X91042642Y-36923880D01*
X91185500Y-36876261D01*
X91280738Y-36781023D01*
X91328357Y-36685785D01*
X91375976Y-36495309D01*
X91375976Y-36352452D01*
X91328357Y-36161976D01*
X91280738Y-36066738D01*
X91185500Y-35971500D01*
X91042642Y-35923880D01*
X90947404Y-35923880D01*
X90804547Y-35971500D01*
X90756928Y-36019119D01*
X90423595Y-35923880D02*
X89756928Y-35923880D01*
X90185500Y-36923880D01*
X89471214Y-35923880D02*
X89233119Y-36923880D01*
X89042642Y-36209595D01*
X88852166Y-36923880D01*
X88614071Y-35923880D01*
X88328357Y-35923880D02*
X87661690Y-35923880D01*
X88328357Y-36923880D01*
X87661690Y-36923880D01*
X86756928Y-36923880D02*
X87328357Y-36923880D01*
X87042642Y-36923880D02*
X87042642Y-35923880D01*
X87137880Y-36066738D01*
X87233119Y-36161976D01*
X87328357Y-36209595D01*
X86375976Y-36019119D02*
X86328357Y-35971500D01*
X86233119Y-35923880D01*
X85995023Y-35923880D01*
X85899785Y-35971500D01*
X85852166Y-36019119D01*
X85804547Y-36114357D01*
X85804547Y-36209595D01*
X85852166Y-36352452D01*
X86423595Y-36923880D01*
X85804547Y-36923880D01*
X84899785Y-35923880D02*
X85375976Y-35923880D01*
X85423595Y-36400071D01*
X85375976Y-36352452D01*
X85280738Y-36304833D01*
X85042642Y-36304833D01*
X84947404Y-36352452D01*
X84899785Y-36400071D01*
X84852166Y-36495309D01*
X84852166Y-36733404D01*
X84899785Y-36828642D01*
X84947404Y-36876261D01*
X85042642Y-36923880D01*
X85280738Y-36923880D01*
X85375976Y-36876261D01*
X85423595Y-36828642D01*
X84423595Y-36923880D02*
X84423595Y-35923880D01*
X83852166Y-36923880D02*
X84280738Y-36352452D01*
X83852166Y-35923880D02*
X84423595Y-36495309D01*
X83280738Y-36352452D02*
X83375976Y-36304833D01*
X83423595Y-36257214D01*
X83471214Y-36161976D01*
X83471214Y-36114357D01*
X83423595Y-36019119D01*
X83375976Y-35971500D01*
X83280738Y-35923880D01*
X83090261Y-35923880D01*
X82995023Y-35971500D01*
X82947404Y-36019119D01*
X82899785Y-36114357D01*
X82899785Y-36161976D01*
X82947404Y-36257214D01*
X82995023Y-36304833D01*
X83090261Y-36352452D01*
X83280738Y-36352452D01*
X83375976Y-36400071D01*
X83423595Y-36447690D01*
X83471214Y-36542928D01*
X83471214Y-36733404D01*
X83423595Y-36828642D01*
X83375976Y-36876261D01*
X83280738Y-36923880D01*
X83090261Y-36923880D01*
X82995023Y-36876261D01*
X82947404Y-36828642D01*
X82899785Y-36733404D01*
X82899785Y-36542928D01*
X82947404Y-36447690D01*
X82995023Y-36400071D01*
X83090261Y-36352452D01*
X82566452Y-35923880D02*
X81899785Y-36923880D01*
X81899785Y-35923880D02*
X82566452Y-36923880D01*
D10*
X87566452Y-38397690D02*
X87566452Y-38802452D01*
X87542642Y-38850071D01*
X87518833Y-38873880D01*
X87471214Y-38897690D01*
X87375976Y-38897690D01*
X87328357Y-38873880D01*
X87304547Y-38850071D01*
X87280738Y-38802452D01*
X87280738Y-38397690D01*
X86971214Y-38611976D02*
X87018833Y-38588166D01*
X87042642Y-38564357D01*
X87066452Y-38516738D01*
X87066452Y-38492928D01*
X87042642Y-38445309D01*
X87018833Y-38421500D01*
X86971214Y-38397690D01*
X86875976Y-38397690D01*
X86828357Y-38421500D01*
X86804547Y-38445309D01*
X86780738Y-38492928D01*
X86780738Y-38516738D01*
X86804547Y-38564357D01*
X86828357Y-38588166D01*
X86875976Y-38611976D01*
X86971214Y-38611976D01*
X87018833Y-38635785D01*
X87042642Y-38659595D01*
X87066452Y-38707214D01*
X87066452Y-38802452D01*
X87042642Y-38850071D01*
X87018833Y-38873880D01*
X86971214Y-38897690D01*
X86875976Y-38897690D01*
X86828357Y-38873880D01*
X86804547Y-38850071D01*
X86780738Y-38802452D01*
X86780738Y-38707214D01*
X86804547Y-38659595D01*
X86828357Y-38635785D01*
X86875976Y-38611976D01*
D11*
X40184904Y-36695119D02*
X40137285Y-36647500D01*
X40042047Y-36599880D01*
X39803952Y-36599880D01*
X39708714Y-36647500D01*
X39661095Y-36695119D01*
X39613476Y-36790357D01*
X39613476Y-36885595D01*
X39661095Y-37028452D01*
X40232523Y-37599880D01*
X39613476Y-37599880D01*
X39232523Y-36695119D02*
X39184904Y-36647500D01*
X39089666Y-36599880D01*
X38851571Y-36599880D01*
X38756333Y-36647500D01*
X38708714Y-36695119D01*
X38661095Y-36790357D01*
X38661095Y-36885595D01*
X38708714Y-37028452D01*
X39280142Y-37599880D01*
X38661095Y-37599880D01*
X38232523Y-37599880D02*
X38232523Y-36599880D01*
X37661095Y-37599880D02*
X38089666Y-37028452D01*
X37661095Y-36599880D02*
X38232523Y-37171309D01*
D12*
X41993333Y-37437190D02*
X42160000Y-37199095D01*
X42279047Y-37437190D02*
X42279047Y-36937190D01*
X42088571Y-36937190D01*
X42040952Y-36961000D01*
X42017142Y-36984809D01*
X41993333Y-37032428D01*
X41993333Y-37103857D01*
X42017142Y-37151476D01*
X42040952Y-37175285D01*
X42088571Y-37199095D01*
X42279047Y-37199095D01*
X41517142Y-37437190D02*
X41802857Y-37437190D01*
X41660000Y-37437190D02*
X41660000Y-36937190D01*
X41707619Y-37008619D01*
X41755238Y-37056238D01*
X41802857Y-37080047D01*
D11*
X90883928Y-32329380D02*
X90883928Y-31329380D01*
X90883928Y-31805571D02*
X90312500Y-31805571D01*
X90312500Y-32329380D02*
X90312500Y-31329380D01*
X89836309Y-31805571D02*
X89502976Y-31805571D01*
X89360119Y-32329380D02*
X89836309Y-32329380D01*
X89836309Y-31329380D01*
X89360119Y-31329380D01*
X88598214Y-31805571D02*
X88931547Y-31805571D01*
X88931547Y-32329380D02*
X88931547Y-31329380D01*
X88455357Y-31329380D01*
X87645833Y-31662714D02*
X87645833Y-32329380D01*
X87883928Y-31281761D02*
X88122023Y-31996047D01*
X87502976Y-31996047D01*
X86645833Y-31329380D02*
X87122023Y-31329380D01*
X87169642Y-31805571D01*
X87122023Y-31757952D01*
X87026785Y-31710333D01*
X86788690Y-31710333D01*
X86693452Y-31757952D01*
X86645833Y-31805571D01*
X86598214Y-31900809D01*
X86598214Y-32138904D01*
X86645833Y-32234142D01*
X86693452Y-32281761D01*
X86788690Y-32329380D01*
X87026785Y-32329380D01*
X87122023Y-32281761D01*
X87169642Y-32234142D01*
X85741071Y-31662714D02*
X85741071Y-32329380D01*
X85979166Y-31281761D02*
X86217261Y-31996047D01*
X85598214Y-31996047D01*
X85312500Y-31329380D02*
X84693452Y-31329380D01*
X85026785Y-31710333D01*
X84883928Y-31710333D01*
X84788690Y-31757952D01*
X84741071Y-31805571D01*
X84693452Y-31900809D01*
X84693452Y-32138904D01*
X84741071Y-32234142D01*
X84788690Y-32281761D01*
X84883928Y-32329380D01*
X85169642Y-32329380D01*
X85264880Y-32281761D01*
X85312500Y-32234142D01*
X83931547Y-31805571D02*
X83788690Y-31853190D01*
X83741071Y-31900809D01*
X83693452Y-31996047D01*
X83693452Y-32138904D01*
X83741071Y-32234142D01*
X83788690Y-32281761D01*
X83883928Y-32329380D01*
X84264880Y-32329380D01*
X84264880Y-31329380D01*
X83931547Y-31329380D01*
X83836309Y-31377000D01*
X83788690Y-31424619D01*
X83741071Y-31519857D01*
X83741071Y-31615095D01*
X83788690Y-31710333D01*
X83836309Y-31757952D01*
X83931547Y-31805571D01*
X84264880Y-31805571D01*
X87820404Y-25042880D02*
X87820404Y-25852404D01*
X87772785Y-25947642D01*
X87725166Y-25995261D01*
X87629928Y-26042880D01*
X87439452Y-26042880D01*
X87344214Y-25995261D01*
X87296595Y-25947642D01*
X87248976Y-25852404D01*
X87248976Y-25042880D01*
X86868023Y-25042880D02*
X86248976Y-25042880D01*
X86582309Y-25423833D01*
X86439452Y-25423833D01*
X86344214Y-25471452D01*
X86296595Y-25519071D01*
X86248976Y-25614309D01*
X86248976Y-25852404D01*
X86296595Y-25947642D01*
X86344214Y-25995261D01*
X86439452Y-26042880D01*
X86725166Y-26042880D01*
X86820404Y-25995261D01*
X86868023Y-25947642D01*
X114831666Y-25725380D02*
X115403095Y-25725380D01*
X115117380Y-25725380D02*
X115117380Y-24725380D01*
X115212619Y-24868238D01*
X115307857Y-24963476D01*
X115403095Y-25011095D01*
X113926904Y-24725380D02*
X114403095Y-24725380D01*
X114450714Y-25201571D01*
X114403095Y-25153952D01*
X114307857Y-25106333D01*
X114069761Y-25106333D01*
X113974523Y-25153952D01*
X113926904Y-25201571D01*
X113879285Y-25296809D01*
X113879285Y-25534904D01*
X113926904Y-25630142D01*
X113974523Y-25677761D01*
X114069761Y-25725380D01*
X114307857Y-25725380D01*
X114403095Y-25677761D01*
X114450714Y-25630142D01*
X113260238Y-24725380D02*
X113165000Y-24725380D01*
X113069761Y-24773000D01*
X113022142Y-24820619D01*
X112974523Y-24915857D01*
X112926904Y-25106333D01*
X112926904Y-25344428D01*
X112974523Y-25534904D01*
X113022142Y-25630142D01*
X113069761Y-25677761D01*
X113165000Y-25725380D01*
X113260238Y-25725380D01*
X113355476Y-25677761D01*
X113403095Y-25630142D01*
X113450714Y-25534904D01*
X113498333Y-25344428D01*
X113498333Y-25106333D01*
X113450714Y-24915857D01*
X113403095Y-24820619D01*
X113355476Y-24773000D01*
X113260238Y-24725380D01*
X111926904Y-25725380D02*
X112260238Y-25249190D01*
X112498333Y-25725380D02*
X112498333Y-24725380D01*
X112117380Y-24725380D01*
X112022142Y-24773000D01*
X111974523Y-24820619D01*
X111926904Y-24915857D01*
X111926904Y-25058714D01*
X111974523Y-25153952D01*
X112022142Y-25201571D01*
X112117380Y-25249190D01*
X112498333Y-25249190D01*
D12*
X113883238Y-27721690D02*
X114049904Y-27483595D01*
X114168952Y-27721690D02*
X114168952Y-27221690D01*
X113978476Y-27221690D01*
X113930857Y-27245500D01*
X113907047Y-27269309D01*
X113883238Y-27316928D01*
X113883238Y-27388357D01*
X113907047Y-27435976D01*
X113930857Y-27459785D01*
X113978476Y-27483595D01*
X114168952Y-27483595D01*
X113668952Y-27721690D02*
X113668952Y-27221690D01*
X113383238Y-27721690D01*
X113383238Y-27221690D01*
X112930857Y-27221690D02*
X113026095Y-27221690D01*
X113073714Y-27245500D01*
X113097523Y-27269309D01*
X113145142Y-27340738D01*
X113168952Y-27435976D01*
X113168952Y-27626452D01*
X113145142Y-27674071D01*
X113121333Y-27697880D01*
X113073714Y-27721690D01*
X112978476Y-27721690D01*
X112930857Y-27697880D01*
X112907047Y-27674071D01*
X112883238Y-27626452D01*
X112883238Y-27507404D01*
X112907047Y-27459785D01*
X112930857Y-27435976D01*
X112978476Y-27412166D01*
X113073714Y-27412166D01*
X113121333Y-27435976D01*
X113145142Y-27459785D01*
X113168952Y-27507404D01*
D11*
X118514666Y-25534880D02*
X119086095Y-25534880D01*
X118800380Y-25534880D02*
X118800380Y-24534880D01*
X118895619Y-24677738D01*
X118990857Y-24772976D01*
X119086095Y-24820595D01*
X117609904Y-24534880D02*
X118086095Y-24534880D01*
X118133714Y-25011071D01*
X118086095Y-24963452D01*
X117990857Y-24915833D01*
X117752761Y-24915833D01*
X117657523Y-24963452D01*
X117609904Y-25011071D01*
X117562285Y-25106309D01*
X117562285Y-25344404D01*
X117609904Y-25439642D01*
X117657523Y-25487261D01*
X117752761Y-25534880D01*
X117990857Y-25534880D01*
X118086095Y-25487261D01*
X118133714Y-25439642D01*
X116943238Y-24534880D02*
X116848000Y-24534880D01*
X116752761Y-24582500D01*
X116705142Y-24630119D01*
X116657523Y-24725357D01*
X116609904Y-24915833D01*
X116609904Y-25153928D01*
X116657523Y-25344404D01*
X116705142Y-25439642D01*
X116752761Y-25487261D01*
X116848000Y-25534880D01*
X116943238Y-25534880D01*
X117038476Y-25487261D01*
X117086095Y-25439642D01*
X117133714Y-25344404D01*
X117181333Y-25153928D01*
X117181333Y-24915833D01*
X117133714Y-24725357D01*
X117086095Y-24630119D01*
X117038476Y-24582500D01*
X116943238Y-24534880D01*
X115609904Y-25534880D02*
X115943238Y-25058690D01*
X116181333Y-25534880D02*
X116181333Y-24534880D01*
X115800380Y-24534880D01*
X115705142Y-24582500D01*
X115657523Y-24630119D01*
X115609904Y-24725357D01*
X115609904Y-24868214D01*
X115657523Y-24963452D01*
X115705142Y-25011071D01*
X115800380Y-25058690D01*
X116181333Y-25058690D01*
D12*
X117629738Y-27467690D02*
X117796404Y-27229595D01*
X117915452Y-27467690D02*
X117915452Y-26967690D01*
X117724976Y-26967690D01*
X117677357Y-26991500D01*
X117653547Y-27015309D01*
X117629738Y-27062928D01*
X117629738Y-27134357D01*
X117653547Y-27181976D01*
X117677357Y-27205785D01*
X117724976Y-27229595D01*
X117915452Y-27229595D01*
X117415452Y-27467690D02*
X117415452Y-26967690D01*
X117129738Y-27467690D01*
X117129738Y-26967690D01*
X116653547Y-26967690D02*
X116891642Y-26967690D01*
X116915452Y-27205785D01*
X116891642Y-27181976D01*
X116844023Y-27158166D01*
X116724976Y-27158166D01*
X116677357Y-27181976D01*
X116653547Y-27205785D01*
X116629738Y-27253404D01*
X116629738Y-27372452D01*
X116653547Y-27420071D01*
X116677357Y-27443880D01*
X116724976Y-27467690D01*
X116844023Y-27467690D01*
X116891642Y-27443880D01*
X116915452Y-27420071D01*
D11*
X101551928Y-32265880D02*
X101551928Y-31265880D01*
X101551928Y-31742071D02*
X100980500Y-31742071D01*
X100980500Y-32265880D02*
X100980500Y-31265880D01*
X100504309Y-31742071D02*
X100170976Y-31742071D01*
X100028119Y-32265880D02*
X100504309Y-32265880D01*
X100504309Y-31265880D01*
X100028119Y-31265880D01*
X99266214Y-31742071D02*
X99599547Y-31742071D01*
X99599547Y-32265880D02*
X99599547Y-31265880D01*
X99123357Y-31265880D01*
X98313833Y-31599214D02*
X98313833Y-32265880D01*
X98551928Y-31218261D02*
X98790023Y-31932547D01*
X98170976Y-31932547D01*
X97313833Y-31265880D02*
X97790023Y-31265880D01*
X97837642Y-31742071D01*
X97790023Y-31694452D01*
X97694785Y-31646833D01*
X97456690Y-31646833D01*
X97361452Y-31694452D01*
X97313833Y-31742071D01*
X97266214Y-31837309D01*
X97266214Y-32075404D01*
X97313833Y-32170642D01*
X97361452Y-32218261D01*
X97456690Y-32265880D01*
X97694785Y-32265880D01*
X97790023Y-32218261D01*
X97837642Y-32170642D01*
X96409071Y-31599214D02*
X96409071Y-32265880D01*
X96647166Y-31218261D02*
X96885261Y-31932547D01*
X96266214Y-31932547D01*
X95980500Y-31265880D02*
X95361452Y-31265880D01*
X95694785Y-31646833D01*
X95551928Y-31646833D01*
X95456690Y-31694452D01*
X95409071Y-31742071D01*
X95361452Y-31837309D01*
X95361452Y-32075404D01*
X95409071Y-32170642D01*
X95456690Y-32218261D01*
X95551928Y-32265880D01*
X95837642Y-32265880D01*
X95932880Y-32218261D01*
X95980500Y-32170642D01*
X94599547Y-31742071D02*
X94456690Y-31789690D01*
X94409071Y-31837309D01*
X94361452Y-31932547D01*
X94361452Y-32075404D01*
X94409071Y-32170642D01*
X94456690Y-32218261D01*
X94551928Y-32265880D01*
X94932880Y-32265880D01*
X94932880Y-31265880D01*
X94599547Y-31265880D01*
X94504309Y-31313500D01*
X94456690Y-31361119D01*
X94409071Y-31456357D01*
X94409071Y-31551595D01*
X94456690Y-31646833D01*
X94504309Y-31694452D01*
X94599547Y-31742071D01*
X94932880Y-31742071D01*
X98551904Y-28979880D02*
X98551904Y-29789404D01*
X98504285Y-29884642D01*
X98456666Y-29932261D01*
X98361428Y-29979880D01*
X98170952Y-29979880D01*
X98075714Y-29932261D01*
X98028095Y-29884642D01*
X97980476Y-29789404D01*
X97980476Y-28979880D01*
X97551904Y-29075119D02*
X97504285Y-29027500D01*
X97409047Y-28979880D01*
X97170952Y-28979880D01*
X97075714Y-29027500D01*
X97028095Y-29075119D01*
X96980476Y-29170357D01*
X96980476Y-29265595D01*
X97028095Y-29408452D01*
X97599523Y-29979880D01*
X96980476Y-29979880D01*
X106894166Y-25725380D02*
X107465595Y-25725380D01*
X107179880Y-25725380D02*
X107179880Y-24725380D01*
X107275119Y-24868238D01*
X107370357Y-24963476D01*
X107465595Y-25011095D01*
X105989404Y-24725380D02*
X106465595Y-24725380D01*
X106513214Y-25201571D01*
X106465595Y-25153952D01*
X106370357Y-25106333D01*
X106132261Y-25106333D01*
X106037023Y-25153952D01*
X105989404Y-25201571D01*
X105941785Y-25296809D01*
X105941785Y-25534904D01*
X105989404Y-25630142D01*
X106037023Y-25677761D01*
X106132261Y-25725380D01*
X106370357Y-25725380D01*
X106465595Y-25677761D01*
X106513214Y-25630142D01*
X105322738Y-24725380D02*
X105227500Y-24725380D01*
X105132261Y-24773000D01*
X105084642Y-24820619D01*
X105037023Y-24915857D01*
X104989404Y-25106333D01*
X104989404Y-25344428D01*
X105037023Y-25534904D01*
X105084642Y-25630142D01*
X105132261Y-25677761D01*
X105227500Y-25725380D01*
X105322738Y-25725380D01*
X105417976Y-25677761D01*
X105465595Y-25630142D01*
X105513214Y-25534904D01*
X105560833Y-25344428D01*
X105560833Y-25106333D01*
X105513214Y-24915857D01*
X105465595Y-24820619D01*
X105417976Y-24773000D01*
X105322738Y-24725380D01*
X103989404Y-25725380D02*
X104322738Y-25249190D01*
X104560833Y-25725380D02*
X104560833Y-24725380D01*
X104179880Y-24725380D01*
X104084642Y-24773000D01*
X104037023Y-24820619D01*
X103989404Y-24915857D01*
X103989404Y-25058714D01*
X104037023Y-25153952D01*
X104084642Y-25201571D01*
X104179880Y-25249190D01*
X104560833Y-25249190D01*
D12*
X105970738Y-27721690D02*
X106137404Y-27483595D01*
X106256452Y-27721690D02*
X106256452Y-27221690D01*
X106065976Y-27221690D01*
X106018357Y-27245500D01*
X105994547Y-27269309D01*
X105970738Y-27316928D01*
X105970738Y-27388357D01*
X105994547Y-27435976D01*
X106018357Y-27459785D01*
X106065976Y-27483595D01*
X106256452Y-27483595D01*
X105756452Y-27721690D02*
X105756452Y-27221690D01*
X105470738Y-27721690D01*
X105470738Y-27221690D01*
X105256452Y-27269309D02*
X105232642Y-27245500D01*
X105185023Y-27221690D01*
X105065976Y-27221690D01*
X105018357Y-27245500D01*
X104994547Y-27269309D01*
X104970738Y-27316928D01*
X104970738Y-27364547D01*
X104994547Y-27435976D01*
X105280261Y-27721690D01*
X104970738Y-27721690D01*
D11*
X110640666Y-25471380D02*
X111212095Y-25471380D01*
X110926380Y-25471380D02*
X110926380Y-24471380D01*
X111021619Y-24614238D01*
X111116857Y-24709476D01*
X111212095Y-24757095D01*
X109735904Y-24471380D02*
X110212095Y-24471380D01*
X110259714Y-24947571D01*
X110212095Y-24899952D01*
X110116857Y-24852333D01*
X109878761Y-24852333D01*
X109783523Y-24899952D01*
X109735904Y-24947571D01*
X109688285Y-25042809D01*
X109688285Y-25280904D01*
X109735904Y-25376142D01*
X109783523Y-25423761D01*
X109878761Y-25471380D01*
X110116857Y-25471380D01*
X110212095Y-25423761D01*
X110259714Y-25376142D01*
X109069238Y-24471380D02*
X108974000Y-24471380D01*
X108878761Y-24519000D01*
X108831142Y-24566619D01*
X108783523Y-24661857D01*
X108735904Y-24852333D01*
X108735904Y-25090428D01*
X108783523Y-25280904D01*
X108831142Y-25376142D01*
X108878761Y-25423761D01*
X108974000Y-25471380D01*
X109069238Y-25471380D01*
X109164476Y-25423761D01*
X109212095Y-25376142D01*
X109259714Y-25280904D01*
X109307333Y-25090428D01*
X109307333Y-24852333D01*
X109259714Y-24661857D01*
X109212095Y-24566619D01*
X109164476Y-24519000D01*
X109069238Y-24471380D01*
X107735904Y-25471380D02*
X108069238Y-24995190D01*
X108307333Y-25471380D02*
X108307333Y-24471380D01*
X107926380Y-24471380D01*
X107831142Y-24519000D01*
X107783523Y-24566619D01*
X107735904Y-24661857D01*
X107735904Y-24804714D01*
X107783523Y-24899952D01*
X107831142Y-24947571D01*
X107926380Y-24995190D01*
X108307333Y-24995190D01*
D12*
X109679238Y-27467690D02*
X109845904Y-27229595D01*
X109964952Y-27467690D02*
X109964952Y-26967690D01*
X109774476Y-26967690D01*
X109726857Y-26991500D01*
X109703047Y-27015309D01*
X109679238Y-27062928D01*
X109679238Y-27134357D01*
X109703047Y-27181976D01*
X109726857Y-27205785D01*
X109774476Y-27229595D01*
X109964952Y-27229595D01*
X109464952Y-27467690D02*
X109464952Y-26967690D01*
X109179238Y-27467690D01*
X109179238Y-26967690D01*
X108679238Y-27467690D02*
X108964952Y-27467690D01*
X108822095Y-27467690D02*
X108822095Y-26967690D01*
X108869714Y-27039119D01*
X108917333Y-27086738D01*
X108964952Y-27110547D01*
M02*
