G04 #@! TF.GenerationSoftware,KiCad,Pcbnew,(5.99.0-576-ga860ac506)*
G04 #@! TF.CreationDate,2021-04-05T12:44:30+02:00*
G04 #@! TF.ProjectId,50 pin to 34 pin Floppy Adapter,35302070-696e-4207-946f-203334207069,rev?*
G04 #@! TF.SameCoordinates,Original*
G04 #@! TF.FileFunction,Copper,L1,Top*
G04 #@! TF.FilePolarity,Positive*
%FSLAX46Y46*%
G04 Gerber Fmt 4.6, Leading zero omitted, Abs format (unit mm)*
G04 Created by KiCad (PCBNEW (5.99.0-576-ga860ac506)) date 2021-04-05 12:44:30*
%MOMM*%
%LPD*%
G04 APERTURE LIST*
%ADD10R,2.600000X2.000000*%
%ADD11O,2.600000X2.000000*%
%ADD12R,1.300000X0.700000*%
%ADD13R,0.400000X0.650000*%
%ADD14R,1.700000X1.700000*%
%ADD15C,1.700000*%
%ADD16R,1.950000X2.500000*%
%ADD17R,0.600000X0.500000*%
%ADD18O,1.700000X1.700000*%
%ADD19R,1.000000X3.000000*%
%ADD20R,1.550000X1.300000*%
%ADD21R,0.370000X1.000000*%
%ADD22R,1.000000X0.370000*%
%ADD23R,1.062500X1.062500*%
%ADD24C,0.800000*%
%ADD25C,0.250000*%
%ADD26C,0.400000*%
%ADD27C,2.000000*%
%ADD28C,0.350000*%
%ADD29C,0.500000*%
%ADD30C,1.000000*%
%ADD31C,1.500000*%
%ADD32C,1.600000*%
G04 APERTURE END LIST*
D10*
X23876000Y-30670500D03*
D11*
X23876000Y-28170500D03*
X23876000Y-25670500D03*
X23876000Y-23170500D03*
G04 #@! TA.AperFunction,SMDPad,CuDef*
G36*
X33753835Y-35036658D02*
G01*
X33693647Y-35166620D01*
X33599401Y-35274465D01*
X33478675Y-35351524D01*
X33341174Y-35391602D01*
X33269999Y-35390670D01*
X33269999Y-35391500D01*
X32841525Y-35391499D01*
X32841175Y-35391601D01*
X32833385Y-35391499D01*
X32770000Y-35391499D01*
X32770000Y-35390669D01*
X32685758Y-35389566D01*
X32549354Y-35345903D01*
X32430686Y-35265710D01*
X32339296Y-35155434D01*
X32282531Y-35023942D01*
X32264952Y-34881803D01*
X32270000Y-34850807D01*
X32270001Y-34391500D01*
X32701584Y-34391500D01*
X32704941Y-34390566D01*
X32776279Y-34391500D01*
X33201583Y-34391501D01*
X33204940Y-34390567D01*
X33276278Y-34391501D01*
X33770000Y-34391501D01*
X33770000Y-34857341D01*
X33775129Y-34895027D01*
X33753835Y-35036658D01*
G37*
G04 #@! TD.AperFunction*
G04 #@! TA.AperFunction,SMDPad,CuDef*
G36*
X33770000Y-33629141D02*
G01*
X33769999Y-34091500D01*
X33341524Y-34091500D01*
X33341174Y-34091602D01*
X33333384Y-34091500D01*
X32841525Y-34091499D01*
X32841175Y-34091601D01*
X32833385Y-34091499D01*
X32270000Y-34091499D01*
X32270000Y-33622619D01*
X32264952Y-33581803D01*
X32287974Y-33440442D01*
X32349746Y-33311225D01*
X32445303Y-33204540D01*
X32566961Y-33128961D01*
X32704941Y-33090566D01*
X32776279Y-33091500D01*
X33201583Y-33091501D01*
X33204940Y-33090567D01*
X33348151Y-33092442D01*
X33485079Y-33134436D01*
X33604717Y-33213173D01*
X33697447Y-33322323D01*
X33755815Y-33453113D01*
X33775129Y-33595027D01*
X33770000Y-33629141D01*
G37*
G04 #@! TD.AperFunction*
D12*
X63500000Y-32702500D03*
X63500000Y-30802500D03*
D13*
X80122000Y-26413500D03*
X81422000Y-26413500D03*
X80772000Y-24513500D03*
X80772000Y-26413500D03*
X81422000Y-24513500D03*
X80122000Y-24513500D03*
D14*
X93980000Y-42164000D03*
D15*
X93980000Y-44704000D03*
X91440000Y-42164000D03*
X91440000Y-44704000D03*
X88900000Y-42164000D03*
X88900000Y-44704000D03*
X86360000Y-42164000D03*
X86360000Y-44704000D03*
X83820000Y-42164000D03*
X83820000Y-44704000D03*
X81280000Y-42164000D03*
X81280000Y-44704000D03*
X78740000Y-42164000D03*
X78740000Y-44704000D03*
X76200000Y-42164000D03*
X76200000Y-44704000D03*
X73660000Y-42164000D03*
X73660000Y-44704000D03*
X71120000Y-42164000D03*
X71120000Y-44704000D03*
X68580000Y-42164000D03*
X68580000Y-44704000D03*
X66040000Y-42164000D03*
X66040000Y-44704000D03*
X63500000Y-42164000D03*
X63500000Y-44704000D03*
X60960000Y-42164000D03*
X60960000Y-44704000D03*
X58420000Y-42164000D03*
X58420000Y-44704000D03*
X55880000Y-42164000D03*
X55880000Y-44704000D03*
X53340000Y-42164000D03*
X53340000Y-44704000D03*
X50800000Y-42164000D03*
X50800000Y-44704000D03*
X48260000Y-42164000D03*
X48260000Y-44704000D03*
X45720000Y-42164000D03*
X45720000Y-44704000D03*
X43180000Y-42164000D03*
X43180000Y-44704000D03*
X40640000Y-42164000D03*
X40640000Y-44704000D03*
X38100000Y-42164000D03*
X38100000Y-44704000D03*
X35560000Y-42164000D03*
X35560000Y-44704000D03*
X33020000Y-42164000D03*
X33020000Y-44704000D03*
D16*
X23430500Y-34480500D03*
X26480500Y-34480500D03*
D17*
X24405500Y-36830000D03*
X25505500Y-36830000D03*
D14*
X40640000Y-34417000D03*
D18*
X43180000Y-34417000D03*
X45720000Y-34417000D03*
X48260000Y-34417000D03*
X50800000Y-34417000D03*
D12*
X55880000Y-32697500D03*
X55880000Y-30797500D03*
X104521000Y-42860000D03*
X104521000Y-40960000D03*
D19*
X112500000Y-34919500D03*
X114000000Y-34919500D03*
X115500000Y-34919500D03*
X117000000Y-34919500D03*
X118500000Y-34919500D03*
X118500000Y-22919500D03*
X117000000Y-22919500D03*
X115500000Y-22919500D03*
X114000000Y-22919500D03*
X112500000Y-22919500D03*
X104499000Y-34919500D03*
X105999000Y-34919500D03*
X107499000Y-34919500D03*
X108999000Y-34919500D03*
X110499000Y-34919500D03*
X110499000Y-22919500D03*
X108999000Y-22919500D03*
X107499000Y-22919500D03*
X105999000Y-22919500D03*
X104499000Y-22919500D03*
D20*
X114660500Y-38390000D03*
X114660500Y-42890000D03*
X106700500Y-42890000D03*
X106700500Y-38390000D03*
D21*
X76766750Y-37624750D03*
X77416750Y-37624750D03*
X78066750Y-37624750D03*
X78716750Y-37624750D03*
X79366750Y-37624750D03*
X80016750Y-37624750D03*
X80666750Y-37624750D03*
D22*
X81566750Y-36724750D03*
X81566750Y-36074750D03*
X81566750Y-35424750D03*
X81566750Y-34774750D03*
X81566750Y-34124750D03*
X81566750Y-33474750D03*
X81566750Y-32824750D03*
D21*
X80666750Y-31924750D03*
X80016750Y-31924750D03*
X79366750Y-31924750D03*
X78716750Y-31924750D03*
X78066750Y-31924750D03*
X77416750Y-31924750D03*
X76766750Y-31924750D03*
D22*
X75866750Y-32824750D03*
X75866750Y-33474750D03*
X75866750Y-34124750D03*
X75866750Y-34774750D03*
X75866750Y-35424750D03*
X75866750Y-36074750D03*
X75866750Y-36724750D03*
D23*
X80310500Y-33181000D03*
X79248000Y-33181000D03*
X78185500Y-33181000D03*
X77123000Y-33181000D03*
X80310500Y-34243500D03*
X79248000Y-34243500D03*
X78185500Y-34243500D03*
X77123000Y-34243500D03*
X80310500Y-35306000D03*
X79248000Y-35306000D03*
X78185500Y-35306000D03*
X77123000Y-35306000D03*
X80310500Y-36368500D03*
X79248000Y-36368500D03*
X78185500Y-36368500D03*
X77123000Y-36368500D03*
D15*
X33020000Y-26290000D03*
X33020000Y-23750000D03*
X35560000Y-26290000D03*
X35560000Y-23750000D03*
X38100000Y-26290000D03*
X38100000Y-23750000D03*
X40640000Y-26290000D03*
X40640000Y-23750000D03*
X43180000Y-26290000D03*
X43180000Y-23750000D03*
X45720000Y-26290000D03*
X45720000Y-23750000D03*
X48260000Y-26290000D03*
X48260000Y-23750000D03*
X50800000Y-26290000D03*
X50800000Y-23750000D03*
X53340000Y-26290000D03*
X53340000Y-23750000D03*
X55880000Y-26290000D03*
X55880000Y-23750000D03*
X58420000Y-26290000D03*
X58420000Y-23750000D03*
X60960000Y-26290000D03*
X60960000Y-23750000D03*
X63500000Y-26290000D03*
X63500000Y-23750000D03*
X66040000Y-26290000D03*
X66040000Y-23750000D03*
X68580000Y-26290000D03*
X68580000Y-23750000D03*
X71120000Y-26290000D03*
X71120000Y-23750000D03*
X73660000Y-26290000D03*
D14*
X73660000Y-23750000D03*
D18*
X101663500Y-46037500D03*
X101663500Y-43497500D03*
D14*
X101663500Y-40957500D03*
D24*
X87506346Y-39430154D03*
X74358500Y-31205010D03*
X73351870Y-31205010D03*
X72626860Y-30480000D03*
X101155500Y-34036000D03*
X99885500Y-34036000D03*
X70485000Y-31940500D03*
X65976500Y-39306500D03*
X74803000Y-39787990D03*
X116903500Y-30543500D03*
X116903500Y-29400500D03*
X112331500Y-30607000D03*
X112337986Y-29464000D03*
X108966000Y-29427590D03*
X108966000Y-30543500D03*
X104425500Y-30607000D03*
X104425462Y-29527500D03*
X74041000Y-36799750D03*
X69088000Y-34189510D03*
X70612000Y-35623500D03*
X69850000Y-34925000D03*
X74358500Y-32702500D03*
X71818500Y-29718000D03*
X73215500Y-37655500D03*
X72453500Y-36893500D03*
X68897500Y-32702500D03*
X67754500Y-32702500D03*
X89916000Y-38417500D03*
X49530000Y-40360510D03*
X76769755Y-28982500D03*
X63500000Y-32702500D03*
X55880000Y-32702500D03*
X76898500Y-27432000D03*
X78422500Y-28257500D03*
X81474998Y-28443177D03*
X90297000Y-30035500D03*
X98597376Y-31135510D03*
X52070000Y-38200490D03*
X79284990Y-38940149D03*
X87439500Y-34798000D03*
X86614000Y-34036000D03*
X84103709Y-39623680D03*
X86781345Y-38685335D03*
X80454500Y-39497000D03*
X79863431Y-40303636D03*
X76263500Y-40513000D03*
X80518000Y-22415500D03*
X80091760Y-30897405D03*
X118484502Y-26278000D03*
X110534002Y-26341500D03*
X104514500Y-34952000D03*
X105975000Y-34952000D03*
X109023000Y-34952000D03*
X110483500Y-34952000D03*
X113976000Y-34888500D03*
X112579000Y-34888500D03*
X117024000Y-34888500D03*
X118484500Y-34888500D03*
X83820000Y-28765500D03*
X83820000Y-27495500D03*
X83820000Y-26225500D03*
X83820000Y-24955500D03*
X97345500Y-34099500D03*
X82105500Y-22415500D03*
X94805500Y-34036000D03*
X77470000Y-40449500D03*
X85471000Y-23685500D03*
X33020000Y-36639500D03*
D25*
X87506346Y-38337334D02*
X87506346Y-38864469D01*
X86793762Y-37624750D02*
X87506346Y-38337334D01*
X87506346Y-38864469D02*
X87506346Y-39430154D01*
X80666750Y-37624750D02*
X86793762Y-37624750D01*
X74358500Y-30639325D02*
X74358500Y-31205010D01*
X77379999Y-26706999D02*
X76550499Y-26706999D01*
X81422000Y-27036000D02*
X81026000Y-27432000D01*
X73351870Y-28819630D02*
X73351870Y-30639325D01*
X76333000Y-25838500D02*
X73351870Y-28819630D01*
X80122000Y-26413500D02*
X80122000Y-26288500D01*
X80122000Y-26288500D02*
X79672000Y-25838500D01*
X81422000Y-26413500D02*
X81422000Y-27036000D01*
X73351870Y-30639325D02*
X73351870Y-31205010D01*
X79672000Y-25838500D02*
X76333000Y-25838500D01*
X76550499Y-26706999D02*
X74358500Y-28898998D01*
X74358500Y-28898998D02*
X74358500Y-30639325D01*
X78105000Y-27432000D02*
X77379999Y-26706999D01*
X81026000Y-27432000D02*
X78105000Y-27432000D01*
X70554315Y-30480000D02*
X72061175Y-30480000D01*
X68897500Y-32702500D02*
X68897500Y-32136815D01*
X72061175Y-30480000D02*
X72626860Y-30480000D01*
X68897500Y-32136815D02*
X70554315Y-30480000D01*
X86388988Y-31860512D02*
X98980012Y-31860512D01*
X81566750Y-35433000D02*
X82816500Y-35433000D01*
X82816500Y-35433000D02*
X86388988Y-31860512D01*
X100755501Y-33636001D02*
X101155500Y-34036000D01*
X98980012Y-31860512D02*
X100755501Y-33636001D01*
X86556455Y-32348000D02*
X98197500Y-32348000D01*
X81566750Y-36068000D02*
X82836455Y-36068000D01*
X99485501Y-33636001D02*
X99885500Y-34036000D01*
X98197500Y-32348000D02*
X99485501Y-33636001D01*
X82836455Y-36068000D02*
X86556455Y-32348000D01*
X81566750Y-32479250D02*
X83820000Y-30226000D01*
X81566750Y-32829500D02*
X81566750Y-32479250D01*
X83820000Y-30226000D02*
X83820000Y-29331185D01*
X83820000Y-29331185D02*
X83820000Y-28765500D01*
X82359500Y-34099500D02*
X84995011Y-31463989D01*
X81566750Y-34099500D02*
X82359500Y-34099500D01*
X84995011Y-26130511D02*
X83820000Y-24955500D01*
X84995011Y-31463989D02*
X84995011Y-26130511D01*
X82232500Y-33464500D02*
X84545000Y-31152000D01*
X81566750Y-33464500D02*
X82232500Y-33464500D01*
X84545000Y-31152000D02*
X84545000Y-28220500D01*
X84545000Y-28220500D02*
X84219999Y-27895499D01*
X84219999Y-27895499D02*
X83820000Y-27495500D01*
X81280000Y-31940500D02*
X83058000Y-30162500D01*
X83058000Y-26987500D02*
X83820000Y-26225500D01*
X80666750Y-31940500D02*
X81280000Y-31940500D01*
X83058000Y-30162500D02*
X83058000Y-26987500D01*
X100393500Y-43561000D02*
X91630500Y-34798000D01*
X91630500Y-34798000D02*
X88005185Y-34798000D01*
X101663500Y-43561000D02*
X100393500Y-43561000D01*
X88005185Y-34798000D02*
X87439500Y-34798000D01*
X67754500Y-32258000D02*
X70294500Y-29718000D01*
X70294500Y-29718000D02*
X71818500Y-29718000D01*
X67754500Y-32702500D02*
X67754500Y-32258000D01*
X76751000Y-31940500D02*
X71050685Y-31940500D01*
X76766750Y-31924750D02*
X76751000Y-31940500D01*
X71050685Y-31940500D02*
X70485000Y-31940500D01*
D26*
X67310000Y-40640000D02*
X66376499Y-39706499D01*
X67310000Y-43434000D02*
X67310000Y-40640000D01*
X66376499Y-39706499D02*
X65976500Y-39306500D01*
X68580000Y-44704000D02*
X67310000Y-43434000D01*
D25*
X75368685Y-39787990D02*
X74803000Y-39787990D01*
X76003510Y-39787990D02*
X75368685Y-39787990D01*
X77416750Y-38374750D02*
X76003510Y-39787990D01*
X77416750Y-37624750D02*
X77416750Y-38374750D01*
D27*
X26098500Y-28194000D02*
X23876000Y-28194000D01*
X26733500Y-28829000D02*
X26098500Y-28194000D01*
X26733500Y-38036500D02*
X26733500Y-28829000D01*
X28829000Y-25654000D02*
X30733000Y-23750000D01*
X32829500Y-42164000D02*
X30861000Y-42164000D01*
X30733000Y-23750000D02*
X33020000Y-23750000D01*
X30861000Y-42164000D02*
X26733500Y-38036500D01*
X23876000Y-28194000D02*
X23876000Y-25654000D01*
X23876000Y-25654000D02*
X28829000Y-25654000D01*
D25*
X116998500Y-25262000D02*
X116084509Y-26175991D01*
X116084509Y-29724509D02*
X116503501Y-30143501D01*
X116503501Y-30143501D02*
X116903500Y-30543500D01*
X116084509Y-26175991D02*
X116084509Y-29724509D01*
X116998500Y-22912500D02*
X116998500Y-25262000D01*
X118522500Y-22912500D02*
X118522500Y-24754000D01*
X118522500Y-24754000D02*
X116903500Y-26373000D01*
X116903500Y-28834815D02*
X116903500Y-29400500D01*
X116903500Y-26373000D02*
X116903500Y-28834815D01*
X112490000Y-22976000D02*
X112490000Y-25305000D01*
X111931501Y-30207001D02*
X112331500Y-30607000D01*
X112490000Y-25305000D02*
X111612985Y-26182015D01*
X111612985Y-29888485D02*
X111931501Y-30207001D01*
X111612985Y-26182015D02*
X111612985Y-29888485D01*
X114014000Y-27787986D02*
X112737985Y-29064001D01*
X114014000Y-22976000D02*
X114014000Y-27787986D01*
X112737985Y-29064001D02*
X112337986Y-29464000D01*
X104499000Y-25358500D02*
X103663500Y-26194000D01*
X104499000Y-22919500D02*
X104499000Y-25358500D01*
X103663500Y-29845000D02*
X104025501Y-30207001D01*
X103663500Y-26194000D02*
X103663500Y-29845000D01*
X104025501Y-30207001D02*
X104425500Y-30607000D01*
X108966000Y-26436500D02*
X108966000Y-28861905D01*
X108966000Y-28861905D02*
X108966000Y-29427590D01*
X110458000Y-24944500D02*
X108966000Y-26436500D01*
X110458000Y-22912500D02*
X110458000Y-24944500D01*
X108566001Y-30143501D02*
X108966000Y-30543500D01*
X108081998Y-29659498D02*
X108566001Y-30143501D01*
X108997500Y-22912500D02*
X108997500Y-25325500D01*
X108081998Y-26241002D02*
X108081998Y-29659498D01*
X108997500Y-25325500D02*
X108081998Y-26241002D01*
X106013000Y-27939962D02*
X104825461Y-29127501D01*
X106013000Y-22976000D02*
X106013000Y-27939962D01*
X104825461Y-29127501D02*
X104425462Y-29527500D01*
X75866750Y-36724750D02*
X74116000Y-36724750D01*
X74116000Y-36724750D02*
X74041000Y-36799750D01*
X75776740Y-34189510D02*
X69653685Y-34189510D01*
D26*
X71120000Y-44704000D02*
X69850000Y-43434000D01*
D25*
X75866750Y-34099500D02*
X75776740Y-34189510D01*
D26*
X66040000Y-32325512D02*
X66040000Y-26289000D01*
D25*
X69653685Y-34189510D02*
X69088000Y-34189510D01*
D26*
X69850000Y-36135512D02*
X66040000Y-32325512D01*
D25*
X71818500Y-33464500D02*
X75866750Y-33464500D01*
X67246500Y-33464500D02*
X71818500Y-33464500D01*
D26*
X69850000Y-43434000D02*
X69850000Y-36135512D01*
D25*
X67244493Y-33466507D02*
X67246500Y-33464500D01*
X75866750Y-35433000D02*
X70802500Y-35433000D01*
X70802500Y-35433000D02*
X70612000Y-35623500D01*
X75882500Y-34798000D02*
X69977000Y-34798000D01*
X69977000Y-34798000D02*
X69850000Y-34925000D01*
X75866750Y-32824750D02*
X74480750Y-32824750D01*
X74480750Y-32824750D02*
X74358500Y-32702500D01*
X73246250Y-37624750D02*
X73215500Y-37655500D01*
X76766750Y-37624750D02*
X73246250Y-37624750D01*
X73272250Y-36074750D02*
X72453500Y-36893500D01*
X75866750Y-36074750D02*
X73272250Y-36074750D01*
D28*
X95377000Y-43307000D02*
X95377000Y-41148000D01*
X93980000Y-44704000D02*
X95377000Y-43307000D01*
X95377000Y-41148000D02*
X92646500Y-38417500D01*
X92646500Y-38417500D02*
X90481685Y-38417500D01*
X90481685Y-38417500D02*
X89916000Y-38417500D01*
D26*
X49530000Y-27622500D02*
X49530000Y-39794825D01*
X49530000Y-43434000D02*
X49530000Y-40360510D01*
X49530000Y-39794825D02*
X49530000Y-40360510D01*
X50800000Y-44704000D02*
X49530000Y-43434000D01*
X50800000Y-26352500D02*
X49530000Y-27622500D01*
D25*
X77416750Y-31924750D02*
X77416750Y-29629495D01*
X77416750Y-29629495D02*
X76769755Y-28982500D01*
D29*
X63500000Y-27492081D02*
X63500000Y-30797500D01*
X63500000Y-26290000D02*
X63500000Y-27492081D01*
X55880000Y-26290000D02*
X55880000Y-27492081D01*
X55880000Y-27492081D02*
X55880000Y-30797500D01*
D25*
X78066750Y-29165935D02*
X76898500Y-27997685D01*
X78066750Y-31924750D02*
X78066750Y-29165935D01*
X76898500Y-27997685D02*
X76898500Y-27432000D01*
X78716750Y-31924750D02*
X78716750Y-28551750D01*
X78716750Y-28551750D02*
X78422500Y-28257500D01*
X80772000Y-24511000D02*
X80772000Y-22669500D01*
X80772000Y-22669500D02*
X80518000Y-22415500D01*
X79366750Y-31924750D02*
X79366750Y-30551425D01*
X79366750Y-30551425D02*
X81474998Y-28443177D01*
D30*
X87693500Y-30035500D02*
X100584000Y-30035500D01*
X86931500Y-29273500D02*
X87693500Y-30035500D01*
X102425500Y-31877000D02*
X102425500Y-36512500D01*
X86931500Y-23495000D02*
X86931500Y-29273500D01*
X103632000Y-37719000D02*
X108548500Y-37719000D01*
X82105500Y-22415500D02*
X85852000Y-22415500D01*
X85852000Y-22415500D02*
X86931500Y-23495000D01*
X100584000Y-30035500D02*
X102425500Y-31877000D01*
X102425500Y-36512500D02*
X103632000Y-37719000D01*
D25*
X82801500Y-34798000D02*
X86463990Y-31135510D01*
X86463990Y-31135510D02*
X98031691Y-31135510D01*
X81566750Y-34798000D02*
X82801500Y-34798000D01*
X98031691Y-31135510D02*
X98597376Y-31135510D01*
D26*
X52070000Y-39687500D02*
X52070000Y-38200490D01*
D25*
X82359500Y-25527000D02*
X81121250Y-25527000D01*
X80772000Y-25876250D02*
X80772000Y-26416000D01*
X82359500Y-25781000D02*
X82359500Y-25527000D01*
X81121250Y-25527000D02*
X80772000Y-25876250D01*
X78716746Y-38447252D02*
X78516761Y-38647237D01*
X78516761Y-39273761D02*
X79546636Y-40303636D01*
X78716746Y-37655500D02*
X78716746Y-38447252D01*
X78516761Y-38647237D02*
X78516761Y-39273761D01*
X79546636Y-40303636D02*
X79863431Y-40303636D01*
X79375000Y-37592000D02*
X79375000Y-38850139D01*
X79375000Y-38850139D02*
X79284990Y-38940149D01*
X80010000Y-37655500D02*
X80010000Y-39052500D01*
X80010000Y-39052500D02*
X80454500Y-39497000D01*
X91757500Y-34036000D02*
X86614000Y-34036000D01*
X96837500Y-39116000D02*
X91757500Y-34036000D01*
X104838500Y-39116000D02*
X96837500Y-39116000D01*
X106700500Y-40978000D02*
X104838500Y-39116000D01*
X106700500Y-42890000D02*
X106700500Y-40978000D01*
D28*
X85090000Y-40609971D02*
X84503708Y-40023679D01*
X85090000Y-45402500D02*
X85090000Y-40609971D01*
X73660000Y-44704000D02*
X75057000Y-46101000D01*
X75057000Y-46101000D02*
X84391500Y-46101000D01*
X84503708Y-40023679D02*
X84103709Y-39623680D01*
X84391500Y-46101000D02*
X85090000Y-45402500D01*
D25*
X86360000Y-39106680D02*
X86781345Y-38685335D01*
X86360000Y-42164000D02*
X86360000Y-39106680D01*
X96945501Y-33699501D02*
X97345500Y-34099500D01*
X86640501Y-32929999D02*
X96175999Y-32929999D01*
X81566750Y-36703000D02*
X82867500Y-36703000D01*
X96175999Y-32929999D02*
X96945501Y-33699501D01*
X82867500Y-36703000D02*
X86640501Y-32929999D01*
D26*
X62230000Y-43434000D02*
X62230000Y-39052500D01*
X62230000Y-39052500D02*
X62230000Y-27559000D01*
D25*
X78066750Y-37624750D02*
X78066750Y-38709750D01*
X78066750Y-38709750D02*
X76263500Y-40513000D01*
D29*
X82359500Y-28257500D02*
X82359500Y-25781000D01*
X82359500Y-25781000D02*
X82359500Y-24701500D01*
D25*
X79756000Y-23572500D02*
X79756000Y-21717000D01*
X119602000Y-21007500D02*
X119602000Y-25160502D01*
X80122000Y-24513500D02*
X80122000Y-23938500D01*
X81122990Y-20350010D02*
X118944510Y-20350010D01*
X118944510Y-20350010D02*
X119602000Y-21007500D01*
X79756000Y-21717000D02*
X81122990Y-20350010D01*
X80122000Y-23938500D02*
X79756000Y-23572500D01*
X119602000Y-25160502D02*
X118884501Y-25878001D01*
X118884501Y-25878001D02*
X118484502Y-26278000D01*
X81280000Y-21780500D02*
X82232500Y-20828000D01*
X81280000Y-22923500D02*
X81280000Y-21780500D01*
X81407000Y-24511000D02*
X81407000Y-23050500D01*
X82232500Y-20828000D02*
X111231000Y-20828000D01*
X81407000Y-23050500D02*
X81280000Y-22923500D01*
X111231000Y-20828000D02*
X111537500Y-21134500D01*
X111537500Y-21134500D02*
X111537500Y-25338002D01*
X111537500Y-25338002D02*
X110534002Y-26341500D01*
X80016750Y-31924750D02*
X80016750Y-30972415D01*
D29*
X82359500Y-28257500D02*
X82359500Y-29195350D01*
X80657445Y-30897405D02*
X80091760Y-30897405D01*
D25*
X80016750Y-30972415D02*
X80091760Y-30897405D01*
D29*
X82359500Y-29195350D02*
X80657445Y-30897405D01*
D25*
X104489000Y-22912500D02*
X104425500Y-22976000D01*
D29*
X115500000Y-22919500D02*
X115500000Y-34825000D01*
X115500000Y-34825000D02*
X115436500Y-34888500D01*
X107499000Y-22919500D02*
X107499000Y-34952000D01*
X107499000Y-34952000D02*
X107473500Y-34977500D01*
D27*
X34222081Y-23750000D02*
X34223081Y-23749000D01*
X33020000Y-23750000D02*
X34222081Y-23750000D01*
X34223081Y-23749000D02*
X38100000Y-23749000D01*
X38100000Y-23749000D02*
X40640000Y-23749000D01*
X40640000Y-23749000D02*
X43180000Y-23749000D01*
X43180000Y-23749000D02*
X45720000Y-23749000D01*
X45720000Y-23749000D02*
X48260000Y-23749000D01*
X48260000Y-23749000D02*
X50800000Y-23749000D01*
X50800000Y-23749000D02*
X53340000Y-23749000D01*
X53340000Y-23749000D02*
X55880000Y-23749000D01*
X55880000Y-23749000D02*
X58420000Y-23749000D01*
X58420000Y-23749000D02*
X60960000Y-23749000D01*
X60960000Y-23749000D02*
X63500000Y-23749000D01*
X63500000Y-23749000D02*
X66040000Y-23749000D01*
X66040000Y-23749000D02*
X68580000Y-23749000D01*
X68580000Y-23749000D02*
X71120000Y-23749000D01*
X71120000Y-23749000D02*
X73660000Y-23749000D01*
D30*
X108548500Y-37719000D02*
X115506500Y-37719000D01*
D25*
X115500000Y-37712500D02*
X115506500Y-37719000D01*
D30*
X115500000Y-34919500D02*
X115500000Y-37712500D01*
D26*
X60960000Y-44767500D02*
X59690000Y-43497500D01*
X59690000Y-27559000D02*
X58420000Y-26289000D01*
X59690000Y-43497500D02*
X59690000Y-27559000D01*
X23812500Y-36830000D02*
X24384000Y-36830000D01*
X23368000Y-36385500D02*
X23812500Y-36830000D01*
X23368000Y-34417000D02*
X23368000Y-36385500D01*
D31*
X23368000Y-32829500D02*
X23368000Y-34417000D01*
X23876000Y-30734000D02*
X23876000Y-32321500D01*
X23876000Y-32321500D02*
X23368000Y-32829500D01*
D26*
X36830000Y-27559000D02*
X38100000Y-26289000D01*
X38100000Y-44704000D02*
X36830000Y-43434000D01*
X36830000Y-43434000D02*
X36830000Y-27559000D01*
X39370000Y-27559000D02*
X40640000Y-26289000D01*
X40640000Y-44704000D02*
X39370000Y-43434000D01*
X39370000Y-43434000D02*
X39370000Y-27559000D01*
X41910000Y-43434000D02*
X43180000Y-44704000D01*
X43180000Y-26290000D02*
X41910000Y-27560000D01*
X41910000Y-27560000D02*
X41910000Y-43434000D01*
X44450000Y-27559000D02*
X45720000Y-26289000D01*
X45720000Y-44704000D02*
X44450000Y-43434000D01*
X44450000Y-43434000D02*
X44450000Y-27559000D01*
X46990000Y-27559000D02*
X48260000Y-26289000D01*
X48260000Y-44704000D02*
X46990000Y-43434000D01*
X46990000Y-43434000D02*
X46990000Y-27559000D01*
X52070000Y-43497500D02*
X53340000Y-44767500D01*
D25*
X53340000Y-26290000D02*
X53341000Y-26290000D01*
D26*
X53341000Y-26290000D02*
X52070000Y-27561000D01*
D25*
X82333500Y-28283500D02*
X82359500Y-28257500D01*
D26*
X52070000Y-39687500D02*
X52070000Y-43497500D01*
X52070000Y-27561000D02*
X52070000Y-39687500D01*
D30*
X107499000Y-37719000D02*
X108548500Y-37719000D01*
X107499000Y-34919500D02*
X107499000Y-37719000D01*
D29*
X101663500Y-40957500D02*
X104584500Y-40957500D01*
X104521000Y-42860000D02*
X106741000Y-42860000D01*
D25*
X106741000Y-42860000D02*
X106743500Y-42862500D01*
D30*
X106700500Y-42890000D02*
X114645000Y-42890000D01*
X114645000Y-42890000D02*
X114681000Y-42926000D01*
X116459000Y-38671500D02*
X115506500Y-37719000D01*
X116459000Y-44069000D02*
X116459000Y-38671500D01*
X101663500Y-46037500D02*
X114490500Y-46037500D01*
X114490500Y-46037500D02*
X116459000Y-44069000D01*
D26*
X62230000Y-27559000D02*
X60960000Y-26289000D01*
X63500000Y-44704000D02*
X62230000Y-43434000D01*
X77470000Y-43497500D02*
X77470000Y-41015185D01*
X78740000Y-44767500D02*
X77470000Y-43497500D01*
X77470000Y-41015185D02*
X77470000Y-40449500D01*
D32*
X45720000Y-40961919D02*
X45720000Y-34417000D01*
X45720000Y-42164000D02*
X45720000Y-40961919D01*
D29*
X82359500Y-24701500D02*
X83375500Y-23685500D01*
X83375500Y-23685500D02*
X84905315Y-23685500D01*
X84905315Y-23685500D02*
X85471000Y-23685500D01*
D26*
X33020000Y-26289000D02*
X33020000Y-33591500D01*
X33020000Y-36073815D02*
X33020000Y-36639500D01*
X33020000Y-34861500D02*
X33020000Y-36073815D01*
M02*
